%TF.GenerationSoftware,KiCad,Pcbnew,8.0.3*%
%TF.CreationDate,2024-07-01T01:52:40-03:00*%
%TF.ProjectId,led aqu_rio,6c656420-6171-475e-9172-696f2e6b6963,rev?*%
%TF.SameCoordinates,Original*%
%TF.FileFunction,Legend,Top*%
%TF.FilePolarity,Positive*%
%FSLAX46Y46*%
G04 Gerber Fmt 4.6, Leading zero omitted, Abs format (unit mm)*
G04 Created by KiCad (PCBNEW 8.0.3) date 2024-07-01 01:52:40*
%MOMM*%
%LPD*%
G01*
G04 APERTURE LIST*
%ADD10C,0.150000*%
%ADD11C,0.120000*%
%ADD12C,0.250000*%
G04 APERTURE END LIST*
D10*
X301357142Y-183954819D02*
X301023809Y-183478628D01*
X300785714Y-183954819D02*
X300785714Y-182954819D01*
X300785714Y-182954819D02*
X301166666Y-182954819D01*
X301166666Y-182954819D02*
X301261904Y-183002438D01*
X301261904Y-183002438D02*
X301309523Y-183050057D01*
X301309523Y-183050057D02*
X301357142Y-183145295D01*
X301357142Y-183145295D02*
X301357142Y-183288152D01*
X301357142Y-183288152D02*
X301309523Y-183383390D01*
X301309523Y-183383390D02*
X301261904Y-183431009D01*
X301261904Y-183431009D02*
X301166666Y-183478628D01*
X301166666Y-183478628D02*
X300785714Y-183478628D01*
X302309523Y-183954819D02*
X301738095Y-183954819D01*
X302023809Y-183954819D02*
X302023809Y-182954819D01*
X302023809Y-182954819D02*
X301928571Y-183097676D01*
X301928571Y-183097676D02*
X301833333Y-183192914D01*
X301833333Y-183192914D02*
X301738095Y-183240533D01*
X303166666Y-183288152D02*
X303166666Y-183954819D01*
X302928571Y-182907200D02*
X302690476Y-183621485D01*
X302690476Y-183621485D02*
X303309523Y-183621485D01*
X301357142Y-178834819D02*
X301023809Y-178358628D01*
X300785714Y-178834819D02*
X300785714Y-177834819D01*
X300785714Y-177834819D02*
X301166666Y-177834819D01*
X301166666Y-177834819D02*
X301261904Y-177882438D01*
X301261904Y-177882438D02*
X301309523Y-177930057D01*
X301309523Y-177930057D02*
X301357142Y-178025295D01*
X301357142Y-178025295D02*
X301357142Y-178168152D01*
X301357142Y-178168152D02*
X301309523Y-178263390D01*
X301309523Y-178263390D02*
X301261904Y-178311009D01*
X301261904Y-178311009D02*
X301166666Y-178358628D01*
X301166666Y-178358628D02*
X300785714Y-178358628D01*
X302309523Y-178834819D02*
X301738095Y-178834819D01*
X302023809Y-178834819D02*
X302023809Y-177834819D01*
X302023809Y-177834819D02*
X301928571Y-177977676D01*
X301928571Y-177977676D02*
X301833333Y-178072914D01*
X301833333Y-178072914D02*
X301738095Y-178120533D01*
X302642857Y-177834819D02*
X303261904Y-177834819D01*
X303261904Y-177834819D02*
X302928571Y-178215771D01*
X302928571Y-178215771D02*
X303071428Y-178215771D01*
X303071428Y-178215771D02*
X303166666Y-178263390D01*
X303166666Y-178263390D02*
X303214285Y-178311009D01*
X303214285Y-178311009D02*
X303261904Y-178406247D01*
X303261904Y-178406247D02*
X303261904Y-178644342D01*
X303261904Y-178644342D02*
X303214285Y-178739580D01*
X303214285Y-178739580D02*
X303166666Y-178787200D01*
X303166666Y-178787200D02*
X303071428Y-178834819D01*
X303071428Y-178834819D02*
X302785714Y-178834819D01*
X302785714Y-178834819D02*
X302690476Y-178787200D01*
X302690476Y-178787200D02*
X302642857Y-178739580D01*
X300857142Y-101454819D02*
X300523809Y-100978628D01*
X300285714Y-101454819D02*
X300285714Y-100454819D01*
X300285714Y-100454819D02*
X300666666Y-100454819D01*
X300666666Y-100454819D02*
X300761904Y-100502438D01*
X300761904Y-100502438D02*
X300809523Y-100550057D01*
X300809523Y-100550057D02*
X300857142Y-100645295D01*
X300857142Y-100645295D02*
X300857142Y-100788152D01*
X300857142Y-100788152D02*
X300809523Y-100883390D01*
X300809523Y-100883390D02*
X300761904Y-100931009D01*
X300761904Y-100931009D02*
X300666666Y-100978628D01*
X300666666Y-100978628D02*
X300285714Y-100978628D01*
X301809523Y-101454819D02*
X301238095Y-101454819D01*
X301523809Y-101454819D02*
X301523809Y-100454819D01*
X301523809Y-100454819D02*
X301428571Y-100597676D01*
X301428571Y-100597676D02*
X301333333Y-100692914D01*
X301333333Y-100692914D02*
X301238095Y-100740533D01*
X302190476Y-100550057D02*
X302238095Y-100502438D01*
X302238095Y-100502438D02*
X302333333Y-100454819D01*
X302333333Y-100454819D02*
X302571428Y-100454819D01*
X302571428Y-100454819D02*
X302666666Y-100502438D01*
X302666666Y-100502438D02*
X302714285Y-100550057D01*
X302714285Y-100550057D02*
X302761904Y-100645295D01*
X302761904Y-100645295D02*
X302761904Y-100740533D01*
X302761904Y-100740533D02*
X302714285Y-100883390D01*
X302714285Y-100883390D02*
X302142857Y-101454819D01*
X302142857Y-101454819D02*
X302761904Y-101454819D01*
X300857142Y-96334819D02*
X300523809Y-95858628D01*
X300285714Y-96334819D02*
X300285714Y-95334819D01*
X300285714Y-95334819D02*
X300666666Y-95334819D01*
X300666666Y-95334819D02*
X300761904Y-95382438D01*
X300761904Y-95382438D02*
X300809523Y-95430057D01*
X300809523Y-95430057D02*
X300857142Y-95525295D01*
X300857142Y-95525295D02*
X300857142Y-95668152D01*
X300857142Y-95668152D02*
X300809523Y-95763390D01*
X300809523Y-95763390D02*
X300761904Y-95811009D01*
X300761904Y-95811009D02*
X300666666Y-95858628D01*
X300666666Y-95858628D02*
X300285714Y-95858628D01*
X301809523Y-96334819D02*
X301238095Y-96334819D01*
X301523809Y-96334819D02*
X301523809Y-95334819D01*
X301523809Y-95334819D02*
X301428571Y-95477676D01*
X301428571Y-95477676D02*
X301333333Y-95572914D01*
X301333333Y-95572914D02*
X301238095Y-95620533D01*
X302761904Y-96334819D02*
X302190476Y-96334819D01*
X302476190Y-96334819D02*
X302476190Y-95334819D01*
X302476190Y-95334819D02*
X302380952Y-95477676D01*
X302380952Y-95477676D02*
X302285714Y-95572914D01*
X302285714Y-95572914D02*
X302190476Y-95620533D01*
X300319642Y-114954819D02*
X299986309Y-114478628D01*
X299748214Y-114954819D02*
X299748214Y-113954819D01*
X299748214Y-113954819D02*
X300129166Y-113954819D01*
X300129166Y-113954819D02*
X300224404Y-114002438D01*
X300224404Y-114002438D02*
X300272023Y-114050057D01*
X300272023Y-114050057D02*
X300319642Y-114145295D01*
X300319642Y-114145295D02*
X300319642Y-114288152D01*
X300319642Y-114288152D02*
X300272023Y-114383390D01*
X300272023Y-114383390D02*
X300224404Y-114431009D01*
X300224404Y-114431009D02*
X300129166Y-114478628D01*
X300129166Y-114478628D02*
X299748214Y-114478628D01*
X301272023Y-114954819D02*
X300700595Y-114954819D01*
X300986309Y-114954819D02*
X300986309Y-113954819D01*
X300986309Y-113954819D02*
X300891071Y-114097676D01*
X300891071Y-114097676D02*
X300795833Y-114192914D01*
X300795833Y-114192914D02*
X300700595Y-114240533D01*
X301891071Y-113954819D02*
X301986309Y-113954819D01*
X301986309Y-113954819D02*
X302081547Y-114002438D01*
X302081547Y-114002438D02*
X302129166Y-114050057D01*
X302129166Y-114050057D02*
X302176785Y-114145295D01*
X302176785Y-114145295D02*
X302224404Y-114335771D01*
X302224404Y-114335771D02*
X302224404Y-114573866D01*
X302224404Y-114573866D02*
X302176785Y-114764342D01*
X302176785Y-114764342D02*
X302129166Y-114859580D01*
X302129166Y-114859580D02*
X302081547Y-114907200D01*
X302081547Y-114907200D02*
X301986309Y-114954819D01*
X301986309Y-114954819D02*
X301891071Y-114954819D01*
X301891071Y-114954819D02*
X301795833Y-114907200D01*
X301795833Y-114907200D02*
X301748214Y-114859580D01*
X301748214Y-114859580D02*
X301700595Y-114764342D01*
X301700595Y-114764342D02*
X301652976Y-114573866D01*
X301652976Y-114573866D02*
X301652976Y-114335771D01*
X301652976Y-114335771D02*
X301700595Y-114145295D01*
X301700595Y-114145295D02*
X301748214Y-114050057D01*
X301748214Y-114050057D02*
X301795833Y-114002438D01*
X301795833Y-114002438D02*
X301891071Y-113954819D01*
X300795833Y-109834819D02*
X300462500Y-109358628D01*
X300224405Y-109834819D02*
X300224405Y-108834819D01*
X300224405Y-108834819D02*
X300605357Y-108834819D01*
X300605357Y-108834819D02*
X300700595Y-108882438D01*
X300700595Y-108882438D02*
X300748214Y-108930057D01*
X300748214Y-108930057D02*
X300795833Y-109025295D01*
X300795833Y-109025295D02*
X300795833Y-109168152D01*
X300795833Y-109168152D02*
X300748214Y-109263390D01*
X300748214Y-109263390D02*
X300700595Y-109311009D01*
X300700595Y-109311009D02*
X300605357Y-109358628D01*
X300605357Y-109358628D02*
X300224405Y-109358628D01*
X301272024Y-109834819D02*
X301462500Y-109834819D01*
X301462500Y-109834819D02*
X301557738Y-109787200D01*
X301557738Y-109787200D02*
X301605357Y-109739580D01*
X301605357Y-109739580D02*
X301700595Y-109596723D01*
X301700595Y-109596723D02*
X301748214Y-109406247D01*
X301748214Y-109406247D02*
X301748214Y-109025295D01*
X301748214Y-109025295D02*
X301700595Y-108930057D01*
X301700595Y-108930057D02*
X301652976Y-108882438D01*
X301652976Y-108882438D02*
X301557738Y-108834819D01*
X301557738Y-108834819D02*
X301367262Y-108834819D01*
X301367262Y-108834819D02*
X301272024Y-108882438D01*
X301272024Y-108882438D02*
X301224405Y-108930057D01*
X301224405Y-108930057D02*
X301176786Y-109025295D01*
X301176786Y-109025295D02*
X301176786Y-109263390D01*
X301176786Y-109263390D02*
X301224405Y-109358628D01*
X301224405Y-109358628D02*
X301272024Y-109406247D01*
X301272024Y-109406247D02*
X301367262Y-109453866D01*
X301367262Y-109453866D02*
X301557738Y-109453866D01*
X301557738Y-109453866D02*
X301652976Y-109406247D01*
X301652976Y-109406247D02*
X301700595Y-109358628D01*
X301700595Y-109358628D02*
X301748214Y-109263390D01*
X300870833Y-128454819D02*
X300537500Y-127978628D01*
X300299405Y-128454819D02*
X300299405Y-127454819D01*
X300299405Y-127454819D02*
X300680357Y-127454819D01*
X300680357Y-127454819D02*
X300775595Y-127502438D01*
X300775595Y-127502438D02*
X300823214Y-127550057D01*
X300823214Y-127550057D02*
X300870833Y-127645295D01*
X300870833Y-127645295D02*
X300870833Y-127788152D01*
X300870833Y-127788152D02*
X300823214Y-127883390D01*
X300823214Y-127883390D02*
X300775595Y-127931009D01*
X300775595Y-127931009D02*
X300680357Y-127978628D01*
X300680357Y-127978628D02*
X300299405Y-127978628D01*
X301442262Y-127883390D02*
X301347024Y-127835771D01*
X301347024Y-127835771D02*
X301299405Y-127788152D01*
X301299405Y-127788152D02*
X301251786Y-127692914D01*
X301251786Y-127692914D02*
X301251786Y-127645295D01*
X301251786Y-127645295D02*
X301299405Y-127550057D01*
X301299405Y-127550057D02*
X301347024Y-127502438D01*
X301347024Y-127502438D02*
X301442262Y-127454819D01*
X301442262Y-127454819D02*
X301632738Y-127454819D01*
X301632738Y-127454819D02*
X301727976Y-127502438D01*
X301727976Y-127502438D02*
X301775595Y-127550057D01*
X301775595Y-127550057D02*
X301823214Y-127645295D01*
X301823214Y-127645295D02*
X301823214Y-127692914D01*
X301823214Y-127692914D02*
X301775595Y-127788152D01*
X301775595Y-127788152D02*
X301727976Y-127835771D01*
X301727976Y-127835771D02*
X301632738Y-127883390D01*
X301632738Y-127883390D02*
X301442262Y-127883390D01*
X301442262Y-127883390D02*
X301347024Y-127931009D01*
X301347024Y-127931009D02*
X301299405Y-127978628D01*
X301299405Y-127978628D02*
X301251786Y-128073866D01*
X301251786Y-128073866D02*
X301251786Y-128264342D01*
X301251786Y-128264342D02*
X301299405Y-128359580D01*
X301299405Y-128359580D02*
X301347024Y-128407200D01*
X301347024Y-128407200D02*
X301442262Y-128454819D01*
X301442262Y-128454819D02*
X301632738Y-128454819D01*
X301632738Y-128454819D02*
X301727976Y-128407200D01*
X301727976Y-128407200D02*
X301775595Y-128359580D01*
X301775595Y-128359580D02*
X301823214Y-128264342D01*
X301823214Y-128264342D02*
X301823214Y-128073866D01*
X301823214Y-128073866D02*
X301775595Y-127978628D01*
X301775595Y-127978628D02*
X301727976Y-127931009D01*
X301727976Y-127931009D02*
X301632738Y-127883390D01*
X300870833Y-123334819D02*
X300537500Y-122858628D01*
X300299405Y-123334819D02*
X300299405Y-122334819D01*
X300299405Y-122334819D02*
X300680357Y-122334819D01*
X300680357Y-122334819D02*
X300775595Y-122382438D01*
X300775595Y-122382438D02*
X300823214Y-122430057D01*
X300823214Y-122430057D02*
X300870833Y-122525295D01*
X300870833Y-122525295D02*
X300870833Y-122668152D01*
X300870833Y-122668152D02*
X300823214Y-122763390D01*
X300823214Y-122763390D02*
X300775595Y-122811009D01*
X300775595Y-122811009D02*
X300680357Y-122858628D01*
X300680357Y-122858628D02*
X300299405Y-122858628D01*
X301204167Y-122334819D02*
X301870833Y-122334819D01*
X301870833Y-122334819D02*
X301442262Y-123334819D01*
X301333333Y-137834819D02*
X301000000Y-137358628D01*
X300761905Y-137834819D02*
X300761905Y-136834819D01*
X300761905Y-136834819D02*
X301142857Y-136834819D01*
X301142857Y-136834819D02*
X301238095Y-136882438D01*
X301238095Y-136882438D02*
X301285714Y-136930057D01*
X301285714Y-136930057D02*
X301333333Y-137025295D01*
X301333333Y-137025295D02*
X301333333Y-137168152D01*
X301333333Y-137168152D02*
X301285714Y-137263390D01*
X301285714Y-137263390D02*
X301238095Y-137311009D01*
X301238095Y-137311009D02*
X301142857Y-137358628D01*
X301142857Y-137358628D02*
X300761905Y-137358628D01*
X302190476Y-136834819D02*
X302000000Y-136834819D01*
X302000000Y-136834819D02*
X301904762Y-136882438D01*
X301904762Y-136882438D02*
X301857143Y-136930057D01*
X301857143Y-136930057D02*
X301761905Y-137072914D01*
X301761905Y-137072914D02*
X301714286Y-137263390D01*
X301714286Y-137263390D02*
X301714286Y-137644342D01*
X301714286Y-137644342D02*
X301761905Y-137739580D01*
X301761905Y-137739580D02*
X301809524Y-137787200D01*
X301809524Y-137787200D02*
X301904762Y-137834819D01*
X301904762Y-137834819D02*
X302095238Y-137834819D01*
X302095238Y-137834819D02*
X302190476Y-137787200D01*
X302190476Y-137787200D02*
X302238095Y-137739580D01*
X302238095Y-137739580D02*
X302285714Y-137644342D01*
X302285714Y-137644342D02*
X302285714Y-137406247D01*
X302285714Y-137406247D02*
X302238095Y-137311009D01*
X302238095Y-137311009D02*
X302190476Y-137263390D01*
X302190476Y-137263390D02*
X302095238Y-137215771D01*
X302095238Y-137215771D02*
X301904762Y-137215771D01*
X301904762Y-137215771D02*
X301809524Y-137263390D01*
X301809524Y-137263390D02*
X301761905Y-137311009D01*
X301761905Y-137311009D02*
X301714286Y-137406247D01*
X301333333Y-142954819D02*
X301000000Y-142478628D01*
X300761905Y-142954819D02*
X300761905Y-141954819D01*
X300761905Y-141954819D02*
X301142857Y-141954819D01*
X301142857Y-141954819D02*
X301238095Y-142002438D01*
X301238095Y-142002438D02*
X301285714Y-142050057D01*
X301285714Y-142050057D02*
X301333333Y-142145295D01*
X301333333Y-142145295D02*
X301333333Y-142288152D01*
X301333333Y-142288152D02*
X301285714Y-142383390D01*
X301285714Y-142383390D02*
X301238095Y-142431009D01*
X301238095Y-142431009D02*
X301142857Y-142478628D01*
X301142857Y-142478628D02*
X300761905Y-142478628D01*
X302238095Y-141954819D02*
X301761905Y-141954819D01*
X301761905Y-141954819D02*
X301714286Y-142431009D01*
X301714286Y-142431009D02*
X301761905Y-142383390D01*
X301761905Y-142383390D02*
X301857143Y-142335771D01*
X301857143Y-142335771D02*
X302095238Y-142335771D01*
X302095238Y-142335771D02*
X302190476Y-142383390D01*
X302190476Y-142383390D02*
X302238095Y-142431009D01*
X302238095Y-142431009D02*
X302285714Y-142526247D01*
X302285714Y-142526247D02*
X302285714Y-142764342D01*
X302285714Y-142764342D02*
X302238095Y-142859580D01*
X302238095Y-142859580D02*
X302190476Y-142907200D01*
X302190476Y-142907200D02*
X302095238Y-142954819D01*
X302095238Y-142954819D02*
X301857143Y-142954819D01*
X301857143Y-142954819D02*
X301761905Y-142907200D01*
X301761905Y-142907200D02*
X301714286Y-142859580D01*
X301370833Y-156954819D02*
X301037500Y-156478628D01*
X300799405Y-156954819D02*
X300799405Y-155954819D01*
X300799405Y-155954819D02*
X301180357Y-155954819D01*
X301180357Y-155954819D02*
X301275595Y-156002438D01*
X301275595Y-156002438D02*
X301323214Y-156050057D01*
X301323214Y-156050057D02*
X301370833Y-156145295D01*
X301370833Y-156145295D02*
X301370833Y-156288152D01*
X301370833Y-156288152D02*
X301323214Y-156383390D01*
X301323214Y-156383390D02*
X301275595Y-156431009D01*
X301275595Y-156431009D02*
X301180357Y-156478628D01*
X301180357Y-156478628D02*
X300799405Y-156478628D01*
X302227976Y-156288152D02*
X302227976Y-156954819D01*
X301989881Y-155907200D02*
X301751786Y-156621485D01*
X301751786Y-156621485D02*
X302370833Y-156621485D01*
X301713333Y-151954819D02*
X301380000Y-151478628D01*
X301141905Y-151954819D02*
X301141905Y-150954819D01*
X301141905Y-150954819D02*
X301522857Y-150954819D01*
X301522857Y-150954819D02*
X301618095Y-151002438D01*
X301618095Y-151002438D02*
X301665714Y-151050057D01*
X301665714Y-151050057D02*
X301713333Y-151145295D01*
X301713333Y-151145295D02*
X301713333Y-151288152D01*
X301713333Y-151288152D02*
X301665714Y-151383390D01*
X301665714Y-151383390D02*
X301618095Y-151431009D01*
X301618095Y-151431009D02*
X301522857Y-151478628D01*
X301522857Y-151478628D02*
X301141905Y-151478628D01*
X302046667Y-150954819D02*
X302665714Y-150954819D01*
X302665714Y-150954819D02*
X302332381Y-151335771D01*
X302332381Y-151335771D02*
X302475238Y-151335771D01*
X302475238Y-151335771D02*
X302570476Y-151383390D01*
X302570476Y-151383390D02*
X302618095Y-151431009D01*
X302618095Y-151431009D02*
X302665714Y-151526247D01*
X302665714Y-151526247D02*
X302665714Y-151764342D01*
X302665714Y-151764342D02*
X302618095Y-151859580D01*
X302618095Y-151859580D02*
X302570476Y-151907200D01*
X302570476Y-151907200D02*
X302475238Y-151954819D01*
X302475238Y-151954819D02*
X302189524Y-151954819D01*
X302189524Y-151954819D02*
X302094286Y-151907200D01*
X302094286Y-151907200D02*
X302046667Y-151859580D01*
X301333333Y-170954819D02*
X301000000Y-170478628D01*
X300761905Y-170954819D02*
X300761905Y-169954819D01*
X300761905Y-169954819D02*
X301142857Y-169954819D01*
X301142857Y-169954819D02*
X301238095Y-170002438D01*
X301238095Y-170002438D02*
X301285714Y-170050057D01*
X301285714Y-170050057D02*
X301333333Y-170145295D01*
X301333333Y-170145295D02*
X301333333Y-170288152D01*
X301333333Y-170288152D02*
X301285714Y-170383390D01*
X301285714Y-170383390D02*
X301238095Y-170431009D01*
X301238095Y-170431009D02*
X301142857Y-170478628D01*
X301142857Y-170478628D02*
X300761905Y-170478628D01*
X301714286Y-170050057D02*
X301761905Y-170002438D01*
X301761905Y-170002438D02*
X301857143Y-169954819D01*
X301857143Y-169954819D02*
X302095238Y-169954819D01*
X302095238Y-169954819D02*
X302190476Y-170002438D01*
X302190476Y-170002438D02*
X302238095Y-170050057D01*
X302238095Y-170050057D02*
X302285714Y-170145295D01*
X302285714Y-170145295D02*
X302285714Y-170240533D01*
X302285714Y-170240533D02*
X302238095Y-170383390D01*
X302238095Y-170383390D02*
X301666667Y-170954819D01*
X301666667Y-170954819D02*
X302285714Y-170954819D01*
X301333333Y-165834819D02*
X301000000Y-165358628D01*
X300761905Y-165834819D02*
X300761905Y-164834819D01*
X300761905Y-164834819D02*
X301142857Y-164834819D01*
X301142857Y-164834819D02*
X301238095Y-164882438D01*
X301238095Y-164882438D02*
X301285714Y-164930057D01*
X301285714Y-164930057D02*
X301333333Y-165025295D01*
X301333333Y-165025295D02*
X301333333Y-165168152D01*
X301333333Y-165168152D02*
X301285714Y-165263390D01*
X301285714Y-165263390D02*
X301238095Y-165311009D01*
X301238095Y-165311009D02*
X301142857Y-165358628D01*
X301142857Y-165358628D02*
X300761905Y-165358628D01*
X302285714Y-165834819D02*
X301714286Y-165834819D01*
X302000000Y-165834819D02*
X302000000Y-164834819D01*
X302000000Y-164834819D02*
X301904762Y-164977676D01*
X301904762Y-164977676D02*
X301809524Y-165072914D01*
X301809524Y-165072914D02*
X301714286Y-165120533D01*
X348601779Y-137754819D02*
X348601779Y-136754819D01*
X348601779Y-136754819D02*
X348839874Y-136754819D01*
X348839874Y-136754819D02*
X348982731Y-136802438D01*
X348982731Y-136802438D02*
X349077969Y-136897676D01*
X349077969Y-136897676D02*
X349125588Y-136992914D01*
X349125588Y-136992914D02*
X349173207Y-137183390D01*
X349173207Y-137183390D02*
X349173207Y-137326247D01*
X349173207Y-137326247D02*
X349125588Y-137516723D01*
X349125588Y-137516723D02*
X349077969Y-137611961D01*
X349077969Y-137611961D02*
X348982731Y-137707200D01*
X348982731Y-137707200D02*
X348839874Y-137754819D01*
X348839874Y-137754819D02*
X348601779Y-137754819D01*
X350125588Y-137754819D02*
X349554160Y-137754819D01*
X349839874Y-137754819D02*
X349839874Y-136754819D01*
X349839874Y-136754819D02*
X349744636Y-136897676D01*
X349744636Y-136897676D02*
X349649398Y-136992914D01*
X349649398Y-136992914D02*
X349554160Y-137040533D01*
X351030350Y-136754819D02*
X350554160Y-136754819D01*
X350554160Y-136754819D02*
X350506541Y-137231009D01*
X350506541Y-137231009D02*
X350554160Y-137183390D01*
X350554160Y-137183390D02*
X350649398Y-137135771D01*
X350649398Y-137135771D02*
X350887493Y-137135771D01*
X350887493Y-137135771D02*
X350982731Y-137183390D01*
X350982731Y-137183390D02*
X351030350Y-137231009D01*
X351030350Y-137231009D02*
X351077969Y-137326247D01*
X351077969Y-137326247D02*
X351077969Y-137564342D01*
X351077969Y-137564342D02*
X351030350Y-137659580D01*
X351030350Y-137659580D02*
X350982731Y-137707200D01*
X350982731Y-137707200D02*
X350887493Y-137754819D01*
X350887493Y-137754819D02*
X350649398Y-137754819D01*
X350649398Y-137754819D02*
X350554160Y-137707200D01*
X350554160Y-137707200D02*
X350506541Y-137659580D01*
X329601779Y-109754819D02*
X329601779Y-108754819D01*
X329601779Y-108754819D02*
X329839874Y-108754819D01*
X329839874Y-108754819D02*
X329982731Y-108802438D01*
X329982731Y-108802438D02*
X330077969Y-108897676D01*
X330077969Y-108897676D02*
X330125588Y-108992914D01*
X330125588Y-108992914D02*
X330173207Y-109183390D01*
X330173207Y-109183390D02*
X330173207Y-109326247D01*
X330173207Y-109326247D02*
X330125588Y-109516723D01*
X330125588Y-109516723D02*
X330077969Y-109611961D01*
X330077969Y-109611961D02*
X329982731Y-109707200D01*
X329982731Y-109707200D02*
X329839874Y-109754819D01*
X329839874Y-109754819D02*
X329601779Y-109754819D01*
X331030350Y-108754819D02*
X330839874Y-108754819D01*
X330839874Y-108754819D02*
X330744636Y-108802438D01*
X330744636Y-108802438D02*
X330697017Y-108850057D01*
X330697017Y-108850057D02*
X330601779Y-108992914D01*
X330601779Y-108992914D02*
X330554160Y-109183390D01*
X330554160Y-109183390D02*
X330554160Y-109564342D01*
X330554160Y-109564342D02*
X330601779Y-109659580D01*
X330601779Y-109659580D02*
X330649398Y-109707200D01*
X330649398Y-109707200D02*
X330744636Y-109754819D01*
X330744636Y-109754819D02*
X330935112Y-109754819D01*
X330935112Y-109754819D02*
X331030350Y-109707200D01*
X331030350Y-109707200D02*
X331077969Y-109659580D01*
X331077969Y-109659580D02*
X331125588Y-109564342D01*
X331125588Y-109564342D02*
X331125588Y-109326247D01*
X331125588Y-109326247D02*
X331077969Y-109231009D01*
X331077969Y-109231009D02*
X331030350Y-109183390D01*
X331030350Y-109183390D02*
X330935112Y-109135771D01*
X330935112Y-109135771D02*
X330744636Y-109135771D01*
X330744636Y-109135771D02*
X330649398Y-109183390D01*
X330649398Y-109183390D02*
X330601779Y-109231009D01*
X330601779Y-109231009D02*
X330554160Y-109326247D01*
X310601779Y-109754819D02*
X310601779Y-108754819D01*
X310601779Y-108754819D02*
X310839874Y-108754819D01*
X310839874Y-108754819D02*
X310982731Y-108802438D01*
X310982731Y-108802438D02*
X311077969Y-108897676D01*
X311077969Y-108897676D02*
X311125588Y-108992914D01*
X311125588Y-108992914D02*
X311173207Y-109183390D01*
X311173207Y-109183390D02*
X311173207Y-109326247D01*
X311173207Y-109326247D02*
X311125588Y-109516723D01*
X311125588Y-109516723D02*
X311077969Y-109611961D01*
X311077969Y-109611961D02*
X310982731Y-109707200D01*
X310982731Y-109707200D02*
X310839874Y-109754819D01*
X310839874Y-109754819D02*
X310601779Y-109754819D01*
X312077969Y-108754819D02*
X311601779Y-108754819D01*
X311601779Y-108754819D02*
X311554160Y-109231009D01*
X311554160Y-109231009D02*
X311601779Y-109183390D01*
X311601779Y-109183390D02*
X311697017Y-109135771D01*
X311697017Y-109135771D02*
X311935112Y-109135771D01*
X311935112Y-109135771D02*
X312030350Y-109183390D01*
X312030350Y-109183390D02*
X312077969Y-109231009D01*
X312077969Y-109231009D02*
X312125588Y-109326247D01*
X312125588Y-109326247D02*
X312125588Y-109564342D01*
X312125588Y-109564342D02*
X312077969Y-109659580D01*
X312077969Y-109659580D02*
X312030350Y-109707200D01*
X312030350Y-109707200D02*
X311935112Y-109754819D01*
X311935112Y-109754819D02*
X311697017Y-109754819D01*
X311697017Y-109754819D02*
X311601779Y-109707200D01*
X311601779Y-109707200D02*
X311554160Y-109659580D01*
X367601779Y-123754819D02*
X367601779Y-122754819D01*
X367601779Y-122754819D02*
X367839874Y-122754819D01*
X367839874Y-122754819D02*
X367982731Y-122802438D01*
X367982731Y-122802438D02*
X368077969Y-122897676D01*
X368077969Y-122897676D02*
X368125588Y-122992914D01*
X368125588Y-122992914D02*
X368173207Y-123183390D01*
X368173207Y-123183390D02*
X368173207Y-123326247D01*
X368173207Y-123326247D02*
X368125588Y-123516723D01*
X368125588Y-123516723D02*
X368077969Y-123611961D01*
X368077969Y-123611961D02*
X367982731Y-123707200D01*
X367982731Y-123707200D02*
X367839874Y-123754819D01*
X367839874Y-123754819D02*
X367601779Y-123754819D01*
X369125588Y-123754819D02*
X368554160Y-123754819D01*
X368839874Y-123754819D02*
X368839874Y-122754819D01*
X368839874Y-122754819D02*
X368744636Y-122897676D01*
X368744636Y-122897676D02*
X368649398Y-122992914D01*
X368649398Y-122992914D02*
X368554160Y-123040533D01*
X369506541Y-122850057D02*
X369554160Y-122802438D01*
X369554160Y-122802438D02*
X369649398Y-122754819D01*
X369649398Y-122754819D02*
X369887493Y-122754819D01*
X369887493Y-122754819D02*
X369982731Y-122802438D01*
X369982731Y-122802438D02*
X370030350Y-122850057D01*
X370030350Y-122850057D02*
X370077969Y-122945295D01*
X370077969Y-122945295D02*
X370077969Y-123040533D01*
X370077969Y-123040533D02*
X370030350Y-123183390D01*
X370030350Y-123183390D02*
X369458922Y-123754819D01*
X369458922Y-123754819D02*
X370077969Y-123754819D01*
X381786819Y-109023333D02*
X382501104Y-109023333D01*
X382501104Y-109023333D02*
X382643961Y-109070952D01*
X382643961Y-109070952D02*
X382739200Y-109166190D01*
X382739200Y-109166190D02*
X382786819Y-109309047D01*
X382786819Y-109309047D02*
X382786819Y-109404285D01*
X381786819Y-108070952D02*
X381786819Y-108547142D01*
X381786819Y-108547142D02*
X382263009Y-108594761D01*
X382263009Y-108594761D02*
X382215390Y-108547142D01*
X382215390Y-108547142D02*
X382167771Y-108451904D01*
X382167771Y-108451904D02*
X382167771Y-108213809D01*
X382167771Y-108213809D02*
X382215390Y-108118571D01*
X382215390Y-108118571D02*
X382263009Y-108070952D01*
X382263009Y-108070952D02*
X382358247Y-108023333D01*
X382358247Y-108023333D02*
X382596342Y-108023333D01*
X382596342Y-108023333D02*
X382691580Y-108070952D01*
X382691580Y-108070952D02*
X382739200Y-108118571D01*
X382739200Y-108118571D02*
X382786819Y-108213809D01*
X382786819Y-108213809D02*
X382786819Y-108451904D01*
X382786819Y-108451904D02*
X382739200Y-108547142D01*
X382739200Y-108547142D02*
X382691580Y-108594761D01*
X367601779Y-137754819D02*
X367601779Y-136754819D01*
X367601779Y-136754819D02*
X367839874Y-136754819D01*
X367839874Y-136754819D02*
X367982731Y-136802438D01*
X367982731Y-136802438D02*
X368077969Y-136897676D01*
X368077969Y-136897676D02*
X368125588Y-136992914D01*
X368125588Y-136992914D02*
X368173207Y-137183390D01*
X368173207Y-137183390D02*
X368173207Y-137326247D01*
X368173207Y-137326247D02*
X368125588Y-137516723D01*
X368125588Y-137516723D02*
X368077969Y-137611961D01*
X368077969Y-137611961D02*
X367982731Y-137707200D01*
X367982731Y-137707200D02*
X367839874Y-137754819D01*
X367839874Y-137754819D02*
X367601779Y-137754819D01*
X369125588Y-137754819D02*
X368554160Y-137754819D01*
X368839874Y-137754819D02*
X368839874Y-136754819D01*
X368839874Y-136754819D02*
X368744636Y-136897676D01*
X368744636Y-136897676D02*
X368649398Y-136992914D01*
X368649398Y-136992914D02*
X368554160Y-137040533D01*
X369982731Y-136754819D02*
X369792255Y-136754819D01*
X369792255Y-136754819D02*
X369697017Y-136802438D01*
X369697017Y-136802438D02*
X369649398Y-136850057D01*
X369649398Y-136850057D02*
X369554160Y-136992914D01*
X369554160Y-136992914D02*
X369506541Y-137183390D01*
X369506541Y-137183390D02*
X369506541Y-137564342D01*
X369506541Y-137564342D02*
X369554160Y-137659580D01*
X369554160Y-137659580D02*
X369601779Y-137707200D01*
X369601779Y-137707200D02*
X369697017Y-137754819D01*
X369697017Y-137754819D02*
X369887493Y-137754819D01*
X369887493Y-137754819D02*
X369982731Y-137707200D01*
X369982731Y-137707200D02*
X370030350Y-137659580D01*
X370030350Y-137659580D02*
X370077969Y-137564342D01*
X370077969Y-137564342D02*
X370077969Y-137326247D01*
X370077969Y-137326247D02*
X370030350Y-137231009D01*
X370030350Y-137231009D02*
X369982731Y-137183390D01*
X369982731Y-137183390D02*
X369887493Y-137135771D01*
X369887493Y-137135771D02*
X369697017Y-137135771D01*
X369697017Y-137135771D02*
X369601779Y-137183390D01*
X369601779Y-137183390D02*
X369554160Y-137231009D01*
X369554160Y-137231009D02*
X369506541Y-137326247D01*
X348601779Y-165754819D02*
X348601779Y-164754819D01*
X348601779Y-164754819D02*
X348839874Y-164754819D01*
X348839874Y-164754819D02*
X348982731Y-164802438D01*
X348982731Y-164802438D02*
X349077969Y-164897676D01*
X349077969Y-164897676D02*
X349125588Y-164992914D01*
X349125588Y-164992914D02*
X349173207Y-165183390D01*
X349173207Y-165183390D02*
X349173207Y-165326247D01*
X349173207Y-165326247D02*
X349125588Y-165516723D01*
X349125588Y-165516723D02*
X349077969Y-165611961D01*
X349077969Y-165611961D02*
X348982731Y-165707200D01*
X348982731Y-165707200D02*
X348839874Y-165754819D01*
X348839874Y-165754819D02*
X348601779Y-165754819D01*
X349554160Y-164850057D02*
X349601779Y-164802438D01*
X349601779Y-164802438D02*
X349697017Y-164754819D01*
X349697017Y-164754819D02*
X349935112Y-164754819D01*
X349935112Y-164754819D02*
X350030350Y-164802438D01*
X350030350Y-164802438D02*
X350077969Y-164850057D01*
X350077969Y-164850057D02*
X350125588Y-164945295D01*
X350125588Y-164945295D02*
X350125588Y-165040533D01*
X350125588Y-165040533D02*
X350077969Y-165183390D01*
X350077969Y-165183390D02*
X349506541Y-165754819D01*
X349506541Y-165754819D02*
X350125588Y-165754819D01*
X350458922Y-164754819D02*
X351077969Y-164754819D01*
X351077969Y-164754819D02*
X350744636Y-165135771D01*
X350744636Y-165135771D02*
X350887493Y-165135771D01*
X350887493Y-165135771D02*
X350982731Y-165183390D01*
X350982731Y-165183390D02*
X351030350Y-165231009D01*
X351030350Y-165231009D02*
X351077969Y-165326247D01*
X351077969Y-165326247D02*
X351077969Y-165564342D01*
X351077969Y-165564342D02*
X351030350Y-165659580D01*
X351030350Y-165659580D02*
X350982731Y-165707200D01*
X350982731Y-165707200D02*
X350887493Y-165754819D01*
X350887493Y-165754819D02*
X350601779Y-165754819D01*
X350601779Y-165754819D02*
X350506541Y-165707200D01*
X350506541Y-165707200D02*
X350458922Y-165659580D01*
X329601779Y-95754819D02*
X329601779Y-94754819D01*
X329601779Y-94754819D02*
X329839874Y-94754819D01*
X329839874Y-94754819D02*
X329982731Y-94802438D01*
X329982731Y-94802438D02*
X330077969Y-94897676D01*
X330077969Y-94897676D02*
X330125588Y-94992914D01*
X330125588Y-94992914D02*
X330173207Y-95183390D01*
X330173207Y-95183390D02*
X330173207Y-95326247D01*
X330173207Y-95326247D02*
X330125588Y-95516723D01*
X330125588Y-95516723D02*
X330077969Y-95611961D01*
X330077969Y-95611961D02*
X329982731Y-95707200D01*
X329982731Y-95707200D02*
X329839874Y-95754819D01*
X329839874Y-95754819D02*
X329601779Y-95754819D01*
X330506541Y-94754819D02*
X331125588Y-94754819D01*
X331125588Y-94754819D02*
X330792255Y-95135771D01*
X330792255Y-95135771D02*
X330935112Y-95135771D01*
X330935112Y-95135771D02*
X331030350Y-95183390D01*
X331030350Y-95183390D02*
X331077969Y-95231009D01*
X331077969Y-95231009D02*
X331125588Y-95326247D01*
X331125588Y-95326247D02*
X331125588Y-95564342D01*
X331125588Y-95564342D02*
X331077969Y-95659580D01*
X331077969Y-95659580D02*
X331030350Y-95707200D01*
X331030350Y-95707200D02*
X330935112Y-95754819D01*
X330935112Y-95754819D02*
X330649398Y-95754819D01*
X330649398Y-95754819D02*
X330554160Y-95707200D01*
X330554160Y-95707200D02*
X330506541Y-95659580D01*
X329601779Y-137754819D02*
X329601779Y-136754819D01*
X329601779Y-136754819D02*
X329839874Y-136754819D01*
X329839874Y-136754819D02*
X329982731Y-136802438D01*
X329982731Y-136802438D02*
X330077969Y-136897676D01*
X330077969Y-136897676D02*
X330125588Y-136992914D01*
X330125588Y-136992914D02*
X330173207Y-137183390D01*
X330173207Y-137183390D02*
X330173207Y-137326247D01*
X330173207Y-137326247D02*
X330125588Y-137516723D01*
X330125588Y-137516723D02*
X330077969Y-137611961D01*
X330077969Y-137611961D02*
X329982731Y-137707200D01*
X329982731Y-137707200D02*
X329839874Y-137754819D01*
X329839874Y-137754819D02*
X329601779Y-137754819D01*
X331125588Y-137754819D02*
X330554160Y-137754819D01*
X330839874Y-137754819D02*
X330839874Y-136754819D01*
X330839874Y-136754819D02*
X330744636Y-136897676D01*
X330744636Y-136897676D02*
X330649398Y-136992914D01*
X330649398Y-136992914D02*
X330554160Y-137040533D01*
X331982731Y-137088152D02*
X331982731Y-137754819D01*
X331744636Y-136707200D02*
X331506541Y-137421485D01*
X331506541Y-137421485D02*
X332125588Y-137421485D01*
X329601779Y-123754819D02*
X329601779Y-122754819D01*
X329601779Y-122754819D02*
X329839874Y-122754819D01*
X329839874Y-122754819D02*
X329982731Y-122802438D01*
X329982731Y-122802438D02*
X330077969Y-122897676D01*
X330077969Y-122897676D02*
X330125588Y-122992914D01*
X330125588Y-122992914D02*
X330173207Y-123183390D01*
X330173207Y-123183390D02*
X330173207Y-123326247D01*
X330173207Y-123326247D02*
X330125588Y-123516723D01*
X330125588Y-123516723D02*
X330077969Y-123611961D01*
X330077969Y-123611961D02*
X329982731Y-123707200D01*
X329982731Y-123707200D02*
X329839874Y-123754819D01*
X329839874Y-123754819D02*
X329601779Y-123754819D01*
X331125588Y-123754819D02*
X330554160Y-123754819D01*
X330839874Y-123754819D02*
X330839874Y-122754819D01*
X330839874Y-122754819D02*
X330744636Y-122897676D01*
X330744636Y-122897676D02*
X330649398Y-122992914D01*
X330649398Y-122992914D02*
X330554160Y-123040533D01*
X331744636Y-122754819D02*
X331839874Y-122754819D01*
X331839874Y-122754819D02*
X331935112Y-122802438D01*
X331935112Y-122802438D02*
X331982731Y-122850057D01*
X331982731Y-122850057D02*
X332030350Y-122945295D01*
X332030350Y-122945295D02*
X332077969Y-123135771D01*
X332077969Y-123135771D02*
X332077969Y-123373866D01*
X332077969Y-123373866D02*
X332030350Y-123564342D01*
X332030350Y-123564342D02*
X331982731Y-123659580D01*
X331982731Y-123659580D02*
X331935112Y-123707200D01*
X331935112Y-123707200D02*
X331839874Y-123754819D01*
X331839874Y-123754819D02*
X331744636Y-123754819D01*
X331744636Y-123754819D02*
X331649398Y-123707200D01*
X331649398Y-123707200D02*
X331601779Y-123659580D01*
X331601779Y-123659580D02*
X331554160Y-123564342D01*
X331554160Y-123564342D02*
X331506541Y-123373866D01*
X331506541Y-123373866D02*
X331506541Y-123135771D01*
X331506541Y-123135771D02*
X331554160Y-122945295D01*
X331554160Y-122945295D02*
X331601779Y-122850057D01*
X331601779Y-122850057D02*
X331649398Y-122802438D01*
X331649398Y-122802438D02*
X331744636Y-122754819D01*
X381786819Y-102973333D02*
X382501104Y-102973333D01*
X382501104Y-102973333D02*
X382643961Y-103020952D01*
X382643961Y-103020952D02*
X382739200Y-103116190D01*
X382739200Y-103116190D02*
X382786819Y-103259047D01*
X382786819Y-103259047D02*
X382786819Y-103354285D01*
X381786819Y-102592380D02*
X381786819Y-101925714D01*
X381786819Y-101925714D02*
X382786819Y-102354285D01*
X381966819Y-179443333D02*
X382681104Y-179443333D01*
X382681104Y-179443333D02*
X382823961Y-179490952D01*
X382823961Y-179490952D02*
X382919200Y-179586190D01*
X382919200Y-179586190D02*
X382966819Y-179729047D01*
X382966819Y-179729047D02*
X382966819Y-179824285D01*
X382062057Y-179014761D02*
X382014438Y-178967142D01*
X382014438Y-178967142D02*
X381966819Y-178871904D01*
X381966819Y-178871904D02*
X381966819Y-178633809D01*
X381966819Y-178633809D02*
X382014438Y-178538571D01*
X382014438Y-178538571D02*
X382062057Y-178490952D01*
X382062057Y-178490952D02*
X382157295Y-178443333D01*
X382157295Y-178443333D02*
X382252533Y-178443333D01*
X382252533Y-178443333D02*
X382395390Y-178490952D01*
X382395390Y-178490952D02*
X382966819Y-179062380D01*
X382966819Y-179062380D02*
X382966819Y-178443333D01*
X310601779Y-151754819D02*
X310601779Y-150754819D01*
X310601779Y-150754819D02*
X310839874Y-150754819D01*
X310839874Y-150754819D02*
X310982731Y-150802438D01*
X310982731Y-150802438D02*
X311077969Y-150897676D01*
X311077969Y-150897676D02*
X311125588Y-150992914D01*
X311125588Y-150992914D02*
X311173207Y-151183390D01*
X311173207Y-151183390D02*
X311173207Y-151326247D01*
X311173207Y-151326247D02*
X311125588Y-151516723D01*
X311125588Y-151516723D02*
X311077969Y-151611961D01*
X311077969Y-151611961D02*
X310982731Y-151707200D01*
X310982731Y-151707200D02*
X310839874Y-151754819D01*
X310839874Y-151754819D02*
X310601779Y-151754819D01*
X312125588Y-151754819D02*
X311554160Y-151754819D01*
X311839874Y-151754819D02*
X311839874Y-150754819D01*
X311839874Y-150754819D02*
X311744636Y-150897676D01*
X311744636Y-150897676D02*
X311649398Y-150992914D01*
X311649398Y-150992914D02*
X311554160Y-151040533D01*
X312458922Y-150754819D02*
X313125588Y-150754819D01*
X313125588Y-150754819D02*
X312697017Y-151754819D01*
X381906819Y-173453333D02*
X382621104Y-173453333D01*
X382621104Y-173453333D02*
X382763961Y-173500952D01*
X382763961Y-173500952D02*
X382859200Y-173596190D01*
X382859200Y-173596190D02*
X382906819Y-173739047D01*
X382906819Y-173739047D02*
X382906819Y-173834285D01*
X381906819Y-173072380D02*
X381906819Y-172453333D01*
X381906819Y-172453333D02*
X382287771Y-172786666D01*
X382287771Y-172786666D02*
X382287771Y-172643809D01*
X382287771Y-172643809D02*
X382335390Y-172548571D01*
X382335390Y-172548571D02*
X382383009Y-172500952D01*
X382383009Y-172500952D02*
X382478247Y-172453333D01*
X382478247Y-172453333D02*
X382716342Y-172453333D01*
X382716342Y-172453333D02*
X382811580Y-172500952D01*
X382811580Y-172500952D02*
X382859200Y-172548571D01*
X382859200Y-172548571D02*
X382906819Y-172643809D01*
X382906819Y-172643809D02*
X382906819Y-172929523D01*
X382906819Y-172929523D02*
X382859200Y-173024761D01*
X382859200Y-173024761D02*
X382811580Y-173072380D01*
X310601779Y-179754819D02*
X310601779Y-178754819D01*
X310601779Y-178754819D02*
X310839874Y-178754819D01*
X310839874Y-178754819D02*
X310982731Y-178802438D01*
X310982731Y-178802438D02*
X311077969Y-178897676D01*
X311077969Y-178897676D02*
X311125588Y-178992914D01*
X311125588Y-178992914D02*
X311173207Y-179183390D01*
X311173207Y-179183390D02*
X311173207Y-179326247D01*
X311173207Y-179326247D02*
X311125588Y-179516723D01*
X311125588Y-179516723D02*
X311077969Y-179611961D01*
X311077969Y-179611961D02*
X310982731Y-179707200D01*
X310982731Y-179707200D02*
X310839874Y-179754819D01*
X310839874Y-179754819D02*
X310601779Y-179754819D01*
X311554160Y-178850057D02*
X311601779Y-178802438D01*
X311601779Y-178802438D02*
X311697017Y-178754819D01*
X311697017Y-178754819D02*
X311935112Y-178754819D01*
X311935112Y-178754819D02*
X312030350Y-178802438D01*
X312030350Y-178802438D02*
X312077969Y-178850057D01*
X312077969Y-178850057D02*
X312125588Y-178945295D01*
X312125588Y-178945295D02*
X312125588Y-179040533D01*
X312125588Y-179040533D02*
X312077969Y-179183390D01*
X312077969Y-179183390D02*
X311506541Y-179754819D01*
X311506541Y-179754819D02*
X312125588Y-179754819D01*
X313030350Y-178754819D02*
X312554160Y-178754819D01*
X312554160Y-178754819D02*
X312506541Y-179231009D01*
X312506541Y-179231009D02*
X312554160Y-179183390D01*
X312554160Y-179183390D02*
X312649398Y-179135771D01*
X312649398Y-179135771D02*
X312887493Y-179135771D01*
X312887493Y-179135771D02*
X312982731Y-179183390D01*
X312982731Y-179183390D02*
X313030350Y-179231009D01*
X313030350Y-179231009D02*
X313077969Y-179326247D01*
X313077969Y-179326247D02*
X313077969Y-179564342D01*
X313077969Y-179564342D02*
X313030350Y-179659580D01*
X313030350Y-179659580D02*
X312982731Y-179707200D01*
X312982731Y-179707200D02*
X312887493Y-179754819D01*
X312887493Y-179754819D02*
X312649398Y-179754819D01*
X312649398Y-179754819D02*
X312554160Y-179707200D01*
X312554160Y-179707200D02*
X312506541Y-179659580D01*
X348601779Y-95754819D02*
X348601779Y-94754819D01*
X348601779Y-94754819D02*
X348839874Y-94754819D01*
X348839874Y-94754819D02*
X348982731Y-94802438D01*
X348982731Y-94802438D02*
X349077969Y-94897676D01*
X349077969Y-94897676D02*
X349125588Y-94992914D01*
X349125588Y-94992914D02*
X349173207Y-95183390D01*
X349173207Y-95183390D02*
X349173207Y-95326247D01*
X349173207Y-95326247D02*
X349125588Y-95516723D01*
X349125588Y-95516723D02*
X349077969Y-95611961D01*
X349077969Y-95611961D02*
X348982731Y-95707200D01*
X348982731Y-95707200D02*
X348839874Y-95754819D01*
X348839874Y-95754819D02*
X348601779Y-95754819D01*
X349554160Y-94850057D02*
X349601779Y-94802438D01*
X349601779Y-94802438D02*
X349697017Y-94754819D01*
X349697017Y-94754819D02*
X349935112Y-94754819D01*
X349935112Y-94754819D02*
X350030350Y-94802438D01*
X350030350Y-94802438D02*
X350077969Y-94850057D01*
X350077969Y-94850057D02*
X350125588Y-94945295D01*
X350125588Y-94945295D02*
X350125588Y-95040533D01*
X350125588Y-95040533D02*
X350077969Y-95183390D01*
X350077969Y-95183390D02*
X349506541Y-95754819D01*
X349506541Y-95754819D02*
X350125588Y-95754819D01*
X367601779Y-109754819D02*
X367601779Y-108754819D01*
X367601779Y-108754819D02*
X367839874Y-108754819D01*
X367839874Y-108754819D02*
X367982731Y-108802438D01*
X367982731Y-108802438D02*
X368077969Y-108897676D01*
X368077969Y-108897676D02*
X368125588Y-108992914D01*
X368125588Y-108992914D02*
X368173207Y-109183390D01*
X368173207Y-109183390D02*
X368173207Y-109326247D01*
X368173207Y-109326247D02*
X368125588Y-109516723D01*
X368125588Y-109516723D02*
X368077969Y-109611961D01*
X368077969Y-109611961D02*
X367982731Y-109707200D01*
X367982731Y-109707200D02*
X367839874Y-109754819D01*
X367839874Y-109754819D02*
X367601779Y-109754819D01*
X368744636Y-109183390D02*
X368649398Y-109135771D01*
X368649398Y-109135771D02*
X368601779Y-109088152D01*
X368601779Y-109088152D02*
X368554160Y-108992914D01*
X368554160Y-108992914D02*
X368554160Y-108945295D01*
X368554160Y-108945295D02*
X368601779Y-108850057D01*
X368601779Y-108850057D02*
X368649398Y-108802438D01*
X368649398Y-108802438D02*
X368744636Y-108754819D01*
X368744636Y-108754819D02*
X368935112Y-108754819D01*
X368935112Y-108754819D02*
X369030350Y-108802438D01*
X369030350Y-108802438D02*
X369077969Y-108850057D01*
X369077969Y-108850057D02*
X369125588Y-108945295D01*
X369125588Y-108945295D02*
X369125588Y-108992914D01*
X369125588Y-108992914D02*
X369077969Y-109088152D01*
X369077969Y-109088152D02*
X369030350Y-109135771D01*
X369030350Y-109135771D02*
X368935112Y-109183390D01*
X368935112Y-109183390D02*
X368744636Y-109183390D01*
X368744636Y-109183390D02*
X368649398Y-109231009D01*
X368649398Y-109231009D02*
X368601779Y-109278628D01*
X368601779Y-109278628D02*
X368554160Y-109373866D01*
X368554160Y-109373866D02*
X368554160Y-109564342D01*
X368554160Y-109564342D02*
X368601779Y-109659580D01*
X368601779Y-109659580D02*
X368649398Y-109707200D01*
X368649398Y-109707200D02*
X368744636Y-109754819D01*
X368744636Y-109754819D02*
X368935112Y-109754819D01*
X368935112Y-109754819D02*
X369030350Y-109707200D01*
X369030350Y-109707200D02*
X369077969Y-109659580D01*
X369077969Y-109659580D02*
X369125588Y-109564342D01*
X369125588Y-109564342D02*
X369125588Y-109373866D01*
X369125588Y-109373866D02*
X369077969Y-109278628D01*
X369077969Y-109278628D02*
X369030350Y-109231009D01*
X369030350Y-109231009D02*
X368935112Y-109183390D01*
X329601779Y-151754819D02*
X329601779Y-150754819D01*
X329601779Y-150754819D02*
X329839874Y-150754819D01*
X329839874Y-150754819D02*
X329982731Y-150802438D01*
X329982731Y-150802438D02*
X330077969Y-150897676D01*
X330077969Y-150897676D02*
X330125588Y-150992914D01*
X330125588Y-150992914D02*
X330173207Y-151183390D01*
X330173207Y-151183390D02*
X330173207Y-151326247D01*
X330173207Y-151326247D02*
X330125588Y-151516723D01*
X330125588Y-151516723D02*
X330077969Y-151611961D01*
X330077969Y-151611961D02*
X329982731Y-151707200D01*
X329982731Y-151707200D02*
X329839874Y-151754819D01*
X329839874Y-151754819D02*
X329601779Y-151754819D01*
X331125588Y-151754819D02*
X330554160Y-151754819D01*
X330839874Y-151754819D02*
X330839874Y-150754819D01*
X330839874Y-150754819D02*
X330744636Y-150897676D01*
X330744636Y-150897676D02*
X330649398Y-150992914D01*
X330649398Y-150992914D02*
X330554160Y-151040533D01*
X331697017Y-151183390D02*
X331601779Y-151135771D01*
X331601779Y-151135771D02*
X331554160Y-151088152D01*
X331554160Y-151088152D02*
X331506541Y-150992914D01*
X331506541Y-150992914D02*
X331506541Y-150945295D01*
X331506541Y-150945295D02*
X331554160Y-150850057D01*
X331554160Y-150850057D02*
X331601779Y-150802438D01*
X331601779Y-150802438D02*
X331697017Y-150754819D01*
X331697017Y-150754819D02*
X331887493Y-150754819D01*
X331887493Y-150754819D02*
X331982731Y-150802438D01*
X331982731Y-150802438D02*
X332030350Y-150850057D01*
X332030350Y-150850057D02*
X332077969Y-150945295D01*
X332077969Y-150945295D02*
X332077969Y-150992914D01*
X332077969Y-150992914D02*
X332030350Y-151088152D01*
X332030350Y-151088152D02*
X331982731Y-151135771D01*
X331982731Y-151135771D02*
X331887493Y-151183390D01*
X331887493Y-151183390D02*
X331697017Y-151183390D01*
X331697017Y-151183390D02*
X331601779Y-151231009D01*
X331601779Y-151231009D02*
X331554160Y-151278628D01*
X331554160Y-151278628D02*
X331506541Y-151373866D01*
X331506541Y-151373866D02*
X331506541Y-151564342D01*
X331506541Y-151564342D02*
X331554160Y-151659580D01*
X331554160Y-151659580D02*
X331601779Y-151707200D01*
X331601779Y-151707200D02*
X331697017Y-151754819D01*
X331697017Y-151754819D02*
X331887493Y-151754819D01*
X331887493Y-151754819D02*
X331982731Y-151707200D01*
X331982731Y-151707200D02*
X332030350Y-151659580D01*
X332030350Y-151659580D02*
X332077969Y-151564342D01*
X332077969Y-151564342D02*
X332077969Y-151373866D01*
X332077969Y-151373866D02*
X332030350Y-151278628D01*
X332030350Y-151278628D02*
X331982731Y-151231009D01*
X331982731Y-151231009D02*
X331887493Y-151183390D01*
X348601779Y-179754819D02*
X348601779Y-178754819D01*
X348601779Y-178754819D02*
X348839874Y-178754819D01*
X348839874Y-178754819D02*
X348982731Y-178802438D01*
X348982731Y-178802438D02*
X349077969Y-178897676D01*
X349077969Y-178897676D02*
X349125588Y-178992914D01*
X349125588Y-178992914D02*
X349173207Y-179183390D01*
X349173207Y-179183390D02*
X349173207Y-179326247D01*
X349173207Y-179326247D02*
X349125588Y-179516723D01*
X349125588Y-179516723D02*
X349077969Y-179611961D01*
X349077969Y-179611961D02*
X348982731Y-179707200D01*
X348982731Y-179707200D02*
X348839874Y-179754819D01*
X348839874Y-179754819D02*
X348601779Y-179754819D01*
X349554160Y-178850057D02*
X349601779Y-178802438D01*
X349601779Y-178802438D02*
X349697017Y-178754819D01*
X349697017Y-178754819D02*
X349935112Y-178754819D01*
X349935112Y-178754819D02*
X350030350Y-178802438D01*
X350030350Y-178802438D02*
X350077969Y-178850057D01*
X350077969Y-178850057D02*
X350125588Y-178945295D01*
X350125588Y-178945295D02*
X350125588Y-179040533D01*
X350125588Y-179040533D02*
X350077969Y-179183390D01*
X350077969Y-179183390D02*
X349506541Y-179754819D01*
X349506541Y-179754819D02*
X350125588Y-179754819D01*
X350458922Y-178754819D02*
X351125588Y-178754819D01*
X351125588Y-178754819D02*
X350697017Y-179754819D01*
X348601779Y-151754819D02*
X348601779Y-150754819D01*
X348601779Y-150754819D02*
X348839874Y-150754819D01*
X348839874Y-150754819D02*
X348982731Y-150802438D01*
X348982731Y-150802438D02*
X349077969Y-150897676D01*
X349077969Y-150897676D02*
X349125588Y-150992914D01*
X349125588Y-150992914D02*
X349173207Y-151183390D01*
X349173207Y-151183390D02*
X349173207Y-151326247D01*
X349173207Y-151326247D02*
X349125588Y-151516723D01*
X349125588Y-151516723D02*
X349077969Y-151611961D01*
X349077969Y-151611961D02*
X348982731Y-151707200D01*
X348982731Y-151707200D02*
X348839874Y-151754819D01*
X348839874Y-151754819D02*
X348601779Y-151754819D01*
X350125588Y-151754819D02*
X349554160Y-151754819D01*
X349839874Y-151754819D02*
X349839874Y-150754819D01*
X349839874Y-150754819D02*
X349744636Y-150897676D01*
X349744636Y-150897676D02*
X349649398Y-150992914D01*
X349649398Y-150992914D02*
X349554160Y-151040533D01*
X350601779Y-151754819D02*
X350792255Y-151754819D01*
X350792255Y-151754819D02*
X350887493Y-151707200D01*
X350887493Y-151707200D02*
X350935112Y-151659580D01*
X350935112Y-151659580D02*
X351030350Y-151516723D01*
X351030350Y-151516723D02*
X351077969Y-151326247D01*
X351077969Y-151326247D02*
X351077969Y-150945295D01*
X351077969Y-150945295D02*
X351030350Y-150850057D01*
X351030350Y-150850057D02*
X350982731Y-150802438D01*
X350982731Y-150802438D02*
X350887493Y-150754819D01*
X350887493Y-150754819D02*
X350697017Y-150754819D01*
X350697017Y-150754819D02*
X350601779Y-150802438D01*
X350601779Y-150802438D02*
X350554160Y-150850057D01*
X350554160Y-150850057D02*
X350506541Y-150945295D01*
X350506541Y-150945295D02*
X350506541Y-151183390D01*
X350506541Y-151183390D02*
X350554160Y-151278628D01*
X350554160Y-151278628D02*
X350601779Y-151326247D01*
X350601779Y-151326247D02*
X350697017Y-151373866D01*
X350697017Y-151373866D02*
X350887493Y-151373866D01*
X350887493Y-151373866D02*
X350982731Y-151326247D01*
X350982731Y-151326247D02*
X351030350Y-151278628D01*
X351030350Y-151278628D02*
X351077969Y-151183390D01*
X367601779Y-95754819D02*
X367601779Y-94754819D01*
X367601779Y-94754819D02*
X367839874Y-94754819D01*
X367839874Y-94754819D02*
X367982731Y-94802438D01*
X367982731Y-94802438D02*
X368077969Y-94897676D01*
X368077969Y-94897676D02*
X368125588Y-94992914D01*
X368125588Y-94992914D02*
X368173207Y-95183390D01*
X368173207Y-95183390D02*
X368173207Y-95326247D01*
X368173207Y-95326247D02*
X368125588Y-95516723D01*
X368125588Y-95516723D02*
X368077969Y-95611961D01*
X368077969Y-95611961D02*
X367982731Y-95707200D01*
X367982731Y-95707200D02*
X367839874Y-95754819D01*
X367839874Y-95754819D02*
X367601779Y-95754819D01*
X369125588Y-95754819D02*
X368554160Y-95754819D01*
X368839874Y-95754819D02*
X368839874Y-94754819D01*
X368839874Y-94754819D02*
X368744636Y-94897676D01*
X368744636Y-94897676D02*
X368649398Y-94992914D01*
X368649398Y-94992914D02*
X368554160Y-95040533D01*
X310601779Y-123754819D02*
X310601779Y-122754819D01*
X310601779Y-122754819D02*
X310839874Y-122754819D01*
X310839874Y-122754819D02*
X310982731Y-122802438D01*
X310982731Y-122802438D02*
X311077969Y-122897676D01*
X311077969Y-122897676D02*
X311125588Y-122992914D01*
X311125588Y-122992914D02*
X311173207Y-123183390D01*
X311173207Y-123183390D02*
X311173207Y-123326247D01*
X311173207Y-123326247D02*
X311125588Y-123516723D01*
X311125588Y-123516723D02*
X311077969Y-123611961D01*
X311077969Y-123611961D02*
X310982731Y-123707200D01*
X310982731Y-123707200D02*
X310839874Y-123754819D01*
X310839874Y-123754819D02*
X310601779Y-123754819D01*
X311649398Y-123754819D02*
X311839874Y-123754819D01*
X311839874Y-123754819D02*
X311935112Y-123707200D01*
X311935112Y-123707200D02*
X311982731Y-123659580D01*
X311982731Y-123659580D02*
X312077969Y-123516723D01*
X312077969Y-123516723D02*
X312125588Y-123326247D01*
X312125588Y-123326247D02*
X312125588Y-122945295D01*
X312125588Y-122945295D02*
X312077969Y-122850057D01*
X312077969Y-122850057D02*
X312030350Y-122802438D01*
X312030350Y-122802438D02*
X311935112Y-122754819D01*
X311935112Y-122754819D02*
X311744636Y-122754819D01*
X311744636Y-122754819D02*
X311649398Y-122802438D01*
X311649398Y-122802438D02*
X311601779Y-122850057D01*
X311601779Y-122850057D02*
X311554160Y-122945295D01*
X311554160Y-122945295D02*
X311554160Y-123183390D01*
X311554160Y-123183390D02*
X311601779Y-123278628D01*
X311601779Y-123278628D02*
X311649398Y-123326247D01*
X311649398Y-123326247D02*
X311744636Y-123373866D01*
X311744636Y-123373866D02*
X311935112Y-123373866D01*
X311935112Y-123373866D02*
X312030350Y-123326247D01*
X312030350Y-123326247D02*
X312077969Y-123278628D01*
X312077969Y-123278628D02*
X312125588Y-123183390D01*
X367601779Y-179754819D02*
X367601779Y-178754819D01*
X367601779Y-178754819D02*
X367839874Y-178754819D01*
X367839874Y-178754819D02*
X367982731Y-178802438D01*
X367982731Y-178802438D02*
X368077969Y-178897676D01*
X368077969Y-178897676D02*
X368125588Y-178992914D01*
X368125588Y-178992914D02*
X368173207Y-179183390D01*
X368173207Y-179183390D02*
X368173207Y-179326247D01*
X368173207Y-179326247D02*
X368125588Y-179516723D01*
X368125588Y-179516723D02*
X368077969Y-179611961D01*
X368077969Y-179611961D02*
X367982731Y-179707200D01*
X367982731Y-179707200D02*
X367839874Y-179754819D01*
X367839874Y-179754819D02*
X367601779Y-179754819D01*
X368554160Y-178850057D02*
X368601779Y-178802438D01*
X368601779Y-178802438D02*
X368697017Y-178754819D01*
X368697017Y-178754819D02*
X368935112Y-178754819D01*
X368935112Y-178754819D02*
X369030350Y-178802438D01*
X369030350Y-178802438D02*
X369077969Y-178850057D01*
X369077969Y-178850057D02*
X369125588Y-178945295D01*
X369125588Y-178945295D02*
X369125588Y-179040533D01*
X369125588Y-179040533D02*
X369077969Y-179183390D01*
X369077969Y-179183390D02*
X368506541Y-179754819D01*
X368506541Y-179754819D02*
X369125588Y-179754819D01*
X369697017Y-179183390D02*
X369601779Y-179135771D01*
X369601779Y-179135771D02*
X369554160Y-179088152D01*
X369554160Y-179088152D02*
X369506541Y-178992914D01*
X369506541Y-178992914D02*
X369506541Y-178945295D01*
X369506541Y-178945295D02*
X369554160Y-178850057D01*
X369554160Y-178850057D02*
X369601779Y-178802438D01*
X369601779Y-178802438D02*
X369697017Y-178754819D01*
X369697017Y-178754819D02*
X369887493Y-178754819D01*
X369887493Y-178754819D02*
X369982731Y-178802438D01*
X369982731Y-178802438D02*
X370030350Y-178850057D01*
X370030350Y-178850057D02*
X370077969Y-178945295D01*
X370077969Y-178945295D02*
X370077969Y-178992914D01*
X370077969Y-178992914D02*
X370030350Y-179088152D01*
X370030350Y-179088152D02*
X369982731Y-179135771D01*
X369982731Y-179135771D02*
X369887493Y-179183390D01*
X369887493Y-179183390D02*
X369697017Y-179183390D01*
X369697017Y-179183390D02*
X369601779Y-179231009D01*
X369601779Y-179231009D02*
X369554160Y-179278628D01*
X369554160Y-179278628D02*
X369506541Y-179373866D01*
X369506541Y-179373866D02*
X369506541Y-179564342D01*
X369506541Y-179564342D02*
X369554160Y-179659580D01*
X369554160Y-179659580D02*
X369601779Y-179707200D01*
X369601779Y-179707200D02*
X369697017Y-179754819D01*
X369697017Y-179754819D02*
X369887493Y-179754819D01*
X369887493Y-179754819D02*
X369982731Y-179707200D01*
X369982731Y-179707200D02*
X370030350Y-179659580D01*
X370030350Y-179659580D02*
X370077969Y-179564342D01*
X370077969Y-179564342D02*
X370077969Y-179373866D01*
X370077969Y-179373866D02*
X370030350Y-179278628D01*
X370030350Y-179278628D02*
X369982731Y-179231009D01*
X369982731Y-179231009D02*
X369887493Y-179183390D01*
X348601779Y-109754819D02*
X348601779Y-108754819D01*
X348601779Y-108754819D02*
X348839874Y-108754819D01*
X348839874Y-108754819D02*
X348982731Y-108802438D01*
X348982731Y-108802438D02*
X349077969Y-108897676D01*
X349077969Y-108897676D02*
X349125588Y-108992914D01*
X349125588Y-108992914D02*
X349173207Y-109183390D01*
X349173207Y-109183390D02*
X349173207Y-109326247D01*
X349173207Y-109326247D02*
X349125588Y-109516723D01*
X349125588Y-109516723D02*
X349077969Y-109611961D01*
X349077969Y-109611961D02*
X348982731Y-109707200D01*
X348982731Y-109707200D02*
X348839874Y-109754819D01*
X348839874Y-109754819D02*
X348601779Y-109754819D01*
X349506541Y-108754819D02*
X350173207Y-108754819D01*
X350173207Y-108754819D02*
X349744636Y-109754819D01*
X329601779Y-179754819D02*
X329601779Y-178754819D01*
X329601779Y-178754819D02*
X329839874Y-178754819D01*
X329839874Y-178754819D02*
X329982731Y-178802438D01*
X329982731Y-178802438D02*
X330077969Y-178897676D01*
X330077969Y-178897676D02*
X330125588Y-178992914D01*
X330125588Y-178992914D02*
X330173207Y-179183390D01*
X330173207Y-179183390D02*
X330173207Y-179326247D01*
X330173207Y-179326247D02*
X330125588Y-179516723D01*
X330125588Y-179516723D02*
X330077969Y-179611961D01*
X330077969Y-179611961D02*
X329982731Y-179707200D01*
X329982731Y-179707200D02*
X329839874Y-179754819D01*
X329839874Y-179754819D02*
X329601779Y-179754819D01*
X330554160Y-178850057D02*
X330601779Y-178802438D01*
X330601779Y-178802438D02*
X330697017Y-178754819D01*
X330697017Y-178754819D02*
X330935112Y-178754819D01*
X330935112Y-178754819D02*
X331030350Y-178802438D01*
X331030350Y-178802438D02*
X331077969Y-178850057D01*
X331077969Y-178850057D02*
X331125588Y-178945295D01*
X331125588Y-178945295D02*
X331125588Y-179040533D01*
X331125588Y-179040533D02*
X331077969Y-179183390D01*
X331077969Y-179183390D02*
X330506541Y-179754819D01*
X330506541Y-179754819D02*
X331125588Y-179754819D01*
X331982731Y-178754819D02*
X331792255Y-178754819D01*
X331792255Y-178754819D02*
X331697017Y-178802438D01*
X331697017Y-178802438D02*
X331649398Y-178850057D01*
X331649398Y-178850057D02*
X331554160Y-178992914D01*
X331554160Y-178992914D02*
X331506541Y-179183390D01*
X331506541Y-179183390D02*
X331506541Y-179564342D01*
X331506541Y-179564342D02*
X331554160Y-179659580D01*
X331554160Y-179659580D02*
X331601779Y-179707200D01*
X331601779Y-179707200D02*
X331697017Y-179754819D01*
X331697017Y-179754819D02*
X331887493Y-179754819D01*
X331887493Y-179754819D02*
X331982731Y-179707200D01*
X331982731Y-179707200D02*
X332030350Y-179659580D01*
X332030350Y-179659580D02*
X332077969Y-179564342D01*
X332077969Y-179564342D02*
X332077969Y-179326247D01*
X332077969Y-179326247D02*
X332030350Y-179231009D01*
X332030350Y-179231009D02*
X331982731Y-179183390D01*
X331982731Y-179183390D02*
X331887493Y-179135771D01*
X331887493Y-179135771D02*
X331697017Y-179135771D01*
X331697017Y-179135771D02*
X331601779Y-179183390D01*
X331601779Y-179183390D02*
X331554160Y-179231009D01*
X331554160Y-179231009D02*
X331506541Y-179326247D01*
X329601779Y-165754819D02*
X329601779Y-164754819D01*
X329601779Y-164754819D02*
X329839874Y-164754819D01*
X329839874Y-164754819D02*
X329982731Y-164802438D01*
X329982731Y-164802438D02*
X330077969Y-164897676D01*
X330077969Y-164897676D02*
X330125588Y-164992914D01*
X330125588Y-164992914D02*
X330173207Y-165183390D01*
X330173207Y-165183390D02*
X330173207Y-165326247D01*
X330173207Y-165326247D02*
X330125588Y-165516723D01*
X330125588Y-165516723D02*
X330077969Y-165611961D01*
X330077969Y-165611961D02*
X329982731Y-165707200D01*
X329982731Y-165707200D02*
X329839874Y-165754819D01*
X329839874Y-165754819D02*
X329601779Y-165754819D01*
X330554160Y-164850057D02*
X330601779Y-164802438D01*
X330601779Y-164802438D02*
X330697017Y-164754819D01*
X330697017Y-164754819D02*
X330935112Y-164754819D01*
X330935112Y-164754819D02*
X331030350Y-164802438D01*
X331030350Y-164802438D02*
X331077969Y-164850057D01*
X331077969Y-164850057D02*
X331125588Y-164945295D01*
X331125588Y-164945295D02*
X331125588Y-165040533D01*
X331125588Y-165040533D02*
X331077969Y-165183390D01*
X331077969Y-165183390D02*
X330506541Y-165754819D01*
X330506541Y-165754819D02*
X331125588Y-165754819D01*
X331506541Y-164850057D02*
X331554160Y-164802438D01*
X331554160Y-164802438D02*
X331649398Y-164754819D01*
X331649398Y-164754819D02*
X331887493Y-164754819D01*
X331887493Y-164754819D02*
X331982731Y-164802438D01*
X331982731Y-164802438D02*
X332030350Y-164850057D01*
X332030350Y-164850057D02*
X332077969Y-164945295D01*
X332077969Y-164945295D02*
X332077969Y-165040533D01*
X332077969Y-165040533D02*
X332030350Y-165183390D01*
X332030350Y-165183390D02*
X331458922Y-165754819D01*
X331458922Y-165754819D02*
X332077969Y-165754819D01*
X310601779Y-95754819D02*
X310601779Y-94754819D01*
X310601779Y-94754819D02*
X310839874Y-94754819D01*
X310839874Y-94754819D02*
X310982731Y-94802438D01*
X310982731Y-94802438D02*
X311077969Y-94897676D01*
X311077969Y-94897676D02*
X311125588Y-94992914D01*
X311125588Y-94992914D02*
X311173207Y-95183390D01*
X311173207Y-95183390D02*
X311173207Y-95326247D01*
X311173207Y-95326247D02*
X311125588Y-95516723D01*
X311125588Y-95516723D02*
X311077969Y-95611961D01*
X311077969Y-95611961D02*
X310982731Y-95707200D01*
X310982731Y-95707200D02*
X310839874Y-95754819D01*
X310839874Y-95754819D02*
X310601779Y-95754819D01*
X312030350Y-95088152D02*
X312030350Y-95754819D01*
X311792255Y-94707200D02*
X311554160Y-95421485D01*
X311554160Y-95421485D02*
X312173207Y-95421485D01*
X310601779Y-165754819D02*
X310601779Y-164754819D01*
X310601779Y-164754819D02*
X310839874Y-164754819D01*
X310839874Y-164754819D02*
X310982731Y-164802438D01*
X310982731Y-164802438D02*
X311077969Y-164897676D01*
X311077969Y-164897676D02*
X311125588Y-164992914D01*
X311125588Y-164992914D02*
X311173207Y-165183390D01*
X311173207Y-165183390D02*
X311173207Y-165326247D01*
X311173207Y-165326247D02*
X311125588Y-165516723D01*
X311125588Y-165516723D02*
X311077969Y-165611961D01*
X311077969Y-165611961D02*
X310982731Y-165707200D01*
X310982731Y-165707200D02*
X310839874Y-165754819D01*
X310839874Y-165754819D02*
X310601779Y-165754819D01*
X311554160Y-164850057D02*
X311601779Y-164802438D01*
X311601779Y-164802438D02*
X311697017Y-164754819D01*
X311697017Y-164754819D02*
X311935112Y-164754819D01*
X311935112Y-164754819D02*
X312030350Y-164802438D01*
X312030350Y-164802438D02*
X312077969Y-164850057D01*
X312077969Y-164850057D02*
X312125588Y-164945295D01*
X312125588Y-164945295D02*
X312125588Y-165040533D01*
X312125588Y-165040533D02*
X312077969Y-165183390D01*
X312077969Y-165183390D02*
X311506541Y-165754819D01*
X311506541Y-165754819D02*
X312125588Y-165754819D01*
X313077969Y-165754819D02*
X312506541Y-165754819D01*
X312792255Y-165754819D02*
X312792255Y-164754819D01*
X312792255Y-164754819D02*
X312697017Y-164897676D01*
X312697017Y-164897676D02*
X312601779Y-164992914D01*
X312601779Y-164992914D02*
X312506541Y-165040533D01*
X310601779Y-137754819D02*
X310601779Y-136754819D01*
X310601779Y-136754819D02*
X310839874Y-136754819D01*
X310839874Y-136754819D02*
X310982731Y-136802438D01*
X310982731Y-136802438D02*
X311077969Y-136897676D01*
X311077969Y-136897676D02*
X311125588Y-136992914D01*
X311125588Y-136992914D02*
X311173207Y-137183390D01*
X311173207Y-137183390D02*
X311173207Y-137326247D01*
X311173207Y-137326247D02*
X311125588Y-137516723D01*
X311125588Y-137516723D02*
X311077969Y-137611961D01*
X311077969Y-137611961D02*
X310982731Y-137707200D01*
X310982731Y-137707200D02*
X310839874Y-137754819D01*
X310839874Y-137754819D02*
X310601779Y-137754819D01*
X312125588Y-137754819D02*
X311554160Y-137754819D01*
X311839874Y-137754819D02*
X311839874Y-136754819D01*
X311839874Y-136754819D02*
X311744636Y-136897676D01*
X311744636Y-136897676D02*
X311649398Y-136992914D01*
X311649398Y-136992914D02*
X311554160Y-137040533D01*
X312458922Y-136754819D02*
X313077969Y-136754819D01*
X313077969Y-136754819D02*
X312744636Y-137135771D01*
X312744636Y-137135771D02*
X312887493Y-137135771D01*
X312887493Y-137135771D02*
X312982731Y-137183390D01*
X312982731Y-137183390D02*
X313030350Y-137231009D01*
X313030350Y-137231009D02*
X313077969Y-137326247D01*
X313077969Y-137326247D02*
X313077969Y-137564342D01*
X313077969Y-137564342D02*
X313030350Y-137659580D01*
X313030350Y-137659580D02*
X312982731Y-137707200D01*
X312982731Y-137707200D02*
X312887493Y-137754819D01*
X312887493Y-137754819D02*
X312601779Y-137754819D01*
X312601779Y-137754819D02*
X312506541Y-137707200D01*
X312506541Y-137707200D02*
X312458922Y-137659580D01*
X367601779Y-151754819D02*
X367601779Y-150754819D01*
X367601779Y-150754819D02*
X367839874Y-150754819D01*
X367839874Y-150754819D02*
X367982731Y-150802438D01*
X367982731Y-150802438D02*
X368077969Y-150897676D01*
X368077969Y-150897676D02*
X368125588Y-150992914D01*
X368125588Y-150992914D02*
X368173207Y-151183390D01*
X368173207Y-151183390D02*
X368173207Y-151326247D01*
X368173207Y-151326247D02*
X368125588Y-151516723D01*
X368125588Y-151516723D02*
X368077969Y-151611961D01*
X368077969Y-151611961D02*
X367982731Y-151707200D01*
X367982731Y-151707200D02*
X367839874Y-151754819D01*
X367839874Y-151754819D02*
X367601779Y-151754819D01*
X368554160Y-150850057D02*
X368601779Y-150802438D01*
X368601779Y-150802438D02*
X368697017Y-150754819D01*
X368697017Y-150754819D02*
X368935112Y-150754819D01*
X368935112Y-150754819D02*
X369030350Y-150802438D01*
X369030350Y-150802438D02*
X369077969Y-150850057D01*
X369077969Y-150850057D02*
X369125588Y-150945295D01*
X369125588Y-150945295D02*
X369125588Y-151040533D01*
X369125588Y-151040533D02*
X369077969Y-151183390D01*
X369077969Y-151183390D02*
X368506541Y-151754819D01*
X368506541Y-151754819D02*
X369125588Y-151754819D01*
X369744636Y-150754819D02*
X369839874Y-150754819D01*
X369839874Y-150754819D02*
X369935112Y-150802438D01*
X369935112Y-150802438D02*
X369982731Y-150850057D01*
X369982731Y-150850057D02*
X370030350Y-150945295D01*
X370030350Y-150945295D02*
X370077969Y-151135771D01*
X370077969Y-151135771D02*
X370077969Y-151373866D01*
X370077969Y-151373866D02*
X370030350Y-151564342D01*
X370030350Y-151564342D02*
X369982731Y-151659580D01*
X369982731Y-151659580D02*
X369935112Y-151707200D01*
X369935112Y-151707200D02*
X369839874Y-151754819D01*
X369839874Y-151754819D02*
X369744636Y-151754819D01*
X369744636Y-151754819D02*
X369649398Y-151707200D01*
X369649398Y-151707200D02*
X369601779Y-151659580D01*
X369601779Y-151659580D02*
X369554160Y-151564342D01*
X369554160Y-151564342D02*
X369506541Y-151373866D01*
X369506541Y-151373866D02*
X369506541Y-151135771D01*
X369506541Y-151135771D02*
X369554160Y-150945295D01*
X369554160Y-150945295D02*
X369601779Y-150850057D01*
X369601779Y-150850057D02*
X369649398Y-150802438D01*
X369649398Y-150802438D02*
X369744636Y-150754819D01*
X348601779Y-123754819D02*
X348601779Y-122754819D01*
X348601779Y-122754819D02*
X348839874Y-122754819D01*
X348839874Y-122754819D02*
X348982731Y-122802438D01*
X348982731Y-122802438D02*
X349077969Y-122897676D01*
X349077969Y-122897676D02*
X349125588Y-122992914D01*
X349125588Y-122992914D02*
X349173207Y-123183390D01*
X349173207Y-123183390D02*
X349173207Y-123326247D01*
X349173207Y-123326247D02*
X349125588Y-123516723D01*
X349125588Y-123516723D02*
X349077969Y-123611961D01*
X349077969Y-123611961D02*
X348982731Y-123707200D01*
X348982731Y-123707200D02*
X348839874Y-123754819D01*
X348839874Y-123754819D02*
X348601779Y-123754819D01*
X350125588Y-123754819D02*
X349554160Y-123754819D01*
X349839874Y-123754819D02*
X349839874Y-122754819D01*
X349839874Y-122754819D02*
X349744636Y-122897676D01*
X349744636Y-122897676D02*
X349649398Y-122992914D01*
X349649398Y-122992914D02*
X349554160Y-123040533D01*
X351077969Y-123754819D02*
X350506541Y-123754819D01*
X350792255Y-123754819D02*
X350792255Y-122754819D01*
X350792255Y-122754819D02*
X350697017Y-122897676D01*
X350697017Y-122897676D02*
X350601779Y-122992914D01*
X350601779Y-122992914D02*
X350506541Y-123040533D01*
X367601779Y-165754819D02*
X367601779Y-164754819D01*
X367601779Y-164754819D02*
X367839874Y-164754819D01*
X367839874Y-164754819D02*
X367982731Y-164802438D01*
X367982731Y-164802438D02*
X368077969Y-164897676D01*
X368077969Y-164897676D02*
X368125588Y-164992914D01*
X368125588Y-164992914D02*
X368173207Y-165183390D01*
X368173207Y-165183390D02*
X368173207Y-165326247D01*
X368173207Y-165326247D02*
X368125588Y-165516723D01*
X368125588Y-165516723D02*
X368077969Y-165611961D01*
X368077969Y-165611961D02*
X367982731Y-165707200D01*
X367982731Y-165707200D02*
X367839874Y-165754819D01*
X367839874Y-165754819D02*
X367601779Y-165754819D01*
X368554160Y-164850057D02*
X368601779Y-164802438D01*
X368601779Y-164802438D02*
X368697017Y-164754819D01*
X368697017Y-164754819D02*
X368935112Y-164754819D01*
X368935112Y-164754819D02*
X369030350Y-164802438D01*
X369030350Y-164802438D02*
X369077969Y-164850057D01*
X369077969Y-164850057D02*
X369125588Y-164945295D01*
X369125588Y-164945295D02*
X369125588Y-165040533D01*
X369125588Y-165040533D02*
X369077969Y-165183390D01*
X369077969Y-165183390D02*
X368506541Y-165754819D01*
X368506541Y-165754819D02*
X369125588Y-165754819D01*
X369982731Y-165088152D02*
X369982731Y-165754819D01*
X369744636Y-164707200D02*
X369506541Y-165421485D01*
X369506541Y-165421485D02*
X370125588Y-165421485D01*
D11*
%TO.C,R14*%
X299822936Y-184290000D02*
X304177064Y-184290000D01*
X299822936Y-187710000D02*
X304177064Y-187710000D01*
%TO.C,R13*%
X299822936Y-179290000D02*
X304177064Y-179290000D01*
X299822936Y-182710000D02*
X304177064Y-182710000D01*
%TO.C,R12*%
X299322936Y-101680000D02*
X303677064Y-101680000D01*
X299322936Y-105100000D02*
X303677064Y-105100000D01*
%TO.C,R11*%
X299322936Y-96790000D02*
X303677064Y-96790000D01*
X299322936Y-100210000D02*
X303677064Y-100210000D01*
%TO.C,R10*%
X298785436Y-115180000D02*
X303139564Y-115180000D01*
X298785436Y-118600000D02*
X303139564Y-118600000D01*
%TO.C,R9*%
X298785436Y-110290000D02*
X303139564Y-110290000D01*
X298785436Y-113710000D02*
X303139564Y-113710000D01*
%TO.C,R8*%
X298860436Y-128680000D02*
X303214564Y-128680000D01*
X298860436Y-132100000D02*
X303214564Y-132100000D01*
%TO.C,R7*%
X298860436Y-123790000D02*
X303214564Y-123790000D01*
X298860436Y-127210000D02*
X303214564Y-127210000D01*
%TO.C,R6*%
X299322936Y-138290000D02*
X303677064Y-138290000D01*
X299322936Y-141710000D02*
X303677064Y-141710000D01*
%TO.C,R5*%
X299322936Y-143290000D02*
X303677064Y-143290000D01*
X299322936Y-146710000D02*
X303677064Y-146710000D01*
%TO.C,R4*%
X299360436Y-157180000D02*
X303714564Y-157180000D01*
X299360436Y-160600000D02*
X303714564Y-160600000D01*
%TO.C,R3*%
X299360436Y-152290000D02*
X303714564Y-152290000D01*
X299360436Y-155710000D02*
X303714564Y-155710000D01*
%TO.C,R2*%
X299322936Y-171180000D02*
X303677064Y-171180000D01*
X299322936Y-174600000D02*
X303677064Y-174600000D01*
%TO.C,R1*%
X299322936Y-166290000D02*
X303677064Y-166290000D01*
X299322936Y-169710000D02*
X303677064Y-169710000D01*
%TO.C,J8*%
X292170000Y-104800000D02*
X296570000Y-104800000D01*
X292170000Y-109200000D02*
X292170000Y-104800000D01*
X296570000Y-104800000D02*
X296570000Y-109200000D01*
X296570000Y-109200000D02*
X292170000Y-109200000D01*
D12*
%TO.C,D15*%
X344515000Y-143200000D02*
G75*
G02*
X344265000Y-143200000I-125000J0D01*
G01*
X344265000Y-143200000D02*
G75*
G02*
X344515000Y-143200000I125000J0D01*
G01*
D10*
X357315000Y-142100000D02*
G75*
G02*
X349065000Y-142100000I-4125000J0D01*
G01*
X349065000Y-142100000D02*
G75*
G02*
X357315000Y-142100000I4125000J0D01*
G01*
D12*
%TO.C,D6*%
X325515000Y-115200000D02*
G75*
G02*
X325265000Y-115200000I-125000J0D01*
G01*
X325265000Y-115200000D02*
G75*
G02*
X325515000Y-115200000I125000J0D01*
G01*
D10*
X338315000Y-114100000D02*
G75*
G02*
X330065000Y-114100000I-4125000J0D01*
G01*
X330065000Y-114100000D02*
G75*
G02*
X338315000Y-114100000I4125000J0D01*
G01*
D12*
%TO.C,D5*%
X306515000Y-115200000D02*
G75*
G02*
X306265000Y-115200000I-125000J0D01*
G01*
X306265000Y-115200000D02*
G75*
G02*
X306515000Y-115200000I125000J0D01*
G01*
D10*
X319315000Y-114100000D02*
G75*
G02*
X311065000Y-114100000I-4125000J0D01*
G01*
X311065000Y-114100000D02*
G75*
G02*
X319315000Y-114100000I4125000J0D01*
G01*
D12*
%TO.C,D12*%
X363515000Y-129200000D02*
G75*
G02*
X363265000Y-129200000I-125000J0D01*
G01*
X363265000Y-129200000D02*
G75*
G02*
X363515000Y-129200000I125000J0D01*
G01*
D10*
X376315000Y-128100000D02*
G75*
G02*
X368065000Y-128100000I-4125000J0D01*
G01*
X368065000Y-128100000D02*
G75*
G02*
X376315000Y-128100000I4125000J0D01*
G01*
D11*
%TO.C,J5*%
X383030000Y-106490000D02*
X387430000Y-106490000D01*
X383030000Y-110890000D02*
X383030000Y-106490000D01*
X387430000Y-106490000D02*
X387430000Y-110890000D01*
X387430000Y-110890000D02*
X383030000Y-110890000D01*
D12*
%TO.C,D16*%
X363515000Y-143200000D02*
G75*
G02*
X363265000Y-143200000I-125000J0D01*
G01*
X363265000Y-143200000D02*
G75*
G02*
X363515000Y-143200000I125000J0D01*
G01*
D10*
X376315000Y-142100000D02*
G75*
G02*
X368065000Y-142100000I-4125000J0D01*
G01*
X368065000Y-142100000D02*
G75*
G02*
X376315000Y-142100000I4125000J0D01*
G01*
D12*
%TO.C,D23*%
X344515000Y-171200000D02*
G75*
G02*
X344265000Y-171200000I-125000J0D01*
G01*
X344265000Y-171200000D02*
G75*
G02*
X344515000Y-171200000I125000J0D01*
G01*
D10*
X357315000Y-170100000D02*
G75*
G02*
X349065000Y-170100000I-4125000J0D01*
G01*
X349065000Y-170100000D02*
G75*
G02*
X357315000Y-170100000I4125000J0D01*
G01*
D12*
%TO.C,D3*%
X325515000Y-101200000D02*
G75*
G02*
X325265000Y-101200000I-125000J0D01*
G01*
X325265000Y-101200000D02*
G75*
G02*
X325515000Y-101200000I125000J0D01*
G01*
D10*
X338315000Y-100100000D02*
G75*
G02*
X330065000Y-100100000I-4125000J0D01*
G01*
X330065000Y-100100000D02*
G75*
G02*
X338315000Y-100100000I4125000J0D01*
G01*
D12*
%TO.C,D14*%
X325515000Y-143200000D02*
G75*
G02*
X325265000Y-143200000I-125000J0D01*
G01*
X325265000Y-143200000D02*
G75*
G02*
X325515000Y-143200000I125000J0D01*
G01*
D10*
X338315000Y-142100000D02*
G75*
G02*
X330065000Y-142100000I-4125000J0D01*
G01*
X330065000Y-142100000D02*
G75*
G02*
X338315000Y-142100000I4125000J0D01*
G01*
D12*
%TO.C,D10*%
X325515000Y-129200000D02*
G75*
G02*
X325265000Y-129200000I-125000J0D01*
G01*
X325265000Y-129200000D02*
G75*
G02*
X325515000Y-129200000I125000J0D01*
G01*
D10*
X338315000Y-128100000D02*
G75*
G02*
X330065000Y-128100000I-4125000J0D01*
G01*
X330065000Y-128100000D02*
G75*
G02*
X338315000Y-128100000I4125000J0D01*
G01*
D11*
%TO.C,J7*%
X383030000Y-100440000D02*
X387430000Y-100440000D01*
X383030000Y-104840000D02*
X383030000Y-100440000D01*
X387430000Y-100440000D02*
X387430000Y-104840000D01*
X387430000Y-104840000D02*
X383030000Y-104840000D01*
%TO.C,J2*%
X383210000Y-176910000D02*
X387610000Y-176910000D01*
X383210000Y-181310000D02*
X383210000Y-176910000D01*
X387610000Y-176910000D02*
X387610000Y-181310000D01*
X387610000Y-181310000D02*
X383210000Y-181310000D01*
D12*
%TO.C,D17*%
X306515000Y-157200000D02*
G75*
G02*
X306265000Y-157200000I-125000J0D01*
G01*
X306265000Y-157200000D02*
G75*
G02*
X306515000Y-157200000I125000J0D01*
G01*
D10*
X319315000Y-156100000D02*
G75*
G02*
X311065000Y-156100000I-4125000J0D01*
G01*
X311065000Y-156100000D02*
G75*
G02*
X319315000Y-156100000I4125000J0D01*
G01*
D11*
%TO.C,J3*%
X383150000Y-170920000D02*
X387550000Y-170920000D01*
X383150000Y-175320000D02*
X383150000Y-170920000D01*
X387550000Y-170920000D02*
X387550000Y-175320000D01*
X387550000Y-175320000D02*
X383150000Y-175320000D01*
D12*
%TO.C,D25*%
X306515000Y-185200000D02*
G75*
G02*
X306265000Y-185200000I-125000J0D01*
G01*
X306265000Y-185200000D02*
G75*
G02*
X306515000Y-185200000I125000J0D01*
G01*
D10*
X319315000Y-184100000D02*
G75*
G02*
X311065000Y-184100000I-4125000J0D01*
G01*
X311065000Y-184100000D02*
G75*
G02*
X319315000Y-184100000I4125000J0D01*
G01*
D12*
%TO.C,D2*%
X344515000Y-101200000D02*
G75*
G02*
X344265000Y-101200000I-125000J0D01*
G01*
X344265000Y-101200000D02*
G75*
G02*
X344515000Y-101200000I125000J0D01*
G01*
D10*
X357315000Y-100100000D02*
G75*
G02*
X349065000Y-100100000I-4125000J0D01*
G01*
X349065000Y-100100000D02*
G75*
G02*
X357315000Y-100100000I4125000J0D01*
G01*
D12*
%TO.C,D8*%
X363515000Y-115200000D02*
G75*
G02*
X363265000Y-115200000I-125000J0D01*
G01*
X363265000Y-115200000D02*
G75*
G02*
X363515000Y-115200000I125000J0D01*
G01*
D10*
X376315000Y-114100000D02*
G75*
G02*
X368065000Y-114100000I-4125000J0D01*
G01*
X368065000Y-114100000D02*
G75*
G02*
X376315000Y-114100000I4125000J0D01*
G01*
D11*
%TO.C,J4*%
X292300000Y-175300000D02*
X296700000Y-175300000D01*
X292300000Y-179700000D02*
X292300000Y-175300000D01*
X296700000Y-175300000D02*
X296700000Y-179700000D01*
X296700000Y-179700000D02*
X292300000Y-179700000D01*
D12*
%TO.C,D18*%
X325515000Y-157200000D02*
G75*
G02*
X325265000Y-157200000I-125000J0D01*
G01*
X325265000Y-157200000D02*
G75*
G02*
X325515000Y-157200000I125000J0D01*
G01*
D10*
X338315000Y-156100000D02*
G75*
G02*
X330065000Y-156100000I-4125000J0D01*
G01*
X330065000Y-156100000D02*
G75*
G02*
X338315000Y-156100000I4125000J0D01*
G01*
D12*
%TO.C,D27*%
X344515000Y-185200000D02*
G75*
G02*
X344265000Y-185200000I-125000J0D01*
G01*
X344265000Y-185200000D02*
G75*
G02*
X344515000Y-185200000I125000J0D01*
G01*
D10*
X357315000Y-184100000D02*
G75*
G02*
X349065000Y-184100000I-4125000J0D01*
G01*
X349065000Y-184100000D02*
G75*
G02*
X357315000Y-184100000I4125000J0D01*
G01*
D12*
%TO.C,D19*%
X344515000Y-157200000D02*
G75*
G02*
X344265000Y-157200000I-125000J0D01*
G01*
X344265000Y-157200000D02*
G75*
G02*
X344515000Y-157200000I125000J0D01*
G01*
D10*
X357315000Y-156100000D02*
G75*
G02*
X349065000Y-156100000I-4125000J0D01*
G01*
X349065000Y-156100000D02*
G75*
G02*
X357315000Y-156100000I4125000J0D01*
G01*
D12*
%TO.C,D1*%
X363515000Y-101200000D02*
G75*
G02*
X363265000Y-101200000I-125000J0D01*
G01*
X363265000Y-101200000D02*
G75*
G02*
X363515000Y-101200000I125000J0D01*
G01*
D10*
X376315000Y-100100000D02*
G75*
G02*
X368065000Y-100100000I-4125000J0D01*
G01*
X368065000Y-100100000D02*
G75*
G02*
X376315000Y-100100000I4125000J0D01*
G01*
D12*
%TO.C,D9*%
X306515000Y-129200000D02*
G75*
G02*
X306265000Y-129200000I-125000J0D01*
G01*
X306265000Y-129200000D02*
G75*
G02*
X306515000Y-129200000I125000J0D01*
G01*
D10*
X319315000Y-128100000D02*
G75*
G02*
X311065000Y-128100000I-4125000J0D01*
G01*
X311065000Y-128100000D02*
G75*
G02*
X319315000Y-128100000I4125000J0D01*
G01*
D12*
%TO.C,D28*%
X363515000Y-185200000D02*
G75*
G02*
X363265000Y-185200000I-125000J0D01*
G01*
X363265000Y-185200000D02*
G75*
G02*
X363515000Y-185200000I125000J0D01*
G01*
D10*
X376315000Y-184100000D02*
G75*
G02*
X368065000Y-184100000I-4125000J0D01*
G01*
X368065000Y-184100000D02*
G75*
G02*
X376315000Y-184100000I4125000J0D01*
G01*
D12*
%TO.C,D7*%
X344515000Y-115200000D02*
G75*
G02*
X344265000Y-115200000I-125000J0D01*
G01*
X344265000Y-115200000D02*
G75*
G02*
X344515000Y-115200000I125000J0D01*
G01*
D10*
X357315000Y-114100000D02*
G75*
G02*
X349065000Y-114100000I-4125000J0D01*
G01*
X349065000Y-114100000D02*
G75*
G02*
X357315000Y-114100000I4125000J0D01*
G01*
D12*
%TO.C,D26*%
X325515000Y-185200000D02*
G75*
G02*
X325265000Y-185200000I-125000J0D01*
G01*
X325265000Y-185200000D02*
G75*
G02*
X325515000Y-185200000I125000J0D01*
G01*
D10*
X338315000Y-184100000D02*
G75*
G02*
X330065000Y-184100000I-4125000J0D01*
G01*
X330065000Y-184100000D02*
G75*
G02*
X338315000Y-184100000I4125000J0D01*
G01*
D12*
%TO.C,D22*%
X325515000Y-171200000D02*
G75*
G02*
X325265000Y-171200000I-125000J0D01*
G01*
X325265000Y-171200000D02*
G75*
G02*
X325515000Y-171200000I125000J0D01*
G01*
D10*
X338315000Y-170100000D02*
G75*
G02*
X330065000Y-170100000I-4125000J0D01*
G01*
X330065000Y-170100000D02*
G75*
G02*
X338315000Y-170100000I4125000J0D01*
G01*
D11*
%TO.C,J6*%
X292300000Y-160800000D02*
X296700000Y-160800000D01*
X292300000Y-165200000D02*
X292300000Y-160800000D01*
X296700000Y-160800000D02*
X296700000Y-165200000D01*
X296700000Y-165200000D02*
X292300000Y-165200000D01*
D12*
%TO.C,D4*%
X306515000Y-101200000D02*
G75*
G02*
X306265000Y-101200000I-125000J0D01*
G01*
X306265000Y-101200000D02*
G75*
G02*
X306515000Y-101200000I125000J0D01*
G01*
D10*
X319315000Y-100100000D02*
G75*
G02*
X311065000Y-100100000I-4125000J0D01*
G01*
X311065000Y-100100000D02*
G75*
G02*
X319315000Y-100100000I4125000J0D01*
G01*
D12*
%TO.C,D21*%
X306515000Y-171200000D02*
G75*
G02*
X306265000Y-171200000I-125000J0D01*
G01*
X306265000Y-171200000D02*
G75*
G02*
X306515000Y-171200000I125000J0D01*
G01*
D10*
X319315000Y-170100000D02*
G75*
G02*
X311065000Y-170100000I-4125000J0D01*
G01*
X311065000Y-170100000D02*
G75*
G02*
X319315000Y-170100000I4125000J0D01*
G01*
D11*
%TO.C,J1*%
X291800000Y-118800000D02*
X296200000Y-118800000D01*
X291800000Y-123200000D02*
X291800000Y-118800000D01*
X296200000Y-118800000D02*
X296200000Y-123200000D01*
X296200000Y-123200000D02*
X291800000Y-123200000D01*
D12*
%TO.C,D13*%
X306515000Y-143200000D02*
G75*
G02*
X306265000Y-143200000I-125000J0D01*
G01*
X306265000Y-143200000D02*
G75*
G02*
X306515000Y-143200000I125000J0D01*
G01*
D10*
X319315000Y-142100000D02*
G75*
G02*
X311065000Y-142100000I-4125000J0D01*
G01*
X311065000Y-142100000D02*
G75*
G02*
X319315000Y-142100000I4125000J0D01*
G01*
D12*
%TO.C,D20*%
X363515000Y-157200000D02*
G75*
G02*
X363265000Y-157200000I-125000J0D01*
G01*
X363265000Y-157200000D02*
G75*
G02*
X363515000Y-157200000I125000J0D01*
G01*
D10*
X376315000Y-156100000D02*
G75*
G02*
X368065000Y-156100000I-4125000J0D01*
G01*
X368065000Y-156100000D02*
G75*
G02*
X376315000Y-156100000I4125000J0D01*
G01*
D12*
%TO.C,D11*%
X344515000Y-129200000D02*
G75*
G02*
X344265000Y-129200000I-125000J0D01*
G01*
X344265000Y-129200000D02*
G75*
G02*
X344515000Y-129200000I125000J0D01*
G01*
D10*
X357315000Y-128100000D02*
G75*
G02*
X349065000Y-128100000I-4125000J0D01*
G01*
X349065000Y-128100000D02*
G75*
G02*
X357315000Y-128100000I4125000J0D01*
G01*
D12*
%TO.C,D24*%
X363515000Y-171200000D02*
G75*
G02*
X363265000Y-171200000I-125000J0D01*
G01*
X363265000Y-171200000D02*
G75*
G02*
X363515000Y-171200000I125000J0D01*
G01*
D10*
X376315000Y-170100000D02*
G75*
G02*
X368065000Y-170100000I-4125000J0D01*
G01*
X368065000Y-170100000D02*
G75*
G02*
X376315000Y-170100000I4125000J0D01*
G01*
%TD*%
M02*
