%TF.GenerationSoftware,KiCad,Pcbnew,8.0.3*%
%TF.CreationDate,2024-06-30T23:13:16-03:00*%
%TF.ProjectId,led aqu_rio,6c656420-6171-475e-9172-696f2e6b6963,rev?*%
%TF.SameCoordinates,Original*%
%TF.FileFunction,Paste,Top*%
%TF.FilePolarity,Positive*%
%FSLAX46Y46*%
G04 Gerber Fmt 4.6, Leading zero omitted, Abs format (unit mm)*
G04 Created by KiCad (PCBNEW 8.0.3) date 2024-06-30 23:13:16*
%MOMM*%
%LPD*%
G01*
G04 APERTURE LIST*
G04 Aperture macros list*
%AMRoundRect*
0 Rectangle with rounded corners*
0 $1 Rounding radius*
0 $2 $3 $4 $5 $6 $7 $8 $9 X,Y pos of 4 corners*
0 Add a 4 corners polygon primitive as box body*
4,1,4,$2,$3,$4,$5,$6,$7,$8,$9,$2,$3,0*
0 Add four circle primitives for the rounded corners*
1,1,$1+$1,$2,$3*
1,1,$1+$1,$4,$5*
1,1,$1+$1,$6,$7*
1,1,$1+$1,$8,$9*
0 Add four rect primitives between the rounded corners*
20,1,$1+$1,$2,$3,$4,$5,0*
20,1,$1+$1,$4,$5,$6,$7,0*
20,1,$1+$1,$6,$7,$8,$9,0*
20,1,$1+$1,$8,$9,$2,$3,0*%
G04 Aperture macros list end*
%ADD10R,3.500000X2.100000*%
%ADD11C,6.200000*%
%ADD12RoundRect,0.250000X-0.312500X-0.625000X0.312500X-0.625000X0.312500X0.625000X-0.312500X0.625000X0*%
G04 APERTURE END LIST*
D10*
%TO.C,D15*%
X346690000Y-143200000D03*
X359690000Y-141000000D03*
D11*
X353190000Y-142100000D03*
%TD*%
D12*
%TO.C,R1*%
X301067500Y-97060000D03*
X303992500Y-97060000D03*
%TD*%
D10*
%TO.C,D6*%
X327690000Y-115200000D03*
X340690000Y-113000000D03*
D11*
X334190000Y-114100000D03*
%TD*%
D10*
%TO.C,D5*%
X308690000Y-115200000D03*
X321690000Y-113000000D03*
D11*
X315190000Y-114100000D03*
%TD*%
D10*
%TO.C,D12*%
X365690000Y-129200000D03*
X378690000Y-127000000D03*
D11*
X372190000Y-128100000D03*
%TD*%
D12*
%TO.C,R14*%
X300767500Y-186460000D03*
X303692500Y-186460000D03*
%TD*%
D10*
%TO.C,D16*%
X365690000Y-143200000D03*
X378690000Y-141000000D03*
D11*
X372190000Y-142100000D03*
%TD*%
D10*
%TO.C,D23*%
X346690000Y-171200000D03*
X359690000Y-169000000D03*
D11*
X353190000Y-170100000D03*
%TD*%
D12*
%TO.C,R8*%
X300615000Y-144650000D03*
X303540000Y-144650000D03*
%TD*%
D10*
%TO.C,D3*%
X327690000Y-101200000D03*
X340690000Y-99000000D03*
D11*
X334190000Y-100100000D03*
%TD*%
D10*
%TO.C,D14*%
X327690000Y-143200000D03*
X340690000Y-141000000D03*
D11*
X334190000Y-142100000D03*
%TD*%
D10*
%TO.C,D10*%
X327690000Y-129200000D03*
X340690000Y-127000000D03*
D11*
X334190000Y-128100000D03*
%TD*%
D12*
%TO.C,R11*%
X300615000Y-167253000D03*
X303540000Y-167253000D03*
%TD*%
D10*
%TO.C,D17*%
X308690000Y-157200000D03*
X321690000Y-155000000D03*
D11*
X315190000Y-156100000D03*
%TD*%
D12*
%TO.C,R2*%
X301067500Y-102397000D03*
X303992500Y-102397000D03*
%TD*%
%TO.C,R10*%
X300577500Y-158370000D03*
X303502500Y-158370000D03*
%TD*%
D10*
%TO.C,D25*%
X308690000Y-185200000D03*
X321690000Y-183000000D03*
D11*
X315190000Y-184100000D03*
%TD*%
D10*
%TO.C,D2*%
X346690000Y-101200000D03*
X359690000Y-99000000D03*
D11*
X353190000Y-100100000D03*
%TD*%
D12*
%TO.C,R13*%
X300767500Y-181123000D03*
X303692500Y-181123000D03*
%TD*%
D10*
%TO.C,D8*%
X365690000Y-115200000D03*
X378690000Y-113000000D03*
D11*
X372190000Y-114100000D03*
%TD*%
D10*
%TO.C,D18*%
X327690000Y-157200000D03*
X340690000Y-155000000D03*
D11*
X334190000Y-156100000D03*
%TD*%
D12*
%TO.C,R7*%
X300615000Y-139313000D03*
X303540000Y-139313000D03*
%TD*%
D10*
%TO.C,D27*%
X346690000Y-185200000D03*
X359690000Y-183000000D03*
D11*
X353190000Y-184100000D03*
%TD*%
D10*
%TO.C,D19*%
X346690000Y-157200000D03*
X359690000Y-155000000D03*
D11*
X353190000Y-156100000D03*
%TD*%
D12*
%TO.C,R6*%
X300927500Y-130510000D03*
X303852500Y-130510000D03*
%TD*%
D10*
%TO.C,D1*%
X365690000Y-101200000D03*
X378690000Y-99000000D03*
D11*
X372190000Y-100100000D03*
%TD*%
D10*
%TO.C,D9*%
X308690000Y-129200000D03*
X321690000Y-127000000D03*
D11*
X315190000Y-128100000D03*
%TD*%
D10*
%TO.C,D28*%
X365690000Y-185200000D03*
X378690000Y-183000000D03*
D11*
X372190000Y-184100000D03*
%TD*%
D10*
%TO.C,D7*%
X346690000Y-115200000D03*
X359690000Y-113000000D03*
D11*
X353190000Y-114100000D03*
%TD*%
D10*
%TO.C,D26*%
X327690000Y-185200000D03*
X340690000Y-183000000D03*
D11*
X334190000Y-184100000D03*
%TD*%
D12*
%TO.C,R4*%
X301107500Y-116307000D03*
X304032500Y-116307000D03*
%TD*%
D10*
%TO.C,D22*%
X327690000Y-171200000D03*
X340690000Y-169000000D03*
D11*
X334190000Y-170100000D03*
%TD*%
D12*
%TO.C,R5*%
X300927500Y-125173000D03*
X303852500Y-125173000D03*
%TD*%
D10*
%TO.C,D4*%
X308690000Y-101200000D03*
X321690000Y-99000000D03*
D11*
X315190000Y-100100000D03*
%TD*%
D12*
%TO.C,R12*%
X300615000Y-172590000D03*
X303540000Y-172590000D03*
%TD*%
D10*
%TO.C,D21*%
X308690000Y-171200000D03*
X321690000Y-169000000D03*
D11*
X315190000Y-170100000D03*
%TD*%
D12*
%TO.C,R9*%
X300577500Y-153033000D03*
X303502500Y-153033000D03*
%TD*%
D10*
%TO.C,D13*%
X308690000Y-143200000D03*
X321690000Y-141000000D03*
D11*
X315190000Y-142100000D03*
%TD*%
D12*
%TO.C,R3*%
X301107500Y-110970000D03*
X304032500Y-110970000D03*
%TD*%
D10*
%TO.C,D20*%
X365690000Y-157200000D03*
X378690000Y-155000000D03*
D11*
X372190000Y-156100000D03*
%TD*%
D10*
%TO.C,D11*%
X346690000Y-129200000D03*
X359690000Y-127000000D03*
D11*
X353190000Y-128100000D03*
%TD*%
D10*
%TO.C,D24*%
X365690000Y-171200000D03*
X378690000Y-169000000D03*
D11*
X372190000Y-170100000D03*
%TD*%
M02*
