%TF.GenerationSoftware,KiCad,Pcbnew,8.0.3*%
%TF.CreationDate,2024-06-30T23:13:16-03:00*%
%TF.ProjectId,led aqu_rio,6c656420-6171-475e-9172-696f2e6b6963,rev?*%
%TF.SameCoordinates,Original*%
%TF.FileFunction,Legend,Top*%
%TF.FilePolarity,Positive*%
%FSLAX46Y46*%
G04 Gerber Fmt 4.6, Leading zero omitted, Abs format (unit mm)*
G04 Created by KiCad (PCBNEW 8.0.3) date 2024-06-30 23:13:16*
%MOMM*%
%LPD*%
G01*
G04 APERTURE LIST*
%ADD10C,0.150000*%
%ADD11C,0.120000*%
%ADD12C,0.250000*%
G04 APERTURE END LIST*
D10*
X292116819Y-105313333D02*
X292831104Y-105313333D01*
X292831104Y-105313333D02*
X292973961Y-105360952D01*
X292973961Y-105360952D02*
X293069200Y-105456190D01*
X293069200Y-105456190D02*
X293116819Y-105599047D01*
X293116819Y-105599047D02*
X293116819Y-105694285D01*
X292545390Y-104694285D02*
X292497771Y-104789523D01*
X292497771Y-104789523D02*
X292450152Y-104837142D01*
X292450152Y-104837142D02*
X292354914Y-104884761D01*
X292354914Y-104884761D02*
X292307295Y-104884761D01*
X292307295Y-104884761D02*
X292212057Y-104837142D01*
X292212057Y-104837142D02*
X292164438Y-104789523D01*
X292164438Y-104789523D02*
X292116819Y-104694285D01*
X292116819Y-104694285D02*
X292116819Y-104503809D01*
X292116819Y-104503809D02*
X292164438Y-104408571D01*
X292164438Y-104408571D02*
X292212057Y-104360952D01*
X292212057Y-104360952D02*
X292307295Y-104313333D01*
X292307295Y-104313333D02*
X292354914Y-104313333D01*
X292354914Y-104313333D02*
X292450152Y-104360952D01*
X292450152Y-104360952D02*
X292497771Y-104408571D01*
X292497771Y-104408571D02*
X292545390Y-104503809D01*
X292545390Y-104503809D02*
X292545390Y-104694285D01*
X292545390Y-104694285D02*
X292593009Y-104789523D01*
X292593009Y-104789523D02*
X292640628Y-104837142D01*
X292640628Y-104837142D02*
X292735866Y-104884761D01*
X292735866Y-104884761D02*
X292926342Y-104884761D01*
X292926342Y-104884761D02*
X293021580Y-104837142D01*
X293021580Y-104837142D02*
X293069200Y-104789523D01*
X293069200Y-104789523D02*
X293116819Y-104694285D01*
X293116819Y-104694285D02*
X293116819Y-104503809D01*
X293116819Y-104503809D02*
X293069200Y-104408571D01*
X293069200Y-104408571D02*
X293021580Y-104360952D01*
X293021580Y-104360952D02*
X292926342Y-104313333D01*
X292926342Y-104313333D02*
X292735866Y-104313333D01*
X292735866Y-104313333D02*
X292640628Y-104360952D01*
X292640628Y-104360952D02*
X292593009Y-104408571D01*
X292593009Y-104408571D02*
X292545390Y-104503809D01*
X348601779Y-137754819D02*
X348601779Y-136754819D01*
X348601779Y-136754819D02*
X348839874Y-136754819D01*
X348839874Y-136754819D02*
X348982731Y-136802438D01*
X348982731Y-136802438D02*
X349077969Y-136897676D01*
X349077969Y-136897676D02*
X349125588Y-136992914D01*
X349125588Y-136992914D02*
X349173207Y-137183390D01*
X349173207Y-137183390D02*
X349173207Y-137326247D01*
X349173207Y-137326247D02*
X349125588Y-137516723D01*
X349125588Y-137516723D02*
X349077969Y-137611961D01*
X349077969Y-137611961D02*
X348982731Y-137707200D01*
X348982731Y-137707200D02*
X348839874Y-137754819D01*
X348839874Y-137754819D02*
X348601779Y-137754819D01*
X350125588Y-137754819D02*
X349554160Y-137754819D01*
X349839874Y-137754819D02*
X349839874Y-136754819D01*
X349839874Y-136754819D02*
X349744636Y-136897676D01*
X349744636Y-136897676D02*
X349649398Y-136992914D01*
X349649398Y-136992914D02*
X349554160Y-137040533D01*
X351030350Y-136754819D02*
X350554160Y-136754819D01*
X350554160Y-136754819D02*
X350506541Y-137231009D01*
X350506541Y-137231009D02*
X350554160Y-137183390D01*
X350554160Y-137183390D02*
X350649398Y-137135771D01*
X350649398Y-137135771D02*
X350887493Y-137135771D01*
X350887493Y-137135771D02*
X350982731Y-137183390D01*
X350982731Y-137183390D02*
X351030350Y-137231009D01*
X351030350Y-137231009D02*
X351077969Y-137326247D01*
X351077969Y-137326247D02*
X351077969Y-137564342D01*
X351077969Y-137564342D02*
X351030350Y-137659580D01*
X351030350Y-137659580D02*
X350982731Y-137707200D01*
X350982731Y-137707200D02*
X350887493Y-137754819D01*
X350887493Y-137754819D02*
X350649398Y-137754819D01*
X350649398Y-137754819D02*
X350554160Y-137707200D01*
X350554160Y-137707200D02*
X350506541Y-137659580D01*
X302363333Y-95694819D02*
X302030000Y-95218628D01*
X301791905Y-95694819D02*
X301791905Y-94694819D01*
X301791905Y-94694819D02*
X302172857Y-94694819D01*
X302172857Y-94694819D02*
X302268095Y-94742438D01*
X302268095Y-94742438D02*
X302315714Y-94790057D01*
X302315714Y-94790057D02*
X302363333Y-94885295D01*
X302363333Y-94885295D02*
X302363333Y-95028152D01*
X302363333Y-95028152D02*
X302315714Y-95123390D01*
X302315714Y-95123390D02*
X302268095Y-95171009D01*
X302268095Y-95171009D02*
X302172857Y-95218628D01*
X302172857Y-95218628D02*
X301791905Y-95218628D01*
X303315714Y-95694819D02*
X302744286Y-95694819D01*
X303030000Y-95694819D02*
X303030000Y-94694819D01*
X303030000Y-94694819D02*
X302934762Y-94837676D01*
X302934762Y-94837676D02*
X302839524Y-94932914D01*
X302839524Y-94932914D02*
X302744286Y-94980533D01*
X329601779Y-109754819D02*
X329601779Y-108754819D01*
X329601779Y-108754819D02*
X329839874Y-108754819D01*
X329839874Y-108754819D02*
X329982731Y-108802438D01*
X329982731Y-108802438D02*
X330077969Y-108897676D01*
X330077969Y-108897676D02*
X330125588Y-108992914D01*
X330125588Y-108992914D02*
X330173207Y-109183390D01*
X330173207Y-109183390D02*
X330173207Y-109326247D01*
X330173207Y-109326247D02*
X330125588Y-109516723D01*
X330125588Y-109516723D02*
X330077969Y-109611961D01*
X330077969Y-109611961D02*
X329982731Y-109707200D01*
X329982731Y-109707200D02*
X329839874Y-109754819D01*
X329839874Y-109754819D02*
X329601779Y-109754819D01*
X331030350Y-108754819D02*
X330839874Y-108754819D01*
X330839874Y-108754819D02*
X330744636Y-108802438D01*
X330744636Y-108802438D02*
X330697017Y-108850057D01*
X330697017Y-108850057D02*
X330601779Y-108992914D01*
X330601779Y-108992914D02*
X330554160Y-109183390D01*
X330554160Y-109183390D02*
X330554160Y-109564342D01*
X330554160Y-109564342D02*
X330601779Y-109659580D01*
X330601779Y-109659580D02*
X330649398Y-109707200D01*
X330649398Y-109707200D02*
X330744636Y-109754819D01*
X330744636Y-109754819D02*
X330935112Y-109754819D01*
X330935112Y-109754819D02*
X331030350Y-109707200D01*
X331030350Y-109707200D02*
X331077969Y-109659580D01*
X331077969Y-109659580D02*
X331125588Y-109564342D01*
X331125588Y-109564342D02*
X331125588Y-109326247D01*
X331125588Y-109326247D02*
X331077969Y-109231009D01*
X331077969Y-109231009D02*
X331030350Y-109183390D01*
X331030350Y-109183390D02*
X330935112Y-109135771D01*
X330935112Y-109135771D02*
X330744636Y-109135771D01*
X330744636Y-109135771D02*
X330649398Y-109183390D01*
X330649398Y-109183390D02*
X330601779Y-109231009D01*
X330601779Y-109231009D02*
X330554160Y-109326247D01*
X310601779Y-109754819D02*
X310601779Y-108754819D01*
X310601779Y-108754819D02*
X310839874Y-108754819D01*
X310839874Y-108754819D02*
X310982731Y-108802438D01*
X310982731Y-108802438D02*
X311077969Y-108897676D01*
X311077969Y-108897676D02*
X311125588Y-108992914D01*
X311125588Y-108992914D02*
X311173207Y-109183390D01*
X311173207Y-109183390D02*
X311173207Y-109326247D01*
X311173207Y-109326247D02*
X311125588Y-109516723D01*
X311125588Y-109516723D02*
X311077969Y-109611961D01*
X311077969Y-109611961D02*
X310982731Y-109707200D01*
X310982731Y-109707200D02*
X310839874Y-109754819D01*
X310839874Y-109754819D02*
X310601779Y-109754819D01*
X312077969Y-108754819D02*
X311601779Y-108754819D01*
X311601779Y-108754819D02*
X311554160Y-109231009D01*
X311554160Y-109231009D02*
X311601779Y-109183390D01*
X311601779Y-109183390D02*
X311697017Y-109135771D01*
X311697017Y-109135771D02*
X311935112Y-109135771D01*
X311935112Y-109135771D02*
X312030350Y-109183390D01*
X312030350Y-109183390D02*
X312077969Y-109231009D01*
X312077969Y-109231009D02*
X312125588Y-109326247D01*
X312125588Y-109326247D02*
X312125588Y-109564342D01*
X312125588Y-109564342D02*
X312077969Y-109659580D01*
X312077969Y-109659580D02*
X312030350Y-109707200D01*
X312030350Y-109707200D02*
X311935112Y-109754819D01*
X311935112Y-109754819D02*
X311697017Y-109754819D01*
X311697017Y-109754819D02*
X311601779Y-109707200D01*
X311601779Y-109707200D02*
X311554160Y-109659580D01*
X367601779Y-123754819D02*
X367601779Y-122754819D01*
X367601779Y-122754819D02*
X367839874Y-122754819D01*
X367839874Y-122754819D02*
X367982731Y-122802438D01*
X367982731Y-122802438D02*
X368077969Y-122897676D01*
X368077969Y-122897676D02*
X368125588Y-122992914D01*
X368125588Y-122992914D02*
X368173207Y-123183390D01*
X368173207Y-123183390D02*
X368173207Y-123326247D01*
X368173207Y-123326247D02*
X368125588Y-123516723D01*
X368125588Y-123516723D02*
X368077969Y-123611961D01*
X368077969Y-123611961D02*
X367982731Y-123707200D01*
X367982731Y-123707200D02*
X367839874Y-123754819D01*
X367839874Y-123754819D02*
X367601779Y-123754819D01*
X369125588Y-123754819D02*
X368554160Y-123754819D01*
X368839874Y-123754819D02*
X368839874Y-122754819D01*
X368839874Y-122754819D02*
X368744636Y-122897676D01*
X368744636Y-122897676D02*
X368649398Y-122992914D01*
X368649398Y-122992914D02*
X368554160Y-123040533D01*
X369506541Y-122850057D02*
X369554160Y-122802438D01*
X369554160Y-122802438D02*
X369649398Y-122754819D01*
X369649398Y-122754819D02*
X369887493Y-122754819D01*
X369887493Y-122754819D02*
X369982731Y-122802438D01*
X369982731Y-122802438D02*
X370030350Y-122850057D01*
X370030350Y-122850057D02*
X370077969Y-122945295D01*
X370077969Y-122945295D02*
X370077969Y-123040533D01*
X370077969Y-123040533D02*
X370030350Y-123183390D01*
X370030350Y-123183390D02*
X369458922Y-123754819D01*
X369458922Y-123754819D02*
X370077969Y-123754819D01*
X381786819Y-109023333D02*
X382501104Y-109023333D01*
X382501104Y-109023333D02*
X382643961Y-109070952D01*
X382643961Y-109070952D02*
X382739200Y-109166190D01*
X382739200Y-109166190D02*
X382786819Y-109309047D01*
X382786819Y-109309047D02*
X382786819Y-109404285D01*
X381786819Y-108070952D02*
X381786819Y-108547142D01*
X381786819Y-108547142D02*
X382263009Y-108594761D01*
X382263009Y-108594761D02*
X382215390Y-108547142D01*
X382215390Y-108547142D02*
X382167771Y-108451904D01*
X382167771Y-108451904D02*
X382167771Y-108213809D01*
X382167771Y-108213809D02*
X382215390Y-108118571D01*
X382215390Y-108118571D02*
X382263009Y-108070952D01*
X382263009Y-108070952D02*
X382358247Y-108023333D01*
X382358247Y-108023333D02*
X382596342Y-108023333D01*
X382596342Y-108023333D02*
X382691580Y-108070952D01*
X382691580Y-108070952D02*
X382739200Y-108118571D01*
X382739200Y-108118571D02*
X382786819Y-108213809D01*
X382786819Y-108213809D02*
X382786819Y-108451904D01*
X382786819Y-108451904D02*
X382739200Y-108547142D01*
X382739200Y-108547142D02*
X382691580Y-108594761D01*
X301587142Y-185094819D02*
X301253809Y-184618628D01*
X301015714Y-185094819D02*
X301015714Y-184094819D01*
X301015714Y-184094819D02*
X301396666Y-184094819D01*
X301396666Y-184094819D02*
X301491904Y-184142438D01*
X301491904Y-184142438D02*
X301539523Y-184190057D01*
X301539523Y-184190057D02*
X301587142Y-184285295D01*
X301587142Y-184285295D02*
X301587142Y-184428152D01*
X301587142Y-184428152D02*
X301539523Y-184523390D01*
X301539523Y-184523390D02*
X301491904Y-184571009D01*
X301491904Y-184571009D02*
X301396666Y-184618628D01*
X301396666Y-184618628D02*
X301015714Y-184618628D01*
X302539523Y-185094819D02*
X301968095Y-185094819D01*
X302253809Y-185094819D02*
X302253809Y-184094819D01*
X302253809Y-184094819D02*
X302158571Y-184237676D01*
X302158571Y-184237676D02*
X302063333Y-184332914D01*
X302063333Y-184332914D02*
X301968095Y-184380533D01*
X303396666Y-184428152D02*
X303396666Y-185094819D01*
X303158571Y-184047200D02*
X302920476Y-184761485D01*
X302920476Y-184761485D02*
X303539523Y-184761485D01*
X367601779Y-137754819D02*
X367601779Y-136754819D01*
X367601779Y-136754819D02*
X367839874Y-136754819D01*
X367839874Y-136754819D02*
X367982731Y-136802438D01*
X367982731Y-136802438D02*
X368077969Y-136897676D01*
X368077969Y-136897676D02*
X368125588Y-136992914D01*
X368125588Y-136992914D02*
X368173207Y-137183390D01*
X368173207Y-137183390D02*
X368173207Y-137326247D01*
X368173207Y-137326247D02*
X368125588Y-137516723D01*
X368125588Y-137516723D02*
X368077969Y-137611961D01*
X368077969Y-137611961D02*
X367982731Y-137707200D01*
X367982731Y-137707200D02*
X367839874Y-137754819D01*
X367839874Y-137754819D02*
X367601779Y-137754819D01*
X369125588Y-137754819D02*
X368554160Y-137754819D01*
X368839874Y-137754819D02*
X368839874Y-136754819D01*
X368839874Y-136754819D02*
X368744636Y-136897676D01*
X368744636Y-136897676D02*
X368649398Y-136992914D01*
X368649398Y-136992914D02*
X368554160Y-137040533D01*
X369982731Y-136754819D02*
X369792255Y-136754819D01*
X369792255Y-136754819D02*
X369697017Y-136802438D01*
X369697017Y-136802438D02*
X369649398Y-136850057D01*
X369649398Y-136850057D02*
X369554160Y-136992914D01*
X369554160Y-136992914D02*
X369506541Y-137183390D01*
X369506541Y-137183390D02*
X369506541Y-137564342D01*
X369506541Y-137564342D02*
X369554160Y-137659580D01*
X369554160Y-137659580D02*
X369601779Y-137707200D01*
X369601779Y-137707200D02*
X369697017Y-137754819D01*
X369697017Y-137754819D02*
X369887493Y-137754819D01*
X369887493Y-137754819D02*
X369982731Y-137707200D01*
X369982731Y-137707200D02*
X370030350Y-137659580D01*
X370030350Y-137659580D02*
X370077969Y-137564342D01*
X370077969Y-137564342D02*
X370077969Y-137326247D01*
X370077969Y-137326247D02*
X370030350Y-137231009D01*
X370030350Y-137231009D02*
X369982731Y-137183390D01*
X369982731Y-137183390D02*
X369887493Y-137135771D01*
X369887493Y-137135771D02*
X369697017Y-137135771D01*
X369697017Y-137135771D02*
X369601779Y-137183390D01*
X369601779Y-137183390D02*
X369554160Y-137231009D01*
X369554160Y-137231009D02*
X369506541Y-137326247D01*
X348601779Y-165754819D02*
X348601779Y-164754819D01*
X348601779Y-164754819D02*
X348839874Y-164754819D01*
X348839874Y-164754819D02*
X348982731Y-164802438D01*
X348982731Y-164802438D02*
X349077969Y-164897676D01*
X349077969Y-164897676D02*
X349125588Y-164992914D01*
X349125588Y-164992914D02*
X349173207Y-165183390D01*
X349173207Y-165183390D02*
X349173207Y-165326247D01*
X349173207Y-165326247D02*
X349125588Y-165516723D01*
X349125588Y-165516723D02*
X349077969Y-165611961D01*
X349077969Y-165611961D02*
X348982731Y-165707200D01*
X348982731Y-165707200D02*
X348839874Y-165754819D01*
X348839874Y-165754819D02*
X348601779Y-165754819D01*
X349554160Y-164850057D02*
X349601779Y-164802438D01*
X349601779Y-164802438D02*
X349697017Y-164754819D01*
X349697017Y-164754819D02*
X349935112Y-164754819D01*
X349935112Y-164754819D02*
X350030350Y-164802438D01*
X350030350Y-164802438D02*
X350077969Y-164850057D01*
X350077969Y-164850057D02*
X350125588Y-164945295D01*
X350125588Y-164945295D02*
X350125588Y-165040533D01*
X350125588Y-165040533D02*
X350077969Y-165183390D01*
X350077969Y-165183390D02*
X349506541Y-165754819D01*
X349506541Y-165754819D02*
X350125588Y-165754819D01*
X350458922Y-164754819D02*
X351077969Y-164754819D01*
X351077969Y-164754819D02*
X350744636Y-165135771D01*
X350744636Y-165135771D02*
X350887493Y-165135771D01*
X350887493Y-165135771D02*
X350982731Y-165183390D01*
X350982731Y-165183390D02*
X351030350Y-165231009D01*
X351030350Y-165231009D02*
X351077969Y-165326247D01*
X351077969Y-165326247D02*
X351077969Y-165564342D01*
X351077969Y-165564342D02*
X351030350Y-165659580D01*
X351030350Y-165659580D02*
X350982731Y-165707200D01*
X350982731Y-165707200D02*
X350887493Y-165754819D01*
X350887493Y-165754819D02*
X350601779Y-165754819D01*
X350601779Y-165754819D02*
X350506541Y-165707200D01*
X350506541Y-165707200D02*
X350458922Y-165659580D01*
X301910833Y-143284819D02*
X301577500Y-142808628D01*
X301339405Y-143284819D02*
X301339405Y-142284819D01*
X301339405Y-142284819D02*
X301720357Y-142284819D01*
X301720357Y-142284819D02*
X301815595Y-142332438D01*
X301815595Y-142332438D02*
X301863214Y-142380057D01*
X301863214Y-142380057D02*
X301910833Y-142475295D01*
X301910833Y-142475295D02*
X301910833Y-142618152D01*
X301910833Y-142618152D02*
X301863214Y-142713390D01*
X301863214Y-142713390D02*
X301815595Y-142761009D01*
X301815595Y-142761009D02*
X301720357Y-142808628D01*
X301720357Y-142808628D02*
X301339405Y-142808628D01*
X302482262Y-142713390D02*
X302387024Y-142665771D01*
X302387024Y-142665771D02*
X302339405Y-142618152D01*
X302339405Y-142618152D02*
X302291786Y-142522914D01*
X302291786Y-142522914D02*
X302291786Y-142475295D01*
X302291786Y-142475295D02*
X302339405Y-142380057D01*
X302339405Y-142380057D02*
X302387024Y-142332438D01*
X302387024Y-142332438D02*
X302482262Y-142284819D01*
X302482262Y-142284819D02*
X302672738Y-142284819D01*
X302672738Y-142284819D02*
X302767976Y-142332438D01*
X302767976Y-142332438D02*
X302815595Y-142380057D01*
X302815595Y-142380057D02*
X302863214Y-142475295D01*
X302863214Y-142475295D02*
X302863214Y-142522914D01*
X302863214Y-142522914D02*
X302815595Y-142618152D01*
X302815595Y-142618152D02*
X302767976Y-142665771D01*
X302767976Y-142665771D02*
X302672738Y-142713390D01*
X302672738Y-142713390D02*
X302482262Y-142713390D01*
X302482262Y-142713390D02*
X302387024Y-142761009D01*
X302387024Y-142761009D02*
X302339405Y-142808628D01*
X302339405Y-142808628D02*
X302291786Y-142903866D01*
X302291786Y-142903866D02*
X302291786Y-143094342D01*
X302291786Y-143094342D02*
X302339405Y-143189580D01*
X302339405Y-143189580D02*
X302387024Y-143237200D01*
X302387024Y-143237200D02*
X302482262Y-143284819D01*
X302482262Y-143284819D02*
X302672738Y-143284819D01*
X302672738Y-143284819D02*
X302767976Y-143237200D01*
X302767976Y-143237200D02*
X302815595Y-143189580D01*
X302815595Y-143189580D02*
X302863214Y-143094342D01*
X302863214Y-143094342D02*
X302863214Y-142903866D01*
X302863214Y-142903866D02*
X302815595Y-142808628D01*
X302815595Y-142808628D02*
X302767976Y-142761009D01*
X302767976Y-142761009D02*
X302672738Y-142713390D01*
X329601779Y-95754819D02*
X329601779Y-94754819D01*
X329601779Y-94754819D02*
X329839874Y-94754819D01*
X329839874Y-94754819D02*
X329982731Y-94802438D01*
X329982731Y-94802438D02*
X330077969Y-94897676D01*
X330077969Y-94897676D02*
X330125588Y-94992914D01*
X330125588Y-94992914D02*
X330173207Y-95183390D01*
X330173207Y-95183390D02*
X330173207Y-95326247D01*
X330173207Y-95326247D02*
X330125588Y-95516723D01*
X330125588Y-95516723D02*
X330077969Y-95611961D01*
X330077969Y-95611961D02*
X329982731Y-95707200D01*
X329982731Y-95707200D02*
X329839874Y-95754819D01*
X329839874Y-95754819D02*
X329601779Y-95754819D01*
X330506541Y-94754819D02*
X331125588Y-94754819D01*
X331125588Y-94754819D02*
X330792255Y-95135771D01*
X330792255Y-95135771D02*
X330935112Y-95135771D01*
X330935112Y-95135771D02*
X331030350Y-95183390D01*
X331030350Y-95183390D02*
X331077969Y-95231009D01*
X331077969Y-95231009D02*
X331125588Y-95326247D01*
X331125588Y-95326247D02*
X331125588Y-95564342D01*
X331125588Y-95564342D02*
X331077969Y-95659580D01*
X331077969Y-95659580D02*
X331030350Y-95707200D01*
X331030350Y-95707200D02*
X330935112Y-95754819D01*
X330935112Y-95754819D02*
X330649398Y-95754819D01*
X330649398Y-95754819D02*
X330554160Y-95707200D01*
X330554160Y-95707200D02*
X330506541Y-95659580D01*
X329601779Y-137754819D02*
X329601779Y-136754819D01*
X329601779Y-136754819D02*
X329839874Y-136754819D01*
X329839874Y-136754819D02*
X329982731Y-136802438D01*
X329982731Y-136802438D02*
X330077969Y-136897676D01*
X330077969Y-136897676D02*
X330125588Y-136992914D01*
X330125588Y-136992914D02*
X330173207Y-137183390D01*
X330173207Y-137183390D02*
X330173207Y-137326247D01*
X330173207Y-137326247D02*
X330125588Y-137516723D01*
X330125588Y-137516723D02*
X330077969Y-137611961D01*
X330077969Y-137611961D02*
X329982731Y-137707200D01*
X329982731Y-137707200D02*
X329839874Y-137754819D01*
X329839874Y-137754819D02*
X329601779Y-137754819D01*
X331125588Y-137754819D02*
X330554160Y-137754819D01*
X330839874Y-137754819D02*
X330839874Y-136754819D01*
X330839874Y-136754819D02*
X330744636Y-136897676D01*
X330744636Y-136897676D02*
X330649398Y-136992914D01*
X330649398Y-136992914D02*
X330554160Y-137040533D01*
X331982731Y-137088152D02*
X331982731Y-137754819D01*
X331744636Y-136707200D02*
X331506541Y-137421485D01*
X331506541Y-137421485D02*
X332125588Y-137421485D01*
X329601779Y-123754819D02*
X329601779Y-122754819D01*
X329601779Y-122754819D02*
X329839874Y-122754819D01*
X329839874Y-122754819D02*
X329982731Y-122802438D01*
X329982731Y-122802438D02*
X330077969Y-122897676D01*
X330077969Y-122897676D02*
X330125588Y-122992914D01*
X330125588Y-122992914D02*
X330173207Y-123183390D01*
X330173207Y-123183390D02*
X330173207Y-123326247D01*
X330173207Y-123326247D02*
X330125588Y-123516723D01*
X330125588Y-123516723D02*
X330077969Y-123611961D01*
X330077969Y-123611961D02*
X329982731Y-123707200D01*
X329982731Y-123707200D02*
X329839874Y-123754819D01*
X329839874Y-123754819D02*
X329601779Y-123754819D01*
X331125588Y-123754819D02*
X330554160Y-123754819D01*
X330839874Y-123754819D02*
X330839874Y-122754819D01*
X330839874Y-122754819D02*
X330744636Y-122897676D01*
X330744636Y-122897676D02*
X330649398Y-122992914D01*
X330649398Y-122992914D02*
X330554160Y-123040533D01*
X331744636Y-122754819D02*
X331839874Y-122754819D01*
X331839874Y-122754819D02*
X331935112Y-122802438D01*
X331935112Y-122802438D02*
X331982731Y-122850057D01*
X331982731Y-122850057D02*
X332030350Y-122945295D01*
X332030350Y-122945295D02*
X332077969Y-123135771D01*
X332077969Y-123135771D02*
X332077969Y-123373866D01*
X332077969Y-123373866D02*
X332030350Y-123564342D01*
X332030350Y-123564342D02*
X331982731Y-123659580D01*
X331982731Y-123659580D02*
X331935112Y-123707200D01*
X331935112Y-123707200D02*
X331839874Y-123754819D01*
X331839874Y-123754819D02*
X331744636Y-123754819D01*
X331744636Y-123754819D02*
X331649398Y-123707200D01*
X331649398Y-123707200D02*
X331601779Y-123659580D01*
X331601779Y-123659580D02*
X331554160Y-123564342D01*
X331554160Y-123564342D02*
X331506541Y-123373866D01*
X331506541Y-123373866D02*
X331506541Y-123135771D01*
X331506541Y-123135771D02*
X331554160Y-122945295D01*
X331554160Y-122945295D02*
X331601779Y-122850057D01*
X331601779Y-122850057D02*
X331649398Y-122802438D01*
X331649398Y-122802438D02*
X331744636Y-122754819D01*
X301434642Y-165887819D02*
X301101309Y-165411628D01*
X300863214Y-165887819D02*
X300863214Y-164887819D01*
X300863214Y-164887819D02*
X301244166Y-164887819D01*
X301244166Y-164887819D02*
X301339404Y-164935438D01*
X301339404Y-164935438D02*
X301387023Y-164983057D01*
X301387023Y-164983057D02*
X301434642Y-165078295D01*
X301434642Y-165078295D02*
X301434642Y-165221152D01*
X301434642Y-165221152D02*
X301387023Y-165316390D01*
X301387023Y-165316390D02*
X301339404Y-165364009D01*
X301339404Y-165364009D02*
X301244166Y-165411628D01*
X301244166Y-165411628D02*
X300863214Y-165411628D01*
X302387023Y-165887819D02*
X301815595Y-165887819D01*
X302101309Y-165887819D02*
X302101309Y-164887819D01*
X302101309Y-164887819D02*
X302006071Y-165030676D01*
X302006071Y-165030676D02*
X301910833Y-165125914D01*
X301910833Y-165125914D02*
X301815595Y-165173533D01*
X303339404Y-165887819D02*
X302767976Y-165887819D01*
X303053690Y-165887819D02*
X303053690Y-164887819D01*
X303053690Y-164887819D02*
X302958452Y-165030676D01*
X302958452Y-165030676D02*
X302863214Y-165125914D01*
X302863214Y-165125914D02*
X302767976Y-165173533D01*
X381786819Y-102973333D02*
X382501104Y-102973333D01*
X382501104Y-102973333D02*
X382643961Y-103020952D01*
X382643961Y-103020952D02*
X382739200Y-103116190D01*
X382739200Y-103116190D02*
X382786819Y-103259047D01*
X382786819Y-103259047D02*
X382786819Y-103354285D01*
X381786819Y-102592380D02*
X381786819Y-101925714D01*
X381786819Y-101925714D02*
X382786819Y-102354285D01*
X381966819Y-179443333D02*
X382681104Y-179443333D01*
X382681104Y-179443333D02*
X382823961Y-179490952D01*
X382823961Y-179490952D02*
X382919200Y-179586190D01*
X382919200Y-179586190D02*
X382966819Y-179729047D01*
X382966819Y-179729047D02*
X382966819Y-179824285D01*
X382062057Y-179014761D02*
X382014438Y-178967142D01*
X382014438Y-178967142D02*
X381966819Y-178871904D01*
X381966819Y-178871904D02*
X381966819Y-178633809D01*
X381966819Y-178633809D02*
X382014438Y-178538571D01*
X382014438Y-178538571D02*
X382062057Y-178490952D01*
X382062057Y-178490952D02*
X382157295Y-178443333D01*
X382157295Y-178443333D02*
X382252533Y-178443333D01*
X382252533Y-178443333D02*
X382395390Y-178490952D01*
X382395390Y-178490952D02*
X382966819Y-179062380D01*
X382966819Y-179062380D02*
X382966819Y-178443333D01*
X310601779Y-151754819D02*
X310601779Y-150754819D01*
X310601779Y-150754819D02*
X310839874Y-150754819D01*
X310839874Y-150754819D02*
X310982731Y-150802438D01*
X310982731Y-150802438D02*
X311077969Y-150897676D01*
X311077969Y-150897676D02*
X311125588Y-150992914D01*
X311125588Y-150992914D02*
X311173207Y-151183390D01*
X311173207Y-151183390D02*
X311173207Y-151326247D01*
X311173207Y-151326247D02*
X311125588Y-151516723D01*
X311125588Y-151516723D02*
X311077969Y-151611961D01*
X311077969Y-151611961D02*
X310982731Y-151707200D01*
X310982731Y-151707200D02*
X310839874Y-151754819D01*
X310839874Y-151754819D02*
X310601779Y-151754819D01*
X312125588Y-151754819D02*
X311554160Y-151754819D01*
X311839874Y-151754819D02*
X311839874Y-150754819D01*
X311839874Y-150754819D02*
X311744636Y-150897676D01*
X311744636Y-150897676D02*
X311649398Y-150992914D01*
X311649398Y-150992914D02*
X311554160Y-151040533D01*
X312458922Y-150754819D02*
X313125588Y-150754819D01*
X313125588Y-150754819D02*
X312697017Y-151754819D01*
X302363333Y-101031819D02*
X302030000Y-100555628D01*
X301791905Y-101031819D02*
X301791905Y-100031819D01*
X301791905Y-100031819D02*
X302172857Y-100031819D01*
X302172857Y-100031819D02*
X302268095Y-100079438D01*
X302268095Y-100079438D02*
X302315714Y-100127057D01*
X302315714Y-100127057D02*
X302363333Y-100222295D01*
X302363333Y-100222295D02*
X302363333Y-100365152D01*
X302363333Y-100365152D02*
X302315714Y-100460390D01*
X302315714Y-100460390D02*
X302268095Y-100508009D01*
X302268095Y-100508009D02*
X302172857Y-100555628D01*
X302172857Y-100555628D02*
X301791905Y-100555628D01*
X302744286Y-100127057D02*
X302791905Y-100079438D01*
X302791905Y-100079438D02*
X302887143Y-100031819D01*
X302887143Y-100031819D02*
X303125238Y-100031819D01*
X303125238Y-100031819D02*
X303220476Y-100079438D01*
X303220476Y-100079438D02*
X303268095Y-100127057D01*
X303268095Y-100127057D02*
X303315714Y-100222295D01*
X303315714Y-100222295D02*
X303315714Y-100317533D01*
X303315714Y-100317533D02*
X303268095Y-100460390D01*
X303268095Y-100460390D02*
X302696667Y-101031819D01*
X302696667Y-101031819D02*
X303315714Y-101031819D01*
X301397142Y-157004819D02*
X301063809Y-156528628D01*
X300825714Y-157004819D02*
X300825714Y-156004819D01*
X300825714Y-156004819D02*
X301206666Y-156004819D01*
X301206666Y-156004819D02*
X301301904Y-156052438D01*
X301301904Y-156052438D02*
X301349523Y-156100057D01*
X301349523Y-156100057D02*
X301397142Y-156195295D01*
X301397142Y-156195295D02*
X301397142Y-156338152D01*
X301397142Y-156338152D02*
X301349523Y-156433390D01*
X301349523Y-156433390D02*
X301301904Y-156481009D01*
X301301904Y-156481009D02*
X301206666Y-156528628D01*
X301206666Y-156528628D02*
X300825714Y-156528628D01*
X302349523Y-157004819D02*
X301778095Y-157004819D01*
X302063809Y-157004819D02*
X302063809Y-156004819D01*
X302063809Y-156004819D02*
X301968571Y-156147676D01*
X301968571Y-156147676D02*
X301873333Y-156242914D01*
X301873333Y-156242914D02*
X301778095Y-156290533D01*
X302968571Y-156004819D02*
X303063809Y-156004819D01*
X303063809Y-156004819D02*
X303159047Y-156052438D01*
X303159047Y-156052438D02*
X303206666Y-156100057D01*
X303206666Y-156100057D02*
X303254285Y-156195295D01*
X303254285Y-156195295D02*
X303301904Y-156385771D01*
X303301904Y-156385771D02*
X303301904Y-156623866D01*
X303301904Y-156623866D02*
X303254285Y-156814342D01*
X303254285Y-156814342D02*
X303206666Y-156909580D01*
X303206666Y-156909580D02*
X303159047Y-156957200D01*
X303159047Y-156957200D02*
X303063809Y-157004819D01*
X303063809Y-157004819D02*
X302968571Y-157004819D01*
X302968571Y-157004819D02*
X302873333Y-156957200D01*
X302873333Y-156957200D02*
X302825714Y-156909580D01*
X302825714Y-156909580D02*
X302778095Y-156814342D01*
X302778095Y-156814342D02*
X302730476Y-156623866D01*
X302730476Y-156623866D02*
X302730476Y-156385771D01*
X302730476Y-156385771D02*
X302778095Y-156195295D01*
X302778095Y-156195295D02*
X302825714Y-156100057D01*
X302825714Y-156100057D02*
X302873333Y-156052438D01*
X302873333Y-156052438D02*
X302968571Y-156004819D01*
X381906819Y-173453333D02*
X382621104Y-173453333D01*
X382621104Y-173453333D02*
X382763961Y-173500952D01*
X382763961Y-173500952D02*
X382859200Y-173596190D01*
X382859200Y-173596190D02*
X382906819Y-173739047D01*
X382906819Y-173739047D02*
X382906819Y-173834285D01*
X381906819Y-173072380D02*
X381906819Y-172453333D01*
X381906819Y-172453333D02*
X382287771Y-172786666D01*
X382287771Y-172786666D02*
X382287771Y-172643809D01*
X382287771Y-172643809D02*
X382335390Y-172548571D01*
X382335390Y-172548571D02*
X382383009Y-172500952D01*
X382383009Y-172500952D02*
X382478247Y-172453333D01*
X382478247Y-172453333D02*
X382716342Y-172453333D01*
X382716342Y-172453333D02*
X382811580Y-172500952D01*
X382811580Y-172500952D02*
X382859200Y-172548571D01*
X382859200Y-172548571D02*
X382906819Y-172643809D01*
X382906819Y-172643809D02*
X382906819Y-172929523D01*
X382906819Y-172929523D02*
X382859200Y-173024761D01*
X382859200Y-173024761D02*
X382811580Y-173072380D01*
X310601779Y-179754819D02*
X310601779Y-178754819D01*
X310601779Y-178754819D02*
X310839874Y-178754819D01*
X310839874Y-178754819D02*
X310982731Y-178802438D01*
X310982731Y-178802438D02*
X311077969Y-178897676D01*
X311077969Y-178897676D02*
X311125588Y-178992914D01*
X311125588Y-178992914D02*
X311173207Y-179183390D01*
X311173207Y-179183390D02*
X311173207Y-179326247D01*
X311173207Y-179326247D02*
X311125588Y-179516723D01*
X311125588Y-179516723D02*
X311077969Y-179611961D01*
X311077969Y-179611961D02*
X310982731Y-179707200D01*
X310982731Y-179707200D02*
X310839874Y-179754819D01*
X310839874Y-179754819D02*
X310601779Y-179754819D01*
X311554160Y-178850057D02*
X311601779Y-178802438D01*
X311601779Y-178802438D02*
X311697017Y-178754819D01*
X311697017Y-178754819D02*
X311935112Y-178754819D01*
X311935112Y-178754819D02*
X312030350Y-178802438D01*
X312030350Y-178802438D02*
X312077969Y-178850057D01*
X312077969Y-178850057D02*
X312125588Y-178945295D01*
X312125588Y-178945295D02*
X312125588Y-179040533D01*
X312125588Y-179040533D02*
X312077969Y-179183390D01*
X312077969Y-179183390D02*
X311506541Y-179754819D01*
X311506541Y-179754819D02*
X312125588Y-179754819D01*
X313030350Y-178754819D02*
X312554160Y-178754819D01*
X312554160Y-178754819D02*
X312506541Y-179231009D01*
X312506541Y-179231009D02*
X312554160Y-179183390D01*
X312554160Y-179183390D02*
X312649398Y-179135771D01*
X312649398Y-179135771D02*
X312887493Y-179135771D01*
X312887493Y-179135771D02*
X312982731Y-179183390D01*
X312982731Y-179183390D02*
X313030350Y-179231009D01*
X313030350Y-179231009D02*
X313077969Y-179326247D01*
X313077969Y-179326247D02*
X313077969Y-179564342D01*
X313077969Y-179564342D02*
X313030350Y-179659580D01*
X313030350Y-179659580D02*
X312982731Y-179707200D01*
X312982731Y-179707200D02*
X312887493Y-179754819D01*
X312887493Y-179754819D02*
X312649398Y-179754819D01*
X312649398Y-179754819D02*
X312554160Y-179707200D01*
X312554160Y-179707200D02*
X312506541Y-179659580D01*
X348601779Y-95754819D02*
X348601779Y-94754819D01*
X348601779Y-94754819D02*
X348839874Y-94754819D01*
X348839874Y-94754819D02*
X348982731Y-94802438D01*
X348982731Y-94802438D02*
X349077969Y-94897676D01*
X349077969Y-94897676D02*
X349125588Y-94992914D01*
X349125588Y-94992914D02*
X349173207Y-95183390D01*
X349173207Y-95183390D02*
X349173207Y-95326247D01*
X349173207Y-95326247D02*
X349125588Y-95516723D01*
X349125588Y-95516723D02*
X349077969Y-95611961D01*
X349077969Y-95611961D02*
X348982731Y-95707200D01*
X348982731Y-95707200D02*
X348839874Y-95754819D01*
X348839874Y-95754819D02*
X348601779Y-95754819D01*
X349554160Y-94850057D02*
X349601779Y-94802438D01*
X349601779Y-94802438D02*
X349697017Y-94754819D01*
X349697017Y-94754819D02*
X349935112Y-94754819D01*
X349935112Y-94754819D02*
X350030350Y-94802438D01*
X350030350Y-94802438D02*
X350077969Y-94850057D01*
X350077969Y-94850057D02*
X350125588Y-94945295D01*
X350125588Y-94945295D02*
X350125588Y-95040533D01*
X350125588Y-95040533D02*
X350077969Y-95183390D01*
X350077969Y-95183390D02*
X349506541Y-95754819D01*
X349506541Y-95754819D02*
X350125588Y-95754819D01*
X301587142Y-179757819D02*
X301253809Y-179281628D01*
X301015714Y-179757819D02*
X301015714Y-178757819D01*
X301015714Y-178757819D02*
X301396666Y-178757819D01*
X301396666Y-178757819D02*
X301491904Y-178805438D01*
X301491904Y-178805438D02*
X301539523Y-178853057D01*
X301539523Y-178853057D02*
X301587142Y-178948295D01*
X301587142Y-178948295D02*
X301587142Y-179091152D01*
X301587142Y-179091152D02*
X301539523Y-179186390D01*
X301539523Y-179186390D02*
X301491904Y-179234009D01*
X301491904Y-179234009D02*
X301396666Y-179281628D01*
X301396666Y-179281628D02*
X301015714Y-179281628D01*
X302539523Y-179757819D02*
X301968095Y-179757819D01*
X302253809Y-179757819D02*
X302253809Y-178757819D01*
X302253809Y-178757819D02*
X302158571Y-178900676D01*
X302158571Y-178900676D02*
X302063333Y-178995914D01*
X302063333Y-178995914D02*
X301968095Y-179043533D01*
X302872857Y-178757819D02*
X303491904Y-178757819D01*
X303491904Y-178757819D02*
X303158571Y-179138771D01*
X303158571Y-179138771D02*
X303301428Y-179138771D01*
X303301428Y-179138771D02*
X303396666Y-179186390D01*
X303396666Y-179186390D02*
X303444285Y-179234009D01*
X303444285Y-179234009D02*
X303491904Y-179329247D01*
X303491904Y-179329247D02*
X303491904Y-179567342D01*
X303491904Y-179567342D02*
X303444285Y-179662580D01*
X303444285Y-179662580D02*
X303396666Y-179710200D01*
X303396666Y-179710200D02*
X303301428Y-179757819D01*
X303301428Y-179757819D02*
X303015714Y-179757819D01*
X303015714Y-179757819D02*
X302920476Y-179710200D01*
X302920476Y-179710200D02*
X302872857Y-179662580D01*
X367601779Y-109754819D02*
X367601779Y-108754819D01*
X367601779Y-108754819D02*
X367839874Y-108754819D01*
X367839874Y-108754819D02*
X367982731Y-108802438D01*
X367982731Y-108802438D02*
X368077969Y-108897676D01*
X368077969Y-108897676D02*
X368125588Y-108992914D01*
X368125588Y-108992914D02*
X368173207Y-109183390D01*
X368173207Y-109183390D02*
X368173207Y-109326247D01*
X368173207Y-109326247D02*
X368125588Y-109516723D01*
X368125588Y-109516723D02*
X368077969Y-109611961D01*
X368077969Y-109611961D02*
X367982731Y-109707200D01*
X367982731Y-109707200D02*
X367839874Y-109754819D01*
X367839874Y-109754819D02*
X367601779Y-109754819D01*
X368744636Y-109183390D02*
X368649398Y-109135771D01*
X368649398Y-109135771D02*
X368601779Y-109088152D01*
X368601779Y-109088152D02*
X368554160Y-108992914D01*
X368554160Y-108992914D02*
X368554160Y-108945295D01*
X368554160Y-108945295D02*
X368601779Y-108850057D01*
X368601779Y-108850057D02*
X368649398Y-108802438D01*
X368649398Y-108802438D02*
X368744636Y-108754819D01*
X368744636Y-108754819D02*
X368935112Y-108754819D01*
X368935112Y-108754819D02*
X369030350Y-108802438D01*
X369030350Y-108802438D02*
X369077969Y-108850057D01*
X369077969Y-108850057D02*
X369125588Y-108945295D01*
X369125588Y-108945295D02*
X369125588Y-108992914D01*
X369125588Y-108992914D02*
X369077969Y-109088152D01*
X369077969Y-109088152D02*
X369030350Y-109135771D01*
X369030350Y-109135771D02*
X368935112Y-109183390D01*
X368935112Y-109183390D02*
X368744636Y-109183390D01*
X368744636Y-109183390D02*
X368649398Y-109231009D01*
X368649398Y-109231009D02*
X368601779Y-109278628D01*
X368601779Y-109278628D02*
X368554160Y-109373866D01*
X368554160Y-109373866D02*
X368554160Y-109564342D01*
X368554160Y-109564342D02*
X368601779Y-109659580D01*
X368601779Y-109659580D02*
X368649398Y-109707200D01*
X368649398Y-109707200D02*
X368744636Y-109754819D01*
X368744636Y-109754819D02*
X368935112Y-109754819D01*
X368935112Y-109754819D02*
X369030350Y-109707200D01*
X369030350Y-109707200D02*
X369077969Y-109659580D01*
X369077969Y-109659580D02*
X369125588Y-109564342D01*
X369125588Y-109564342D02*
X369125588Y-109373866D01*
X369125588Y-109373866D02*
X369077969Y-109278628D01*
X369077969Y-109278628D02*
X369030350Y-109231009D01*
X369030350Y-109231009D02*
X368935112Y-109183390D01*
X291946819Y-183773333D02*
X292661104Y-183773333D01*
X292661104Y-183773333D02*
X292803961Y-183820952D01*
X292803961Y-183820952D02*
X292899200Y-183916190D01*
X292899200Y-183916190D02*
X292946819Y-184059047D01*
X292946819Y-184059047D02*
X292946819Y-184154285D01*
X292280152Y-182868571D02*
X292946819Y-182868571D01*
X291899200Y-183106666D02*
X292613485Y-183344761D01*
X292613485Y-183344761D02*
X292613485Y-182725714D01*
X329601779Y-151754819D02*
X329601779Y-150754819D01*
X329601779Y-150754819D02*
X329839874Y-150754819D01*
X329839874Y-150754819D02*
X329982731Y-150802438D01*
X329982731Y-150802438D02*
X330077969Y-150897676D01*
X330077969Y-150897676D02*
X330125588Y-150992914D01*
X330125588Y-150992914D02*
X330173207Y-151183390D01*
X330173207Y-151183390D02*
X330173207Y-151326247D01*
X330173207Y-151326247D02*
X330125588Y-151516723D01*
X330125588Y-151516723D02*
X330077969Y-151611961D01*
X330077969Y-151611961D02*
X329982731Y-151707200D01*
X329982731Y-151707200D02*
X329839874Y-151754819D01*
X329839874Y-151754819D02*
X329601779Y-151754819D01*
X331125588Y-151754819D02*
X330554160Y-151754819D01*
X330839874Y-151754819D02*
X330839874Y-150754819D01*
X330839874Y-150754819D02*
X330744636Y-150897676D01*
X330744636Y-150897676D02*
X330649398Y-150992914D01*
X330649398Y-150992914D02*
X330554160Y-151040533D01*
X331697017Y-151183390D02*
X331601779Y-151135771D01*
X331601779Y-151135771D02*
X331554160Y-151088152D01*
X331554160Y-151088152D02*
X331506541Y-150992914D01*
X331506541Y-150992914D02*
X331506541Y-150945295D01*
X331506541Y-150945295D02*
X331554160Y-150850057D01*
X331554160Y-150850057D02*
X331601779Y-150802438D01*
X331601779Y-150802438D02*
X331697017Y-150754819D01*
X331697017Y-150754819D02*
X331887493Y-150754819D01*
X331887493Y-150754819D02*
X331982731Y-150802438D01*
X331982731Y-150802438D02*
X332030350Y-150850057D01*
X332030350Y-150850057D02*
X332077969Y-150945295D01*
X332077969Y-150945295D02*
X332077969Y-150992914D01*
X332077969Y-150992914D02*
X332030350Y-151088152D01*
X332030350Y-151088152D02*
X331982731Y-151135771D01*
X331982731Y-151135771D02*
X331887493Y-151183390D01*
X331887493Y-151183390D02*
X331697017Y-151183390D01*
X331697017Y-151183390D02*
X331601779Y-151231009D01*
X331601779Y-151231009D02*
X331554160Y-151278628D01*
X331554160Y-151278628D02*
X331506541Y-151373866D01*
X331506541Y-151373866D02*
X331506541Y-151564342D01*
X331506541Y-151564342D02*
X331554160Y-151659580D01*
X331554160Y-151659580D02*
X331601779Y-151707200D01*
X331601779Y-151707200D02*
X331697017Y-151754819D01*
X331697017Y-151754819D02*
X331887493Y-151754819D01*
X331887493Y-151754819D02*
X331982731Y-151707200D01*
X331982731Y-151707200D02*
X332030350Y-151659580D01*
X332030350Y-151659580D02*
X332077969Y-151564342D01*
X332077969Y-151564342D02*
X332077969Y-151373866D01*
X332077969Y-151373866D02*
X332030350Y-151278628D01*
X332030350Y-151278628D02*
X331982731Y-151231009D01*
X331982731Y-151231009D02*
X331887493Y-151183390D01*
X301910833Y-137947819D02*
X301577500Y-137471628D01*
X301339405Y-137947819D02*
X301339405Y-136947819D01*
X301339405Y-136947819D02*
X301720357Y-136947819D01*
X301720357Y-136947819D02*
X301815595Y-136995438D01*
X301815595Y-136995438D02*
X301863214Y-137043057D01*
X301863214Y-137043057D02*
X301910833Y-137138295D01*
X301910833Y-137138295D02*
X301910833Y-137281152D01*
X301910833Y-137281152D02*
X301863214Y-137376390D01*
X301863214Y-137376390D02*
X301815595Y-137424009D01*
X301815595Y-137424009D02*
X301720357Y-137471628D01*
X301720357Y-137471628D02*
X301339405Y-137471628D01*
X302244167Y-136947819D02*
X302910833Y-136947819D01*
X302910833Y-136947819D02*
X302482262Y-137947819D01*
X348601779Y-179754819D02*
X348601779Y-178754819D01*
X348601779Y-178754819D02*
X348839874Y-178754819D01*
X348839874Y-178754819D02*
X348982731Y-178802438D01*
X348982731Y-178802438D02*
X349077969Y-178897676D01*
X349077969Y-178897676D02*
X349125588Y-178992914D01*
X349125588Y-178992914D02*
X349173207Y-179183390D01*
X349173207Y-179183390D02*
X349173207Y-179326247D01*
X349173207Y-179326247D02*
X349125588Y-179516723D01*
X349125588Y-179516723D02*
X349077969Y-179611961D01*
X349077969Y-179611961D02*
X348982731Y-179707200D01*
X348982731Y-179707200D02*
X348839874Y-179754819D01*
X348839874Y-179754819D02*
X348601779Y-179754819D01*
X349554160Y-178850057D02*
X349601779Y-178802438D01*
X349601779Y-178802438D02*
X349697017Y-178754819D01*
X349697017Y-178754819D02*
X349935112Y-178754819D01*
X349935112Y-178754819D02*
X350030350Y-178802438D01*
X350030350Y-178802438D02*
X350077969Y-178850057D01*
X350077969Y-178850057D02*
X350125588Y-178945295D01*
X350125588Y-178945295D02*
X350125588Y-179040533D01*
X350125588Y-179040533D02*
X350077969Y-179183390D01*
X350077969Y-179183390D02*
X349506541Y-179754819D01*
X349506541Y-179754819D02*
X350125588Y-179754819D01*
X350458922Y-178754819D02*
X351125588Y-178754819D01*
X351125588Y-178754819D02*
X350697017Y-179754819D01*
X348601779Y-151754819D02*
X348601779Y-150754819D01*
X348601779Y-150754819D02*
X348839874Y-150754819D01*
X348839874Y-150754819D02*
X348982731Y-150802438D01*
X348982731Y-150802438D02*
X349077969Y-150897676D01*
X349077969Y-150897676D02*
X349125588Y-150992914D01*
X349125588Y-150992914D02*
X349173207Y-151183390D01*
X349173207Y-151183390D02*
X349173207Y-151326247D01*
X349173207Y-151326247D02*
X349125588Y-151516723D01*
X349125588Y-151516723D02*
X349077969Y-151611961D01*
X349077969Y-151611961D02*
X348982731Y-151707200D01*
X348982731Y-151707200D02*
X348839874Y-151754819D01*
X348839874Y-151754819D02*
X348601779Y-151754819D01*
X350125588Y-151754819D02*
X349554160Y-151754819D01*
X349839874Y-151754819D02*
X349839874Y-150754819D01*
X349839874Y-150754819D02*
X349744636Y-150897676D01*
X349744636Y-150897676D02*
X349649398Y-150992914D01*
X349649398Y-150992914D02*
X349554160Y-151040533D01*
X350601779Y-151754819D02*
X350792255Y-151754819D01*
X350792255Y-151754819D02*
X350887493Y-151707200D01*
X350887493Y-151707200D02*
X350935112Y-151659580D01*
X350935112Y-151659580D02*
X351030350Y-151516723D01*
X351030350Y-151516723D02*
X351077969Y-151326247D01*
X351077969Y-151326247D02*
X351077969Y-150945295D01*
X351077969Y-150945295D02*
X351030350Y-150850057D01*
X351030350Y-150850057D02*
X350982731Y-150802438D01*
X350982731Y-150802438D02*
X350887493Y-150754819D01*
X350887493Y-150754819D02*
X350697017Y-150754819D01*
X350697017Y-150754819D02*
X350601779Y-150802438D01*
X350601779Y-150802438D02*
X350554160Y-150850057D01*
X350554160Y-150850057D02*
X350506541Y-150945295D01*
X350506541Y-150945295D02*
X350506541Y-151183390D01*
X350506541Y-151183390D02*
X350554160Y-151278628D01*
X350554160Y-151278628D02*
X350601779Y-151326247D01*
X350601779Y-151326247D02*
X350697017Y-151373866D01*
X350697017Y-151373866D02*
X350887493Y-151373866D01*
X350887493Y-151373866D02*
X350982731Y-151326247D01*
X350982731Y-151326247D02*
X351030350Y-151278628D01*
X351030350Y-151278628D02*
X351077969Y-151183390D01*
X302223333Y-129144819D02*
X301890000Y-128668628D01*
X301651905Y-129144819D02*
X301651905Y-128144819D01*
X301651905Y-128144819D02*
X302032857Y-128144819D01*
X302032857Y-128144819D02*
X302128095Y-128192438D01*
X302128095Y-128192438D02*
X302175714Y-128240057D01*
X302175714Y-128240057D02*
X302223333Y-128335295D01*
X302223333Y-128335295D02*
X302223333Y-128478152D01*
X302223333Y-128478152D02*
X302175714Y-128573390D01*
X302175714Y-128573390D02*
X302128095Y-128621009D01*
X302128095Y-128621009D02*
X302032857Y-128668628D01*
X302032857Y-128668628D02*
X301651905Y-128668628D01*
X303080476Y-128144819D02*
X302890000Y-128144819D01*
X302890000Y-128144819D02*
X302794762Y-128192438D01*
X302794762Y-128192438D02*
X302747143Y-128240057D01*
X302747143Y-128240057D02*
X302651905Y-128382914D01*
X302651905Y-128382914D02*
X302604286Y-128573390D01*
X302604286Y-128573390D02*
X302604286Y-128954342D01*
X302604286Y-128954342D02*
X302651905Y-129049580D01*
X302651905Y-129049580D02*
X302699524Y-129097200D01*
X302699524Y-129097200D02*
X302794762Y-129144819D01*
X302794762Y-129144819D02*
X302985238Y-129144819D01*
X302985238Y-129144819D02*
X303080476Y-129097200D01*
X303080476Y-129097200D02*
X303128095Y-129049580D01*
X303128095Y-129049580D02*
X303175714Y-128954342D01*
X303175714Y-128954342D02*
X303175714Y-128716247D01*
X303175714Y-128716247D02*
X303128095Y-128621009D01*
X303128095Y-128621009D02*
X303080476Y-128573390D01*
X303080476Y-128573390D02*
X302985238Y-128525771D01*
X302985238Y-128525771D02*
X302794762Y-128525771D01*
X302794762Y-128525771D02*
X302699524Y-128573390D01*
X302699524Y-128573390D02*
X302651905Y-128621009D01*
X302651905Y-128621009D02*
X302604286Y-128716247D01*
X367601779Y-95754819D02*
X367601779Y-94754819D01*
X367601779Y-94754819D02*
X367839874Y-94754819D01*
X367839874Y-94754819D02*
X367982731Y-94802438D01*
X367982731Y-94802438D02*
X368077969Y-94897676D01*
X368077969Y-94897676D02*
X368125588Y-94992914D01*
X368125588Y-94992914D02*
X368173207Y-95183390D01*
X368173207Y-95183390D02*
X368173207Y-95326247D01*
X368173207Y-95326247D02*
X368125588Y-95516723D01*
X368125588Y-95516723D02*
X368077969Y-95611961D01*
X368077969Y-95611961D02*
X367982731Y-95707200D01*
X367982731Y-95707200D02*
X367839874Y-95754819D01*
X367839874Y-95754819D02*
X367601779Y-95754819D01*
X369125588Y-95754819D02*
X368554160Y-95754819D01*
X368839874Y-95754819D02*
X368839874Y-94754819D01*
X368839874Y-94754819D02*
X368744636Y-94897676D01*
X368744636Y-94897676D02*
X368649398Y-94992914D01*
X368649398Y-94992914D02*
X368554160Y-95040533D01*
X310601779Y-123754819D02*
X310601779Y-122754819D01*
X310601779Y-122754819D02*
X310839874Y-122754819D01*
X310839874Y-122754819D02*
X310982731Y-122802438D01*
X310982731Y-122802438D02*
X311077969Y-122897676D01*
X311077969Y-122897676D02*
X311125588Y-122992914D01*
X311125588Y-122992914D02*
X311173207Y-123183390D01*
X311173207Y-123183390D02*
X311173207Y-123326247D01*
X311173207Y-123326247D02*
X311125588Y-123516723D01*
X311125588Y-123516723D02*
X311077969Y-123611961D01*
X311077969Y-123611961D02*
X310982731Y-123707200D01*
X310982731Y-123707200D02*
X310839874Y-123754819D01*
X310839874Y-123754819D02*
X310601779Y-123754819D01*
X311649398Y-123754819D02*
X311839874Y-123754819D01*
X311839874Y-123754819D02*
X311935112Y-123707200D01*
X311935112Y-123707200D02*
X311982731Y-123659580D01*
X311982731Y-123659580D02*
X312077969Y-123516723D01*
X312077969Y-123516723D02*
X312125588Y-123326247D01*
X312125588Y-123326247D02*
X312125588Y-122945295D01*
X312125588Y-122945295D02*
X312077969Y-122850057D01*
X312077969Y-122850057D02*
X312030350Y-122802438D01*
X312030350Y-122802438D02*
X311935112Y-122754819D01*
X311935112Y-122754819D02*
X311744636Y-122754819D01*
X311744636Y-122754819D02*
X311649398Y-122802438D01*
X311649398Y-122802438D02*
X311601779Y-122850057D01*
X311601779Y-122850057D02*
X311554160Y-122945295D01*
X311554160Y-122945295D02*
X311554160Y-123183390D01*
X311554160Y-123183390D02*
X311601779Y-123278628D01*
X311601779Y-123278628D02*
X311649398Y-123326247D01*
X311649398Y-123326247D02*
X311744636Y-123373866D01*
X311744636Y-123373866D02*
X311935112Y-123373866D01*
X311935112Y-123373866D02*
X312030350Y-123326247D01*
X312030350Y-123326247D02*
X312077969Y-123278628D01*
X312077969Y-123278628D02*
X312125588Y-123183390D01*
X367601779Y-179754819D02*
X367601779Y-178754819D01*
X367601779Y-178754819D02*
X367839874Y-178754819D01*
X367839874Y-178754819D02*
X367982731Y-178802438D01*
X367982731Y-178802438D02*
X368077969Y-178897676D01*
X368077969Y-178897676D02*
X368125588Y-178992914D01*
X368125588Y-178992914D02*
X368173207Y-179183390D01*
X368173207Y-179183390D02*
X368173207Y-179326247D01*
X368173207Y-179326247D02*
X368125588Y-179516723D01*
X368125588Y-179516723D02*
X368077969Y-179611961D01*
X368077969Y-179611961D02*
X367982731Y-179707200D01*
X367982731Y-179707200D02*
X367839874Y-179754819D01*
X367839874Y-179754819D02*
X367601779Y-179754819D01*
X368554160Y-178850057D02*
X368601779Y-178802438D01*
X368601779Y-178802438D02*
X368697017Y-178754819D01*
X368697017Y-178754819D02*
X368935112Y-178754819D01*
X368935112Y-178754819D02*
X369030350Y-178802438D01*
X369030350Y-178802438D02*
X369077969Y-178850057D01*
X369077969Y-178850057D02*
X369125588Y-178945295D01*
X369125588Y-178945295D02*
X369125588Y-179040533D01*
X369125588Y-179040533D02*
X369077969Y-179183390D01*
X369077969Y-179183390D02*
X368506541Y-179754819D01*
X368506541Y-179754819D02*
X369125588Y-179754819D01*
X369697017Y-179183390D02*
X369601779Y-179135771D01*
X369601779Y-179135771D02*
X369554160Y-179088152D01*
X369554160Y-179088152D02*
X369506541Y-178992914D01*
X369506541Y-178992914D02*
X369506541Y-178945295D01*
X369506541Y-178945295D02*
X369554160Y-178850057D01*
X369554160Y-178850057D02*
X369601779Y-178802438D01*
X369601779Y-178802438D02*
X369697017Y-178754819D01*
X369697017Y-178754819D02*
X369887493Y-178754819D01*
X369887493Y-178754819D02*
X369982731Y-178802438D01*
X369982731Y-178802438D02*
X370030350Y-178850057D01*
X370030350Y-178850057D02*
X370077969Y-178945295D01*
X370077969Y-178945295D02*
X370077969Y-178992914D01*
X370077969Y-178992914D02*
X370030350Y-179088152D01*
X370030350Y-179088152D02*
X369982731Y-179135771D01*
X369982731Y-179135771D02*
X369887493Y-179183390D01*
X369887493Y-179183390D02*
X369697017Y-179183390D01*
X369697017Y-179183390D02*
X369601779Y-179231009D01*
X369601779Y-179231009D02*
X369554160Y-179278628D01*
X369554160Y-179278628D02*
X369506541Y-179373866D01*
X369506541Y-179373866D02*
X369506541Y-179564342D01*
X369506541Y-179564342D02*
X369554160Y-179659580D01*
X369554160Y-179659580D02*
X369601779Y-179707200D01*
X369601779Y-179707200D02*
X369697017Y-179754819D01*
X369697017Y-179754819D02*
X369887493Y-179754819D01*
X369887493Y-179754819D02*
X369982731Y-179707200D01*
X369982731Y-179707200D02*
X370030350Y-179659580D01*
X370030350Y-179659580D02*
X370077969Y-179564342D01*
X370077969Y-179564342D02*
X370077969Y-179373866D01*
X370077969Y-179373866D02*
X370030350Y-179278628D01*
X370030350Y-179278628D02*
X369982731Y-179231009D01*
X369982731Y-179231009D02*
X369887493Y-179183390D01*
X348601779Y-109754819D02*
X348601779Y-108754819D01*
X348601779Y-108754819D02*
X348839874Y-108754819D01*
X348839874Y-108754819D02*
X348982731Y-108802438D01*
X348982731Y-108802438D02*
X349077969Y-108897676D01*
X349077969Y-108897676D02*
X349125588Y-108992914D01*
X349125588Y-108992914D02*
X349173207Y-109183390D01*
X349173207Y-109183390D02*
X349173207Y-109326247D01*
X349173207Y-109326247D02*
X349125588Y-109516723D01*
X349125588Y-109516723D02*
X349077969Y-109611961D01*
X349077969Y-109611961D02*
X348982731Y-109707200D01*
X348982731Y-109707200D02*
X348839874Y-109754819D01*
X348839874Y-109754819D02*
X348601779Y-109754819D01*
X349506541Y-108754819D02*
X350173207Y-108754819D01*
X350173207Y-108754819D02*
X349744636Y-109754819D01*
X329601779Y-179754819D02*
X329601779Y-178754819D01*
X329601779Y-178754819D02*
X329839874Y-178754819D01*
X329839874Y-178754819D02*
X329982731Y-178802438D01*
X329982731Y-178802438D02*
X330077969Y-178897676D01*
X330077969Y-178897676D02*
X330125588Y-178992914D01*
X330125588Y-178992914D02*
X330173207Y-179183390D01*
X330173207Y-179183390D02*
X330173207Y-179326247D01*
X330173207Y-179326247D02*
X330125588Y-179516723D01*
X330125588Y-179516723D02*
X330077969Y-179611961D01*
X330077969Y-179611961D02*
X329982731Y-179707200D01*
X329982731Y-179707200D02*
X329839874Y-179754819D01*
X329839874Y-179754819D02*
X329601779Y-179754819D01*
X330554160Y-178850057D02*
X330601779Y-178802438D01*
X330601779Y-178802438D02*
X330697017Y-178754819D01*
X330697017Y-178754819D02*
X330935112Y-178754819D01*
X330935112Y-178754819D02*
X331030350Y-178802438D01*
X331030350Y-178802438D02*
X331077969Y-178850057D01*
X331077969Y-178850057D02*
X331125588Y-178945295D01*
X331125588Y-178945295D02*
X331125588Y-179040533D01*
X331125588Y-179040533D02*
X331077969Y-179183390D01*
X331077969Y-179183390D02*
X330506541Y-179754819D01*
X330506541Y-179754819D02*
X331125588Y-179754819D01*
X331982731Y-178754819D02*
X331792255Y-178754819D01*
X331792255Y-178754819D02*
X331697017Y-178802438D01*
X331697017Y-178802438D02*
X331649398Y-178850057D01*
X331649398Y-178850057D02*
X331554160Y-178992914D01*
X331554160Y-178992914D02*
X331506541Y-179183390D01*
X331506541Y-179183390D02*
X331506541Y-179564342D01*
X331506541Y-179564342D02*
X331554160Y-179659580D01*
X331554160Y-179659580D02*
X331601779Y-179707200D01*
X331601779Y-179707200D02*
X331697017Y-179754819D01*
X331697017Y-179754819D02*
X331887493Y-179754819D01*
X331887493Y-179754819D02*
X331982731Y-179707200D01*
X331982731Y-179707200D02*
X332030350Y-179659580D01*
X332030350Y-179659580D02*
X332077969Y-179564342D01*
X332077969Y-179564342D02*
X332077969Y-179326247D01*
X332077969Y-179326247D02*
X332030350Y-179231009D01*
X332030350Y-179231009D02*
X331982731Y-179183390D01*
X331982731Y-179183390D02*
X331887493Y-179135771D01*
X331887493Y-179135771D02*
X331697017Y-179135771D01*
X331697017Y-179135771D02*
X331601779Y-179183390D01*
X331601779Y-179183390D02*
X331554160Y-179231009D01*
X331554160Y-179231009D02*
X331506541Y-179326247D01*
X302403333Y-114941819D02*
X302070000Y-114465628D01*
X301831905Y-114941819D02*
X301831905Y-113941819D01*
X301831905Y-113941819D02*
X302212857Y-113941819D01*
X302212857Y-113941819D02*
X302308095Y-113989438D01*
X302308095Y-113989438D02*
X302355714Y-114037057D01*
X302355714Y-114037057D02*
X302403333Y-114132295D01*
X302403333Y-114132295D02*
X302403333Y-114275152D01*
X302403333Y-114275152D02*
X302355714Y-114370390D01*
X302355714Y-114370390D02*
X302308095Y-114418009D01*
X302308095Y-114418009D02*
X302212857Y-114465628D01*
X302212857Y-114465628D02*
X301831905Y-114465628D01*
X303260476Y-114275152D02*
X303260476Y-114941819D01*
X303022381Y-113894200D02*
X302784286Y-114608485D01*
X302784286Y-114608485D02*
X303403333Y-114608485D01*
X329601779Y-165754819D02*
X329601779Y-164754819D01*
X329601779Y-164754819D02*
X329839874Y-164754819D01*
X329839874Y-164754819D02*
X329982731Y-164802438D01*
X329982731Y-164802438D02*
X330077969Y-164897676D01*
X330077969Y-164897676D02*
X330125588Y-164992914D01*
X330125588Y-164992914D02*
X330173207Y-165183390D01*
X330173207Y-165183390D02*
X330173207Y-165326247D01*
X330173207Y-165326247D02*
X330125588Y-165516723D01*
X330125588Y-165516723D02*
X330077969Y-165611961D01*
X330077969Y-165611961D02*
X329982731Y-165707200D01*
X329982731Y-165707200D02*
X329839874Y-165754819D01*
X329839874Y-165754819D02*
X329601779Y-165754819D01*
X330554160Y-164850057D02*
X330601779Y-164802438D01*
X330601779Y-164802438D02*
X330697017Y-164754819D01*
X330697017Y-164754819D02*
X330935112Y-164754819D01*
X330935112Y-164754819D02*
X331030350Y-164802438D01*
X331030350Y-164802438D02*
X331077969Y-164850057D01*
X331077969Y-164850057D02*
X331125588Y-164945295D01*
X331125588Y-164945295D02*
X331125588Y-165040533D01*
X331125588Y-165040533D02*
X331077969Y-165183390D01*
X331077969Y-165183390D02*
X330506541Y-165754819D01*
X330506541Y-165754819D02*
X331125588Y-165754819D01*
X331506541Y-164850057D02*
X331554160Y-164802438D01*
X331554160Y-164802438D02*
X331649398Y-164754819D01*
X331649398Y-164754819D02*
X331887493Y-164754819D01*
X331887493Y-164754819D02*
X331982731Y-164802438D01*
X331982731Y-164802438D02*
X332030350Y-164850057D01*
X332030350Y-164850057D02*
X332077969Y-164945295D01*
X332077969Y-164945295D02*
X332077969Y-165040533D01*
X332077969Y-165040533D02*
X332030350Y-165183390D01*
X332030350Y-165183390D02*
X331458922Y-165754819D01*
X331458922Y-165754819D02*
X332077969Y-165754819D01*
X302223333Y-123807819D02*
X301890000Y-123331628D01*
X301651905Y-123807819D02*
X301651905Y-122807819D01*
X301651905Y-122807819D02*
X302032857Y-122807819D01*
X302032857Y-122807819D02*
X302128095Y-122855438D01*
X302128095Y-122855438D02*
X302175714Y-122903057D01*
X302175714Y-122903057D02*
X302223333Y-122998295D01*
X302223333Y-122998295D02*
X302223333Y-123141152D01*
X302223333Y-123141152D02*
X302175714Y-123236390D01*
X302175714Y-123236390D02*
X302128095Y-123284009D01*
X302128095Y-123284009D02*
X302032857Y-123331628D01*
X302032857Y-123331628D02*
X301651905Y-123331628D01*
X303128095Y-122807819D02*
X302651905Y-122807819D01*
X302651905Y-122807819D02*
X302604286Y-123284009D01*
X302604286Y-123284009D02*
X302651905Y-123236390D01*
X302651905Y-123236390D02*
X302747143Y-123188771D01*
X302747143Y-123188771D02*
X302985238Y-123188771D01*
X302985238Y-123188771D02*
X303080476Y-123236390D01*
X303080476Y-123236390D02*
X303128095Y-123284009D01*
X303128095Y-123284009D02*
X303175714Y-123379247D01*
X303175714Y-123379247D02*
X303175714Y-123617342D01*
X303175714Y-123617342D02*
X303128095Y-123712580D01*
X303128095Y-123712580D02*
X303080476Y-123760200D01*
X303080476Y-123760200D02*
X302985238Y-123807819D01*
X302985238Y-123807819D02*
X302747143Y-123807819D01*
X302747143Y-123807819D02*
X302651905Y-123760200D01*
X302651905Y-123760200D02*
X302604286Y-123712580D01*
X291946819Y-177723333D02*
X292661104Y-177723333D01*
X292661104Y-177723333D02*
X292803961Y-177770952D01*
X292803961Y-177770952D02*
X292899200Y-177866190D01*
X292899200Y-177866190D02*
X292946819Y-178009047D01*
X292946819Y-178009047D02*
X292946819Y-178104285D01*
X291946819Y-176818571D02*
X291946819Y-177009047D01*
X291946819Y-177009047D02*
X291994438Y-177104285D01*
X291994438Y-177104285D02*
X292042057Y-177151904D01*
X292042057Y-177151904D02*
X292184914Y-177247142D01*
X292184914Y-177247142D02*
X292375390Y-177294761D01*
X292375390Y-177294761D02*
X292756342Y-177294761D01*
X292756342Y-177294761D02*
X292851580Y-177247142D01*
X292851580Y-177247142D02*
X292899200Y-177199523D01*
X292899200Y-177199523D02*
X292946819Y-177104285D01*
X292946819Y-177104285D02*
X292946819Y-176913809D01*
X292946819Y-176913809D02*
X292899200Y-176818571D01*
X292899200Y-176818571D02*
X292851580Y-176770952D01*
X292851580Y-176770952D02*
X292756342Y-176723333D01*
X292756342Y-176723333D02*
X292518247Y-176723333D01*
X292518247Y-176723333D02*
X292423009Y-176770952D01*
X292423009Y-176770952D02*
X292375390Y-176818571D01*
X292375390Y-176818571D02*
X292327771Y-176913809D01*
X292327771Y-176913809D02*
X292327771Y-177104285D01*
X292327771Y-177104285D02*
X292375390Y-177199523D01*
X292375390Y-177199523D02*
X292423009Y-177247142D01*
X292423009Y-177247142D02*
X292518247Y-177294761D01*
X310601779Y-95754819D02*
X310601779Y-94754819D01*
X310601779Y-94754819D02*
X310839874Y-94754819D01*
X310839874Y-94754819D02*
X310982731Y-94802438D01*
X310982731Y-94802438D02*
X311077969Y-94897676D01*
X311077969Y-94897676D02*
X311125588Y-94992914D01*
X311125588Y-94992914D02*
X311173207Y-95183390D01*
X311173207Y-95183390D02*
X311173207Y-95326247D01*
X311173207Y-95326247D02*
X311125588Y-95516723D01*
X311125588Y-95516723D02*
X311077969Y-95611961D01*
X311077969Y-95611961D02*
X310982731Y-95707200D01*
X310982731Y-95707200D02*
X310839874Y-95754819D01*
X310839874Y-95754819D02*
X310601779Y-95754819D01*
X312030350Y-95088152D02*
X312030350Y-95754819D01*
X311792255Y-94707200D02*
X311554160Y-95421485D01*
X311554160Y-95421485D02*
X312173207Y-95421485D01*
X301434642Y-171224819D02*
X301101309Y-170748628D01*
X300863214Y-171224819D02*
X300863214Y-170224819D01*
X300863214Y-170224819D02*
X301244166Y-170224819D01*
X301244166Y-170224819D02*
X301339404Y-170272438D01*
X301339404Y-170272438D02*
X301387023Y-170320057D01*
X301387023Y-170320057D02*
X301434642Y-170415295D01*
X301434642Y-170415295D02*
X301434642Y-170558152D01*
X301434642Y-170558152D02*
X301387023Y-170653390D01*
X301387023Y-170653390D02*
X301339404Y-170701009D01*
X301339404Y-170701009D02*
X301244166Y-170748628D01*
X301244166Y-170748628D02*
X300863214Y-170748628D01*
X302387023Y-171224819D02*
X301815595Y-171224819D01*
X302101309Y-171224819D02*
X302101309Y-170224819D01*
X302101309Y-170224819D02*
X302006071Y-170367676D01*
X302006071Y-170367676D02*
X301910833Y-170462914D01*
X301910833Y-170462914D02*
X301815595Y-170510533D01*
X302767976Y-170320057D02*
X302815595Y-170272438D01*
X302815595Y-170272438D02*
X302910833Y-170224819D01*
X302910833Y-170224819D02*
X303148928Y-170224819D01*
X303148928Y-170224819D02*
X303244166Y-170272438D01*
X303244166Y-170272438D02*
X303291785Y-170320057D01*
X303291785Y-170320057D02*
X303339404Y-170415295D01*
X303339404Y-170415295D02*
X303339404Y-170510533D01*
X303339404Y-170510533D02*
X303291785Y-170653390D01*
X303291785Y-170653390D02*
X302720357Y-171224819D01*
X302720357Y-171224819D02*
X303339404Y-171224819D01*
X310601779Y-165754819D02*
X310601779Y-164754819D01*
X310601779Y-164754819D02*
X310839874Y-164754819D01*
X310839874Y-164754819D02*
X310982731Y-164802438D01*
X310982731Y-164802438D02*
X311077969Y-164897676D01*
X311077969Y-164897676D02*
X311125588Y-164992914D01*
X311125588Y-164992914D02*
X311173207Y-165183390D01*
X311173207Y-165183390D02*
X311173207Y-165326247D01*
X311173207Y-165326247D02*
X311125588Y-165516723D01*
X311125588Y-165516723D02*
X311077969Y-165611961D01*
X311077969Y-165611961D02*
X310982731Y-165707200D01*
X310982731Y-165707200D02*
X310839874Y-165754819D01*
X310839874Y-165754819D02*
X310601779Y-165754819D01*
X311554160Y-164850057D02*
X311601779Y-164802438D01*
X311601779Y-164802438D02*
X311697017Y-164754819D01*
X311697017Y-164754819D02*
X311935112Y-164754819D01*
X311935112Y-164754819D02*
X312030350Y-164802438D01*
X312030350Y-164802438D02*
X312077969Y-164850057D01*
X312077969Y-164850057D02*
X312125588Y-164945295D01*
X312125588Y-164945295D02*
X312125588Y-165040533D01*
X312125588Y-165040533D02*
X312077969Y-165183390D01*
X312077969Y-165183390D02*
X311506541Y-165754819D01*
X311506541Y-165754819D02*
X312125588Y-165754819D01*
X313077969Y-165754819D02*
X312506541Y-165754819D01*
X312792255Y-165754819D02*
X312792255Y-164754819D01*
X312792255Y-164754819D02*
X312697017Y-164897676D01*
X312697017Y-164897676D02*
X312601779Y-164992914D01*
X312601779Y-164992914D02*
X312506541Y-165040533D01*
X292246819Y-98563333D02*
X292961104Y-98563333D01*
X292961104Y-98563333D02*
X293103961Y-98610952D01*
X293103961Y-98610952D02*
X293199200Y-98706190D01*
X293199200Y-98706190D02*
X293246819Y-98849047D01*
X293246819Y-98849047D02*
X293246819Y-98944285D01*
X293246819Y-97563333D02*
X293246819Y-98134761D01*
X293246819Y-97849047D02*
X292246819Y-97849047D01*
X292246819Y-97849047D02*
X292389676Y-97944285D01*
X292389676Y-97944285D02*
X292484914Y-98039523D01*
X292484914Y-98039523D02*
X292532533Y-98134761D01*
X301873333Y-151667819D02*
X301540000Y-151191628D01*
X301301905Y-151667819D02*
X301301905Y-150667819D01*
X301301905Y-150667819D02*
X301682857Y-150667819D01*
X301682857Y-150667819D02*
X301778095Y-150715438D01*
X301778095Y-150715438D02*
X301825714Y-150763057D01*
X301825714Y-150763057D02*
X301873333Y-150858295D01*
X301873333Y-150858295D02*
X301873333Y-151001152D01*
X301873333Y-151001152D02*
X301825714Y-151096390D01*
X301825714Y-151096390D02*
X301778095Y-151144009D01*
X301778095Y-151144009D02*
X301682857Y-151191628D01*
X301682857Y-151191628D02*
X301301905Y-151191628D01*
X302349524Y-151667819D02*
X302540000Y-151667819D01*
X302540000Y-151667819D02*
X302635238Y-151620200D01*
X302635238Y-151620200D02*
X302682857Y-151572580D01*
X302682857Y-151572580D02*
X302778095Y-151429723D01*
X302778095Y-151429723D02*
X302825714Y-151239247D01*
X302825714Y-151239247D02*
X302825714Y-150858295D01*
X302825714Y-150858295D02*
X302778095Y-150763057D01*
X302778095Y-150763057D02*
X302730476Y-150715438D01*
X302730476Y-150715438D02*
X302635238Y-150667819D01*
X302635238Y-150667819D02*
X302444762Y-150667819D01*
X302444762Y-150667819D02*
X302349524Y-150715438D01*
X302349524Y-150715438D02*
X302301905Y-150763057D01*
X302301905Y-150763057D02*
X302254286Y-150858295D01*
X302254286Y-150858295D02*
X302254286Y-151096390D01*
X302254286Y-151096390D02*
X302301905Y-151191628D01*
X302301905Y-151191628D02*
X302349524Y-151239247D01*
X302349524Y-151239247D02*
X302444762Y-151286866D01*
X302444762Y-151286866D02*
X302635238Y-151286866D01*
X302635238Y-151286866D02*
X302730476Y-151239247D01*
X302730476Y-151239247D02*
X302778095Y-151191628D01*
X302778095Y-151191628D02*
X302825714Y-151096390D01*
X310601779Y-137754819D02*
X310601779Y-136754819D01*
X310601779Y-136754819D02*
X310839874Y-136754819D01*
X310839874Y-136754819D02*
X310982731Y-136802438D01*
X310982731Y-136802438D02*
X311077969Y-136897676D01*
X311077969Y-136897676D02*
X311125588Y-136992914D01*
X311125588Y-136992914D02*
X311173207Y-137183390D01*
X311173207Y-137183390D02*
X311173207Y-137326247D01*
X311173207Y-137326247D02*
X311125588Y-137516723D01*
X311125588Y-137516723D02*
X311077969Y-137611961D01*
X311077969Y-137611961D02*
X310982731Y-137707200D01*
X310982731Y-137707200D02*
X310839874Y-137754819D01*
X310839874Y-137754819D02*
X310601779Y-137754819D01*
X312125588Y-137754819D02*
X311554160Y-137754819D01*
X311839874Y-137754819D02*
X311839874Y-136754819D01*
X311839874Y-136754819D02*
X311744636Y-136897676D01*
X311744636Y-136897676D02*
X311649398Y-136992914D01*
X311649398Y-136992914D02*
X311554160Y-137040533D01*
X312458922Y-136754819D02*
X313077969Y-136754819D01*
X313077969Y-136754819D02*
X312744636Y-137135771D01*
X312744636Y-137135771D02*
X312887493Y-137135771D01*
X312887493Y-137135771D02*
X312982731Y-137183390D01*
X312982731Y-137183390D02*
X313030350Y-137231009D01*
X313030350Y-137231009D02*
X313077969Y-137326247D01*
X313077969Y-137326247D02*
X313077969Y-137564342D01*
X313077969Y-137564342D02*
X313030350Y-137659580D01*
X313030350Y-137659580D02*
X312982731Y-137707200D01*
X312982731Y-137707200D02*
X312887493Y-137754819D01*
X312887493Y-137754819D02*
X312601779Y-137754819D01*
X312601779Y-137754819D02*
X312506541Y-137707200D01*
X312506541Y-137707200D02*
X312458922Y-137659580D01*
X302403333Y-109604819D02*
X302070000Y-109128628D01*
X301831905Y-109604819D02*
X301831905Y-108604819D01*
X301831905Y-108604819D02*
X302212857Y-108604819D01*
X302212857Y-108604819D02*
X302308095Y-108652438D01*
X302308095Y-108652438D02*
X302355714Y-108700057D01*
X302355714Y-108700057D02*
X302403333Y-108795295D01*
X302403333Y-108795295D02*
X302403333Y-108938152D01*
X302403333Y-108938152D02*
X302355714Y-109033390D01*
X302355714Y-109033390D02*
X302308095Y-109081009D01*
X302308095Y-109081009D02*
X302212857Y-109128628D01*
X302212857Y-109128628D02*
X301831905Y-109128628D01*
X302736667Y-108604819D02*
X303355714Y-108604819D01*
X303355714Y-108604819D02*
X303022381Y-108985771D01*
X303022381Y-108985771D02*
X303165238Y-108985771D01*
X303165238Y-108985771D02*
X303260476Y-109033390D01*
X303260476Y-109033390D02*
X303308095Y-109081009D01*
X303308095Y-109081009D02*
X303355714Y-109176247D01*
X303355714Y-109176247D02*
X303355714Y-109414342D01*
X303355714Y-109414342D02*
X303308095Y-109509580D01*
X303308095Y-109509580D02*
X303260476Y-109557200D01*
X303260476Y-109557200D02*
X303165238Y-109604819D01*
X303165238Y-109604819D02*
X302879524Y-109604819D01*
X302879524Y-109604819D02*
X302784286Y-109557200D01*
X302784286Y-109557200D02*
X302736667Y-109509580D01*
X367601779Y-151754819D02*
X367601779Y-150754819D01*
X367601779Y-150754819D02*
X367839874Y-150754819D01*
X367839874Y-150754819D02*
X367982731Y-150802438D01*
X367982731Y-150802438D02*
X368077969Y-150897676D01*
X368077969Y-150897676D02*
X368125588Y-150992914D01*
X368125588Y-150992914D02*
X368173207Y-151183390D01*
X368173207Y-151183390D02*
X368173207Y-151326247D01*
X368173207Y-151326247D02*
X368125588Y-151516723D01*
X368125588Y-151516723D02*
X368077969Y-151611961D01*
X368077969Y-151611961D02*
X367982731Y-151707200D01*
X367982731Y-151707200D02*
X367839874Y-151754819D01*
X367839874Y-151754819D02*
X367601779Y-151754819D01*
X368554160Y-150850057D02*
X368601779Y-150802438D01*
X368601779Y-150802438D02*
X368697017Y-150754819D01*
X368697017Y-150754819D02*
X368935112Y-150754819D01*
X368935112Y-150754819D02*
X369030350Y-150802438D01*
X369030350Y-150802438D02*
X369077969Y-150850057D01*
X369077969Y-150850057D02*
X369125588Y-150945295D01*
X369125588Y-150945295D02*
X369125588Y-151040533D01*
X369125588Y-151040533D02*
X369077969Y-151183390D01*
X369077969Y-151183390D02*
X368506541Y-151754819D01*
X368506541Y-151754819D02*
X369125588Y-151754819D01*
X369744636Y-150754819D02*
X369839874Y-150754819D01*
X369839874Y-150754819D02*
X369935112Y-150802438D01*
X369935112Y-150802438D02*
X369982731Y-150850057D01*
X369982731Y-150850057D02*
X370030350Y-150945295D01*
X370030350Y-150945295D02*
X370077969Y-151135771D01*
X370077969Y-151135771D02*
X370077969Y-151373866D01*
X370077969Y-151373866D02*
X370030350Y-151564342D01*
X370030350Y-151564342D02*
X369982731Y-151659580D01*
X369982731Y-151659580D02*
X369935112Y-151707200D01*
X369935112Y-151707200D02*
X369839874Y-151754819D01*
X369839874Y-151754819D02*
X369744636Y-151754819D01*
X369744636Y-151754819D02*
X369649398Y-151707200D01*
X369649398Y-151707200D02*
X369601779Y-151659580D01*
X369601779Y-151659580D02*
X369554160Y-151564342D01*
X369554160Y-151564342D02*
X369506541Y-151373866D01*
X369506541Y-151373866D02*
X369506541Y-151135771D01*
X369506541Y-151135771D02*
X369554160Y-150945295D01*
X369554160Y-150945295D02*
X369601779Y-150850057D01*
X369601779Y-150850057D02*
X369649398Y-150802438D01*
X369649398Y-150802438D02*
X369744636Y-150754819D01*
X348601779Y-123754819D02*
X348601779Y-122754819D01*
X348601779Y-122754819D02*
X348839874Y-122754819D01*
X348839874Y-122754819D02*
X348982731Y-122802438D01*
X348982731Y-122802438D02*
X349077969Y-122897676D01*
X349077969Y-122897676D02*
X349125588Y-122992914D01*
X349125588Y-122992914D02*
X349173207Y-123183390D01*
X349173207Y-123183390D02*
X349173207Y-123326247D01*
X349173207Y-123326247D02*
X349125588Y-123516723D01*
X349125588Y-123516723D02*
X349077969Y-123611961D01*
X349077969Y-123611961D02*
X348982731Y-123707200D01*
X348982731Y-123707200D02*
X348839874Y-123754819D01*
X348839874Y-123754819D02*
X348601779Y-123754819D01*
X350125588Y-123754819D02*
X349554160Y-123754819D01*
X349839874Y-123754819D02*
X349839874Y-122754819D01*
X349839874Y-122754819D02*
X349744636Y-122897676D01*
X349744636Y-122897676D02*
X349649398Y-122992914D01*
X349649398Y-122992914D02*
X349554160Y-123040533D01*
X351077969Y-123754819D02*
X350506541Y-123754819D01*
X350792255Y-123754819D02*
X350792255Y-122754819D01*
X350792255Y-122754819D02*
X350697017Y-122897676D01*
X350697017Y-122897676D02*
X350601779Y-122992914D01*
X350601779Y-122992914D02*
X350506541Y-123040533D01*
X367601779Y-165754819D02*
X367601779Y-164754819D01*
X367601779Y-164754819D02*
X367839874Y-164754819D01*
X367839874Y-164754819D02*
X367982731Y-164802438D01*
X367982731Y-164802438D02*
X368077969Y-164897676D01*
X368077969Y-164897676D02*
X368125588Y-164992914D01*
X368125588Y-164992914D02*
X368173207Y-165183390D01*
X368173207Y-165183390D02*
X368173207Y-165326247D01*
X368173207Y-165326247D02*
X368125588Y-165516723D01*
X368125588Y-165516723D02*
X368077969Y-165611961D01*
X368077969Y-165611961D02*
X367982731Y-165707200D01*
X367982731Y-165707200D02*
X367839874Y-165754819D01*
X367839874Y-165754819D02*
X367601779Y-165754819D01*
X368554160Y-164850057D02*
X368601779Y-164802438D01*
X368601779Y-164802438D02*
X368697017Y-164754819D01*
X368697017Y-164754819D02*
X368935112Y-164754819D01*
X368935112Y-164754819D02*
X369030350Y-164802438D01*
X369030350Y-164802438D02*
X369077969Y-164850057D01*
X369077969Y-164850057D02*
X369125588Y-164945295D01*
X369125588Y-164945295D02*
X369125588Y-165040533D01*
X369125588Y-165040533D02*
X369077969Y-165183390D01*
X369077969Y-165183390D02*
X368506541Y-165754819D01*
X368506541Y-165754819D02*
X369125588Y-165754819D01*
X369982731Y-165088152D02*
X369982731Y-165754819D01*
X369744636Y-164707200D02*
X369506541Y-165421485D01*
X369506541Y-165421485D02*
X370125588Y-165421485D01*
D11*
%TO.C,J8*%
X293360000Y-102780000D02*
X297760000Y-102780000D01*
X293360000Y-107180000D02*
X293360000Y-102780000D01*
X297760000Y-102780000D02*
X297760000Y-107180000D01*
X297760000Y-107180000D02*
X293360000Y-107180000D01*
D12*
%TO.C,D15*%
X344515000Y-143200000D02*
G75*
G02*
X344265000Y-143200000I-125000J0D01*
G01*
X344265000Y-143200000D02*
G75*
G02*
X344515000Y-143200000I125000J0D01*
G01*
D10*
X357315000Y-142100000D02*
G75*
G02*
X349065000Y-142100000I-4125000J0D01*
G01*
X349065000Y-142100000D02*
G75*
G02*
X357315000Y-142100000I4125000J0D01*
G01*
D11*
%TO.C,R1*%
X301802936Y-96150000D02*
X303257064Y-96150000D01*
X301802936Y-97970000D02*
X303257064Y-97970000D01*
D12*
%TO.C,D6*%
X325515000Y-115200000D02*
G75*
G02*
X325265000Y-115200000I-125000J0D01*
G01*
X325265000Y-115200000D02*
G75*
G02*
X325515000Y-115200000I125000J0D01*
G01*
D10*
X338315000Y-114100000D02*
G75*
G02*
X330065000Y-114100000I-4125000J0D01*
G01*
X330065000Y-114100000D02*
G75*
G02*
X338315000Y-114100000I4125000J0D01*
G01*
D12*
%TO.C,D5*%
X306515000Y-115200000D02*
G75*
G02*
X306265000Y-115200000I-125000J0D01*
G01*
X306265000Y-115200000D02*
G75*
G02*
X306515000Y-115200000I125000J0D01*
G01*
D10*
X319315000Y-114100000D02*
G75*
G02*
X311065000Y-114100000I-4125000J0D01*
G01*
X311065000Y-114100000D02*
G75*
G02*
X319315000Y-114100000I4125000J0D01*
G01*
D12*
%TO.C,D12*%
X363515000Y-129200000D02*
G75*
G02*
X363265000Y-129200000I-125000J0D01*
G01*
X363265000Y-129200000D02*
G75*
G02*
X363515000Y-129200000I125000J0D01*
G01*
D10*
X376315000Y-128100000D02*
G75*
G02*
X368065000Y-128100000I-4125000J0D01*
G01*
X368065000Y-128100000D02*
G75*
G02*
X376315000Y-128100000I4125000J0D01*
G01*
D11*
%TO.C,J5*%
X383030000Y-106490000D02*
X387430000Y-106490000D01*
X383030000Y-110890000D02*
X383030000Y-106490000D01*
X387430000Y-106490000D02*
X387430000Y-110890000D01*
X387430000Y-110890000D02*
X383030000Y-110890000D01*
%TO.C,R14*%
X301502936Y-185550000D02*
X302957064Y-185550000D01*
X301502936Y-187370000D02*
X302957064Y-187370000D01*
D12*
%TO.C,D16*%
X363515000Y-143200000D02*
G75*
G02*
X363265000Y-143200000I-125000J0D01*
G01*
X363265000Y-143200000D02*
G75*
G02*
X363515000Y-143200000I125000J0D01*
G01*
D10*
X376315000Y-142100000D02*
G75*
G02*
X368065000Y-142100000I-4125000J0D01*
G01*
X368065000Y-142100000D02*
G75*
G02*
X376315000Y-142100000I4125000J0D01*
G01*
D12*
%TO.C,D23*%
X344515000Y-171200000D02*
G75*
G02*
X344265000Y-171200000I-125000J0D01*
G01*
X344265000Y-171200000D02*
G75*
G02*
X344515000Y-171200000I125000J0D01*
G01*
D10*
X357315000Y-170100000D02*
G75*
G02*
X349065000Y-170100000I-4125000J0D01*
G01*
X349065000Y-170100000D02*
G75*
G02*
X357315000Y-170100000I4125000J0D01*
G01*
D11*
%TO.C,R8*%
X301350436Y-143740000D02*
X302804564Y-143740000D01*
X301350436Y-145560000D02*
X302804564Y-145560000D01*
D12*
%TO.C,D3*%
X325515000Y-101200000D02*
G75*
G02*
X325265000Y-101200000I-125000J0D01*
G01*
X325265000Y-101200000D02*
G75*
G02*
X325515000Y-101200000I125000J0D01*
G01*
D10*
X338315000Y-100100000D02*
G75*
G02*
X330065000Y-100100000I-4125000J0D01*
G01*
X330065000Y-100100000D02*
G75*
G02*
X338315000Y-100100000I4125000J0D01*
G01*
D12*
%TO.C,D14*%
X325515000Y-143200000D02*
G75*
G02*
X325265000Y-143200000I-125000J0D01*
G01*
X325265000Y-143200000D02*
G75*
G02*
X325515000Y-143200000I125000J0D01*
G01*
D10*
X338315000Y-142100000D02*
G75*
G02*
X330065000Y-142100000I-4125000J0D01*
G01*
X330065000Y-142100000D02*
G75*
G02*
X338315000Y-142100000I4125000J0D01*
G01*
D12*
%TO.C,D10*%
X325515000Y-129200000D02*
G75*
G02*
X325265000Y-129200000I-125000J0D01*
G01*
X325265000Y-129200000D02*
G75*
G02*
X325515000Y-129200000I125000J0D01*
G01*
D10*
X338315000Y-128100000D02*
G75*
G02*
X330065000Y-128100000I-4125000J0D01*
G01*
X330065000Y-128100000D02*
G75*
G02*
X338315000Y-128100000I4125000J0D01*
G01*
D11*
%TO.C,R11*%
X301350436Y-166343000D02*
X302804564Y-166343000D01*
X301350436Y-168163000D02*
X302804564Y-168163000D01*
%TO.C,J7*%
X383030000Y-100440000D02*
X387430000Y-100440000D01*
X383030000Y-104840000D02*
X383030000Y-100440000D01*
X387430000Y-100440000D02*
X387430000Y-104840000D01*
X387430000Y-104840000D02*
X383030000Y-104840000D01*
%TO.C,J2*%
X383210000Y-176910000D02*
X387610000Y-176910000D01*
X383210000Y-181310000D02*
X383210000Y-176910000D01*
X387610000Y-176910000D02*
X387610000Y-181310000D01*
X387610000Y-181310000D02*
X383210000Y-181310000D01*
D12*
%TO.C,D17*%
X306515000Y-157200000D02*
G75*
G02*
X306265000Y-157200000I-125000J0D01*
G01*
X306265000Y-157200000D02*
G75*
G02*
X306515000Y-157200000I125000J0D01*
G01*
D10*
X319315000Y-156100000D02*
G75*
G02*
X311065000Y-156100000I-4125000J0D01*
G01*
X311065000Y-156100000D02*
G75*
G02*
X319315000Y-156100000I4125000J0D01*
G01*
D11*
%TO.C,R2*%
X301802936Y-101487000D02*
X303257064Y-101487000D01*
X301802936Y-103307000D02*
X303257064Y-103307000D01*
%TO.C,R10*%
X301312936Y-157460000D02*
X302767064Y-157460000D01*
X301312936Y-159280000D02*
X302767064Y-159280000D01*
%TO.C,J3*%
X383150000Y-170920000D02*
X387550000Y-170920000D01*
X383150000Y-175320000D02*
X383150000Y-170920000D01*
X387550000Y-170920000D02*
X387550000Y-175320000D01*
X387550000Y-175320000D02*
X383150000Y-175320000D01*
D12*
%TO.C,D25*%
X306515000Y-185200000D02*
G75*
G02*
X306265000Y-185200000I-125000J0D01*
G01*
X306265000Y-185200000D02*
G75*
G02*
X306515000Y-185200000I125000J0D01*
G01*
D10*
X319315000Y-184100000D02*
G75*
G02*
X311065000Y-184100000I-4125000J0D01*
G01*
X311065000Y-184100000D02*
G75*
G02*
X319315000Y-184100000I4125000J0D01*
G01*
D12*
%TO.C,D2*%
X344515000Y-101200000D02*
G75*
G02*
X344265000Y-101200000I-125000J0D01*
G01*
X344265000Y-101200000D02*
G75*
G02*
X344515000Y-101200000I125000J0D01*
G01*
D10*
X357315000Y-100100000D02*
G75*
G02*
X349065000Y-100100000I-4125000J0D01*
G01*
X349065000Y-100100000D02*
G75*
G02*
X357315000Y-100100000I4125000J0D01*
G01*
D11*
%TO.C,R13*%
X301502936Y-180213000D02*
X302957064Y-180213000D01*
X301502936Y-182033000D02*
X302957064Y-182033000D01*
D12*
%TO.C,D8*%
X363515000Y-115200000D02*
G75*
G02*
X363265000Y-115200000I-125000J0D01*
G01*
X363265000Y-115200000D02*
G75*
G02*
X363515000Y-115200000I125000J0D01*
G01*
D10*
X376315000Y-114100000D02*
G75*
G02*
X368065000Y-114100000I-4125000J0D01*
G01*
X368065000Y-114100000D02*
G75*
G02*
X376315000Y-114100000I4125000J0D01*
G01*
D11*
%TO.C,J4*%
X293190000Y-181240000D02*
X297590000Y-181240000D01*
X293190000Y-185640000D02*
X293190000Y-181240000D01*
X297590000Y-181240000D02*
X297590000Y-185640000D01*
X297590000Y-185640000D02*
X293190000Y-185640000D01*
D12*
%TO.C,D18*%
X325515000Y-157200000D02*
G75*
G02*
X325265000Y-157200000I-125000J0D01*
G01*
X325265000Y-157200000D02*
G75*
G02*
X325515000Y-157200000I125000J0D01*
G01*
D10*
X338315000Y-156100000D02*
G75*
G02*
X330065000Y-156100000I-4125000J0D01*
G01*
X330065000Y-156100000D02*
G75*
G02*
X338315000Y-156100000I4125000J0D01*
G01*
D11*
%TO.C,R7*%
X301350436Y-138403000D02*
X302804564Y-138403000D01*
X301350436Y-140223000D02*
X302804564Y-140223000D01*
D12*
%TO.C,D27*%
X344515000Y-185200000D02*
G75*
G02*
X344265000Y-185200000I-125000J0D01*
G01*
X344265000Y-185200000D02*
G75*
G02*
X344515000Y-185200000I125000J0D01*
G01*
D10*
X357315000Y-184100000D02*
G75*
G02*
X349065000Y-184100000I-4125000J0D01*
G01*
X349065000Y-184100000D02*
G75*
G02*
X357315000Y-184100000I4125000J0D01*
G01*
D12*
%TO.C,D19*%
X344515000Y-157200000D02*
G75*
G02*
X344265000Y-157200000I-125000J0D01*
G01*
X344265000Y-157200000D02*
G75*
G02*
X344515000Y-157200000I125000J0D01*
G01*
D10*
X357315000Y-156100000D02*
G75*
G02*
X349065000Y-156100000I-4125000J0D01*
G01*
X349065000Y-156100000D02*
G75*
G02*
X357315000Y-156100000I4125000J0D01*
G01*
D11*
%TO.C,R6*%
X301662936Y-129600000D02*
X303117064Y-129600000D01*
X301662936Y-131420000D02*
X303117064Y-131420000D01*
D12*
%TO.C,D1*%
X363515000Y-101200000D02*
G75*
G02*
X363265000Y-101200000I-125000J0D01*
G01*
X363265000Y-101200000D02*
G75*
G02*
X363515000Y-101200000I125000J0D01*
G01*
D10*
X376315000Y-100100000D02*
G75*
G02*
X368065000Y-100100000I-4125000J0D01*
G01*
X368065000Y-100100000D02*
G75*
G02*
X376315000Y-100100000I4125000J0D01*
G01*
D12*
%TO.C,D9*%
X306515000Y-129200000D02*
G75*
G02*
X306265000Y-129200000I-125000J0D01*
G01*
X306265000Y-129200000D02*
G75*
G02*
X306515000Y-129200000I125000J0D01*
G01*
D10*
X319315000Y-128100000D02*
G75*
G02*
X311065000Y-128100000I-4125000J0D01*
G01*
X311065000Y-128100000D02*
G75*
G02*
X319315000Y-128100000I4125000J0D01*
G01*
D12*
%TO.C,D28*%
X363515000Y-185200000D02*
G75*
G02*
X363265000Y-185200000I-125000J0D01*
G01*
X363265000Y-185200000D02*
G75*
G02*
X363515000Y-185200000I125000J0D01*
G01*
D10*
X376315000Y-184100000D02*
G75*
G02*
X368065000Y-184100000I-4125000J0D01*
G01*
X368065000Y-184100000D02*
G75*
G02*
X376315000Y-184100000I4125000J0D01*
G01*
D12*
%TO.C,D7*%
X344515000Y-115200000D02*
G75*
G02*
X344265000Y-115200000I-125000J0D01*
G01*
X344265000Y-115200000D02*
G75*
G02*
X344515000Y-115200000I125000J0D01*
G01*
D10*
X357315000Y-114100000D02*
G75*
G02*
X349065000Y-114100000I-4125000J0D01*
G01*
X349065000Y-114100000D02*
G75*
G02*
X357315000Y-114100000I4125000J0D01*
G01*
D12*
%TO.C,D26*%
X325515000Y-185200000D02*
G75*
G02*
X325265000Y-185200000I-125000J0D01*
G01*
X325265000Y-185200000D02*
G75*
G02*
X325515000Y-185200000I125000J0D01*
G01*
D10*
X338315000Y-184100000D02*
G75*
G02*
X330065000Y-184100000I-4125000J0D01*
G01*
X330065000Y-184100000D02*
G75*
G02*
X338315000Y-184100000I4125000J0D01*
G01*
D11*
%TO.C,R4*%
X301842936Y-115397000D02*
X303297064Y-115397000D01*
X301842936Y-117217000D02*
X303297064Y-117217000D01*
D12*
%TO.C,D22*%
X325515000Y-171200000D02*
G75*
G02*
X325265000Y-171200000I-125000J0D01*
G01*
X325265000Y-171200000D02*
G75*
G02*
X325515000Y-171200000I125000J0D01*
G01*
D10*
X338315000Y-170100000D02*
G75*
G02*
X330065000Y-170100000I-4125000J0D01*
G01*
X330065000Y-170100000D02*
G75*
G02*
X338315000Y-170100000I4125000J0D01*
G01*
D11*
%TO.C,R5*%
X301662936Y-124263000D02*
X303117064Y-124263000D01*
X301662936Y-126083000D02*
X303117064Y-126083000D01*
%TO.C,J6*%
X293190000Y-175190000D02*
X297590000Y-175190000D01*
X293190000Y-179590000D02*
X293190000Y-175190000D01*
X297590000Y-175190000D02*
X297590000Y-179590000D01*
X297590000Y-179590000D02*
X293190000Y-179590000D01*
D12*
%TO.C,D4*%
X306515000Y-101200000D02*
G75*
G02*
X306265000Y-101200000I-125000J0D01*
G01*
X306265000Y-101200000D02*
G75*
G02*
X306515000Y-101200000I125000J0D01*
G01*
D10*
X319315000Y-100100000D02*
G75*
G02*
X311065000Y-100100000I-4125000J0D01*
G01*
X311065000Y-100100000D02*
G75*
G02*
X319315000Y-100100000I4125000J0D01*
G01*
D11*
%TO.C,R12*%
X301350436Y-171680000D02*
X302804564Y-171680000D01*
X301350436Y-173500000D02*
X302804564Y-173500000D01*
D12*
%TO.C,D21*%
X306515000Y-171200000D02*
G75*
G02*
X306265000Y-171200000I-125000J0D01*
G01*
X306265000Y-171200000D02*
G75*
G02*
X306515000Y-171200000I125000J0D01*
G01*
D10*
X319315000Y-170100000D02*
G75*
G02*
X311065000Y-170100000I-4125000J0D01*
G01*
X311065000Y-170100000D02*
G75*
G02*
X319315000Y-170100000I4125000J0D01*
G01*
D11*
%TO.C,J1*%
X293490000Y-96030000D02*
X297890000Y-96030000D01*
X293490000Y-100430000D02*
X293490000Y-96030000D01*
X297890000Y-96030000D02*
X297890000Y-100430000D01*
X297890000Y-100430000D02*
X293490000Y-100430000D01*
%TO.C,R9*%
X301312936Y-152123000D02*
X302767064Y-152123000D01*
X301312936Y-153943000D02*
X302767064Y-153943000D01*
D12*
%TO.C,D13*%
X306515000Y-143200000D02*
G75*
G02*
X306265000Y-143200000I-125000J0D01*
G01*
X306265000Y-143200000D02*
G75*
G02*
X306515000Y-143200000I125000J0D01*
G01*
D10*
X319315000Y-142100000D02*
G75*
G02*
X311065000Y-142100000I-4125000J0D01*
G01*
X311065000Y-142100000D02*
G75*
G02*
X319315000Y-142100000I4125000J0D01*
G01*
D11*
%TO.C,R3*%
X301842936Y-110060000D02*
X303297064Y-110060000D01*
X301842936Y-111880000D02*
X303297064Y-111880000D01*
D12*
%TO.C,D20*%
X363515000Y-157200000D02*
G75*
G02*
X363265000Y-157200000I-125000J0D01*
G01*
X363265000Y-157200000D02*
G75*
G02*
X363515000Y-157200000I125000J0D01*
G01*
D10*
X376315000Y-156100000D02*
G75*
G02*
X368065000Y-156100000I-4125000J0D01*
G01*
X368065000Y-156100000D02*
G75*
G02*
X376315000Y-156100000I4125000J0D01*
G01*
D12*
%TO.C,D11*%
X344515000Y-129200000D02*
G75*
G02*
X344265000Y-129200000I-125000J0D01*
G01*
X344265000Y-129200000D02*
G75*
G02*
X344515000Y-129200000I125000J0D01*
G01*
D10*
X357315000Y-128100000D02*
G75*
G02*
X349065000Y-128100000I-4125000J0D01*
G01*
X349065000Y-128100000D02*
G75*
G02*
X357315000Y-128100000I4125000J0D01*
G01*
D12*
%TO.C,D24*%
X363515000Y-171200000D02*
G75*
G02*
X363265000Y-171200000I-125000J0D01*
G01*
X363265000Y-171200000D02*
G75*
G02*
X363515000Y-171200000I125000J0D01*
G01*
D10*
X376315000Y-170100000D02*
G75*
G02*
X368065000Y-170100000I-4125000J0D01*
G01*
X368065000Y-170100000D02*
G75*
G02*
X376315000Y-170100000I4125000J0D01*
G01*
%TD*%
M02*
