%TF.GenerationSoftware,KiCad,Pcbnew,8.0.3*%
%TF.CreationDate,2024-06-30T23:13:16-03:00*%
%TF.ProjectId,led aqu_rio,6c656420-6171-475e-9172-696f2e6b6963,rev?*%
%TF.SameCoordinates,Original*%
%TF.FileFunction,Copper,L1,Top*%
%TF.FilePolarity,Positive*%
%FSLAX46Y46*%
G04 Gerber Fmt 4.6, Leading zero omitted, Abs format (unit mm)*
G04 Created by KiCad (PCBNEW 8.0.3) date 2024-06-30 23:13:16*
%MOMM*%
%LPD*%
G01*
G04 APERTURE LIST*
G04 Aperture macros list*
%AMRoundRect*
0 Rectangle with rounded corners*
0 $1 Rounding radius*
0 $2 $3 $4 $5 $6 $7 $8 $9 X,Y pos of 4 corners*
0 Add a 4 corners polygon primitive as box body*
4,1,4,$2,$3,$4,$5,$6,$7,$8,$9,$2,$3,0*
0 Add four circle primitives for the rounded corners*
1,1,$1+$1,$2,$3*
1,1,$1+$1,$4,$5*
1,1,$1+$1,$6,$7*
1,1,$1+$1,$8,$9*
0 Add four rect primitives between the rounded corners*
20,1,$1+$1,$2,$3,$4,$5,0*
20,1,$1+$1,$4,$5,$6,$7,0*
20,1,$1+$1,$6,$7,$8,$9,0*
20,1,$1+$1,$8,$9,$2,$3,0*%
G04 Aperture macros list end*
%TA.AperFunction,Conductor*%
%ADD10C,0.200000*%
%TD*%
%TA.AperFunction,ComponentPad*%
%ADD11R,4.000000X4.000000*%
%TD*%
%TA.AperFunction,SMDPad,CuDef*%
%ADD12R,3.500000X2.100000*%
%TD*%
%TA.AperFunction,SMDPad,CuDef*%
%ADD13C,6.200000*%
%TD*%
%TA.AperFunction,SMDPad,CuDef*%
%ADD14RoundRect,0.250000X-0.312500X-0.625000X0.312500X-0.625000X0.312500X0.625000X-0.312500X0.625000X0*%
%TD*%
%TA.AperFunction,Conductor*%
%ADD15C,4.000000*%
%TD*%
G04 APERTURE END LIST*
%TO.N,+12V*%
D10*
X291160000Y-92140000D02*
X389620000Y-92140000D01*
X389620000Y-192610000D01*
X291160000Y-192610000D01*
X291160000Y-92140000D01*
%TD*%
D11*
%TO.P,J8,1,Pin_1*%
%TO.N,GND*%
X295560000Y-104980000D03*
%TD*%
D12*
%TO.P,D15,1,K*%
%TO.N,Net-(D14-A)*%
X346690000Y-143200000D03*
%TO.P,D15,2,A*%
%TO.N,Net-(D15-A)*%
X359690000Y-141000000D03*
D13*
%TO.P,D15,3*%
%TO.N,N/C*%
X353190000Y-142100000D03*
%TD*%
D14*
%TO.P,R1,1*%
%TO.N,GND*%
X301067500Y-97060000D03*
%TO.P,R1,2*%
%TO.N,Net-(D4-K)*%
X303992500Y-97060000D03*
%TD*%
D12*
%TO.P,D6,1,K*%
%TO.N,Net-(D5-A)*%
X327690000Y-115200000D03*
%TO.P,D6,2,A*%
%TO.N,Net-(D6-A)*%
X340690000Y-113000000D03*
D13*
%TO.P,D6,3*%
%TO.N,N/C*%
X334190000Y-114100000D03*
%TD*%
D12*
%TO.P,D5,1,K*%
%TO.N,Net-(D5-K)*%
X308690000Y-115200000D03*
%TO.P,D5,2,A*%
%TO.N,Net-(D5-A)*%
X321690000Y-113000000D03*
D13*
%TO.P,D5,3*%
%TO.N,N/C*%
X315190000Y-114100000D03*
%TD*%
D12*
%TO.P,D12,1,K*%
%TO.N,Net-(D11-A)*%
X365690000Y-129200000D03*
%TO.P,D12,2,A*%
%TO.N,+12V*%
X378690000Y-127000000D03*
D13*
%TO.P,D12,3*%
%TO.N,N/C*%
X372190000Y-128100000D03*
%TD*%
D11*
%TO.P,J5,1,Pin_1*%
%TO.N,+12V*%
X385230000Y-108690000D03*
%TD*%
D14*
%TO.P,R14,1*%
%TO.N,GND*%
X300767500Y-186460000D03*
%TO.P,R14,2*%
%TO.N,Net-(D25-K)*%
X303692500Y-186460000D03*
%TD*%
D12*
%TO.P,D16,1,K*%
%TO.N,Net-(D15-A)*%
X365690000Y-143200000D03*
%TO.P,D16,2,A*%
%TO.N,+12V*%
X378690000Y-141000000D03*
D13*
%TO.P,D16,3*%
%TO.N,N/C*%
X372190000Y-142100000D03*
%TD*%
D12*
%TO.P,D23,1,K*%
%TO.N,Net-(D22-A)*%
X346690000Y-171200000D03*
%TO.P,D23,2,A*%
%TO.N,Net-(D23-A)*%
X359690000Y-169000000D03*
D13*
%TO.P,D23,3*%
%TO.N,N/C*%
X353190000Y-170100000D03*
%TD*%
D14*
%TO.P,R8,1*%
%TO.N,GND*%
X300615000Y-144650000D03*
%TO.P,R8,2*%
%TO.N,Net-(D13-K)*%
X303540000Y-144650000D03*
%TD*%
D12*
%TO.P,D3,1,K*%
%TO.N,Net-(D3-K)*%
X327690000Y-101200000D03*
%TO.P,D3,2,A*%
%TO.N,Net-(D2-K)*%
X340690000Y-99000000D03*
D13*
%TO.P,D3,3*%
%TO.N,N/C*%
X334190000Y-100100000D03*
%TD*%
D12*
%TO.P,D14,1,K*%
%TO.N,Net-(D13-A)*%
X327690000Y-143200000D03*
%TO.P,D14,2,A*%
%TO.N,Net-(D14-A)*%
X340690000Y-141000000D03*
D13*
%TO.P,D14,3*%
%TO.N,N/C*%
X334190000Y-142100000D03*
%TD*%
D12*
%TO.P,D10,1,K*%
%TO.N,Net-(D10-K)*%
X327690000Y-129200000D03*
%TO.P,D10,2,A*%
%TO.N,Net-(D10-A)*%
X340690000Y-127000000D03*
D13*
%TO.P,D10,3*%
%TO.N,N/C*%
X334190000Y-128100000D03*
%TD*%
D14*
%TO.P,R11,1*%
%TO.N,GND*%
X300615000Y-167253000D03*
%TO.P,R11,2*%
%TO.N,Net-(D21-K)*%
X303540000Y-167253000D03*
%TD*%
D11*
%TO.P,J7,1,Pin_1*%
%TO.N,+12V*%
X385230000Y-102640000D03*
%TD*%
%TO.P,J2,1,Pin_1*%
%TO.N,+12V*%
X385410000Y-179110000D03*
%TD*%
D12*
%TO.P,D17,1,K*%
%TO.N,Net-(D17-K)*%
X308690000Y-157200000D03*
%TO.P,D17,2,A*%
%TO.N,Net-(D17-A)*%
X321690000Y-155000000D03*
D13*
%TO.P,D17,3*%
%TO.N,N/C*%
X315190000Y-156100000D03*
%TD*%
D14*
%TO.P,R2,1*%
%TO.N,GND*%
X301067500Y-102397000D03*
%TO.P,R2,2*%
%TO.N,Net-(D4-K)*%
X303992500Y-102397000D03*
%TD*%
%TO.P,R10,1*%
%TO.N,GND*%
X300577500Y-158370000D03*
%TO.P,R10,2*%
%TO.N,Net-(D17-K)*%
X303502500Y-158370000D03*
%TD*%
D11*
%TO.P,J3,1,Pin_1*%
%TO.N,+12V*%
X385350000Y-173120000D03*
%TD*%
D12*
%TO.P,D25,1,K*%
%TO.N,Net-(D25-K)*%
X308690000Y-185200000D03*
%TO.P,D25,2,A*%
%TO.N,Net-(D25-A)*%
X321690000Y-183000000D03*
D13*
%TO.P,D25,3*%
%TO.N,N/C*%
X315190000Y-184100000D03*
%TD*%
D12*
%TO.P,D2,1,K*%
%TO.N,Net-(D2-K)*%
X346690000Y-101200000D03*
%TO.P,D2,2,A*%
%TO.N,Net-(D1-K)*%
X359690000Y-99000000D03*
D13*
%TO.P,D2,3*%
%TO.N,N/C*%
X353190000Y-100100000D03*
%TD*%
D14*
%TO.P,R13,1*%
%TO.N,GND*%
X300767500Y-181123000D03*
%TO.P,R13,2*%
%TO.N,Net-(D25-K)*%
X303692500Y-181123000D03*
%TD*%
D12*
%TO.P,D8,1,K*%
%TO.N,Net-(D7-A)*%
X365690000Y-115200000D03*
%TO.P,D8,2,A*%
%TO.N,+12V*%
X378690000Y-113000000D03*
D13*
%TO.P,D8,3*%
%TO.N,N/C*%
X372190000Y-114100000D03*
%TD*%
D11*
%TO.P,J4,1,Pin_1*%
%TO.N,GND*%
X295390000Y-183440000D03*
%TD*%
D12*
%TO.P,D18,1,K*%
%TO.N,Net-(D17-A)*%
X327690000Y-157200000D03*
%TO.P,D18,2,A*%
%TO.N,Net-(D18-A)*%
X340690000Y-155000000D03*
D13*
%TO.P,D18,3*%
%TO.N,N/C*%
X334190000Y-156100000D03*
%TD*%
D14*
%TO.P,R7,1*%
%TO.N,GND*%
X300615000Y-139313000D03*
%TO.P,R7,2*%
%TO.N,Net-(D13-K)*%
X303540000Y-139313000D03*
%TD*%
D12*
%TO.P,D27,1,K*%
%TO.N,Net-(D26-A)*%
X346690000Y-185200000D03*
%TO.P,D27,2,A*%
%TO.N,Net-(D27-A)*%
X359690000Y-183000000D03*
D13*
%TO.P,D27,3*%
%TO.N,N/C*%
X353190000Y-184100000D03*
%TD*%
D12*
%TO.P,D19,1,K*%
%TO.N,Net-(D18-A)*%
X346690000Y-157200000D03*
%TO.P,D19,2,A*%
%TO.N,Net-(D19-A)*%
X359690000Y-155000000D03*
D13*
%TO.P,D19,3*%
%TO.N,N/C*%
X353190000Y-156100000D03*
%TD*%
D14*
%TO.P,R6,1*%
%TO.N,GND*%
X300927500Y-130510000D03*
%TO.P,R6,2*%
%TO.N,Net-(D9-K)*%
X303852500Y-130510000D03*
%TD*%
D12*
%TO.P,D1,1,K*%
%TO.N,Net-(D1-K)*%
X365690000Y-101200000D03*
%TO.P,D1,2,A*%
%TO.N,+12V*%
X378690000Y-99000000D03*
D13*
%TO.P,D1,3*%
%TO.N,N/C*%
X372190000Y-100100000D03*
%TD*%
D12*
%TO.P,D9,1,K*%
%TO.N,Net-(D9-K)*%
X308690000Y-129200000D03*
%TO.P,D9,2,A*%
%TO.N,Net-(D10-K)*%
X321690000Y-127000000D03*
D13*
%TO.P,D9,3*%
%TO.N,N/C*%
X315190000Y-128100000D03*
%TD*%
D12*
%TO.P,D28,1,K*%
%TO.N,Net-(D27-A)*%
X365690000Y-185200000D03*
%TO.P,D28,2,A*%
%TO.N,+12V*%
X378690000Y-183000000D03*
D13*
%TO.P,D28,3*%
%TO.N,N/C*%
X372190000Y-184100000D03*
%TD*%
D12*
%TO.P,D7,1,K*%
%TO.N,Net-(D6-A)*%
X346690000Y-115200000D03*
%TO.P,D7,2,A*%
%TO.N,Net-(D7-A)*%
X359690000Y-113000000D03*
D13*
%TO.P,D7,3*%
%TO.N,N/C*%
X353190000Y-114100000D03*
%TD*%
D12*
%TO.P,D26,1,K*%
%TO.N,Net-(D25-A)*%
X327690000Y-185200000D03*
%TO.P,D26,2,A*%
%TO.N,Net-(D26-A)*%
X340690000Y-183000000D03*
D13*
%TO.P,D26,3*%
%TO.N,N/C*%
X334190000Y-184100000D03*
%TD*%
D14*
%TO.P,R4,1*%
%TO.N,GND*%
X301107500Y-116307000D03*
%TO.P,R4,2*%
%TO.N,Net-(D5-K)*%
X304032500Y-116307000D03*
%TD*%
D12*
%TO.P,D22,1,K*%
%TO.N,Net-(D21-A)*%
X327690000Y-171200000D03*
%TO.P,D22,2,A*%
%TO.N,Net-(D22-A)*%
X340690000Y-169000000D03*
D13*
%TO.P,D22,3*%
%TO.N,N/C*%
X334190000Y-170100000D03*
%TD*%
D14*
%TO.P,R5,1*%
%TO.N,GND*%
X300927500Y-125173000D03*
%TO.P,R5,2*%
%TO.N,Net-(D9-K)*%
X303852500Y-125173000D03*
%TD*%
D11*
%TO.P,J6,1,Pin_1*%
%TO.N,GND*%
X295390000Y-177390000D03*
%TD*%
D12*
%TO.P,D4,1,K*%
%TO.N,Net-(D4-K)*%
X308690000Y-101200000D03*
%TO.P,D4,2,A*%
%TO.N,Net-(D3-K)*%
X321690000Y-99000000D03*
D13*
%TO.P,D4,3*%
%TO.N,N/C*%
X315190000Y-100100000D03*
%TD*%
D14*
%TO.P,R12,1*%
%TO.N,GND*%
X300615000Y-172590000D03*
%TO.P,R12,2*%
%TO.N,Net-(D21-K)*%
X303540000Y-172590000D03*
%TD*%
D12*
%TO.P,D21,1,K*%
%TO.N,Net-(D21-K)*%
X308690000Y-171200000D03*
%TO.P,D21,2,A*%
%TO.N,Net-(D21-A)*%
X321690000Y-169000000D03*
D13*
%TO.P,D21,3*%
%TO.N,N/C*%
X315190000Y-170100000D03*
%TD*%
D11*
%TO.P,J1,1,Pin_1*%
%TO.N,GND*%
X295690000Y-98230000D03*
%TD*%
D14*
%TO.P,R9,1*%
%TO.N,GND*%
X300577500Y-153033000D03*
%TO.P,R9,2*%
%TO.N,Net-(D17-K)*%
X303502500Y-153033000D03*
%TD*%
D12*
%TO.P,D13,1,K*%
%TO.N,Net-(D13-K)*%
X308690000Y-143200000D03*
%TO.P,D13,2,A*%
%TO.N,Net-(D13-A)*%
X321690000Y-141000000D03*
D13*
%TO.P,D13,3*%
%TO.N,N/C*%
X315190000Y-142100000D03*
%TD*%
D14*
%TO.P,R3,1*%
%TO.N,GND*%
X301107500Y-110970000D03*
%TO.P,R3,2*%
%TO.N,Net-(D5-K)*%
X304032500Y-110970000D03*
%TD*%
D12*
%TO.P,D20,1,K*%
%TO.N,Net-(D19-A)*%
X365690000Y-157200000D03*
%TO.P,D20,2,A*%
%TO.N,+12V*%
X378690000Y-155000000D03*
D13*
%TO.P,D20,3*%
%TO.N,N/C*%
X372190000Y-156100000D03*
%TD*%
D12*
%TO.P,D11,1,K*%
%TO.N,Net-(D10-A)*%
X346690000Y-129200000D03*
%TO.P,D11,2,A*%
%TO.N,Net-(D11-A)*%
X359690000Y-127000000D03*
D13*
%TO.P,D11,3*%
%TO.N,N/C*%
X353190000Y-128100000D03*
%TD*%
D12*
%TO.P,D24,1,K*%
%TO.N,Net-(D23-A)*%
X365690000Y-171200000D03*
%TO.P,D24,2,A*%
%TO.N,+12V*%
X378690000Y-169000000D03*
D13*
%TO.P,D24,3*%
%TO.N,N/C*%
X372190000Y-170100000D03*
%TD*%
D15*
%TO.N,Net-(D13-K)*%
X305177500Y-143200000D02*
X305177500Y-144650000D01*
X308690000Y-143200000D02*
X305177500Y-143200000D01*
X307620000Y-143200000D02*
X307620000Y-143557500D01*
%TO.N,Net-(D1-K)*%
X365690000Y-101200000D02*
X361890000Y-101200000D01*
X361890000Y-101200000D02*
X359690000Y-99000000D01*
%TO.N,Net-(D2-K)*%
X346690000Y-101200000D02*
X342890000Y-101200000D01*
X342890000Y-101200000D02*
X340690000Y-99000000D01*
%TO.N,Net-(D5-A)*%
X323890000Y-115200000D02*
X321690000Y-113000000D01*
X327690000Y-115200000D02*
X323890000Y-115200000D01*
%TO.N,Net-(D7-A)*%
X365690000Y-115200000D02*
X361890000Y-115200000D01*
X361890000Y-115200000D02*
X359690000Y-113000000D01*
%TO.N,Net-(D5-K)*%
X304670000Y-111607500D02*
X304670000Y-110970000D01*
X308690000Y-115200000D02*
X308262500Y-115200000D01*
X305960000Y-115200000D02*
X304670000Y-116490000D01*
X308262500Y-115200000D02*
X304670000Y-111607500D01*
X304670000Y-116490000D02*
X304670000Y-116307000D01*
X308690000Y-115200000D02*
X305960000Y-115200000D01*
%TO.N,Net-(D10-A)*%
X342890000Y-129200000D02*
X340690000Y-127000000D01*
X346690000Y-129200000D02*
X342890000Y-129200000D01*
%TO.N,Net-(D11-A)*%
X361890000Y-129200000D02*
X359690000Y-127000000D01*
X365690000Y-129200000D02*
X361890000Y-129200000D01*
%TO.N,Net-(D13-A)*%
X327690000Y-143200000D02*
X323890000Y-143200000D01*
X323890000Y-143200000D02*
X321690000Y-141000000D01*
%TO.N,Net-(D14-A)*%
X346690000Y-143200000D02*
X342890000Y-143200000D01*
X342890000Y-143200000D02*
X340690000Y-141000000D01*
%TO.N,Net-(D6-A)*%
X346690000Y-115200000D02*
X342890000Y-115200000D01*
X342890000Y-115200000D02*
X340690000Y-113000000D01*
%TO.N,Net-(D17-A)*%
X323890000Y-157200000D02*
X321690000Y-155000000D01*
X327690000Y-157200000D02*
X323890000Y-157200000D01*
%TO.N,Net-(D19-A)*%
X365690000Y-157200000D02*
X361890000Y-157200000D01*
X361890000Y-157200000D02*
X359690000Y-155000000D01*
%TO.N,Net-(D22-A)*%
X342890000Y-171200000D02*
X340690000Y-169000000D01*
X346690000Y-171200000D02*
X342890000Y-171200000D01*
%TO.N,Net-(D23-A)*%
X361890000Y-171200000D02*
X359690000Y-169000000D01*
X365690000Y-171200000D02*
X361890000Y-171200000D01*
%TO.N,Net-(D3-K)*%
X323890000Y-101200000D02*
X321690000Y-99000000D01*
X327690000Y-101200000D02*
X323890000Y-101200000D01*
%TO.N,Net-(D4-K)*%
X307800000Y-100310000D02*
X306500000Y-100310000D01*
X308690000Y-101200000D02*
X304630000Y-97140000D01*
X304630000Y-102180000D02*
X304630000Y-102397000D01*
X306500000Y-100310000D02*
X304630000Y-102180000D01*
X304630000Y-97140000D02*
X304630000Y-97060000D01*
X308690000Y-101200000D02*
X307800000Y-100310000D01*
%TO.N,Net-(D9-K)*%
X304490000Y-125760000D02*
X304490000Y-125173000D01*
X308690000Y-129200000D02*
X306210000Y-129200000D01*
X306210000Y-129200000D02*
X304490000Y-130920000D01*
X304490000Y-130920000D02*
X304490000Y-130510000D01*
X307930000Y-129200000D02*
X304490000Y-125760000D01*
X308690000Y-129200000D02*
X307930000Y-129200000D01*
%TO.N,Net-(D10-K)*%
X323890000Y-129200000D02*
X321690000Y-127000000D01*
X327690000Y-129200000D02*
X323890000Y-129200000D01*
%TO.N,Net-(D13-K)*%
X304177500Y-139757500D02*
X304177500Y-139313000D01*
X307620000Y-143200000D02*
X304177500Y-139757500D01*
X308690000Y-143200000D02*
X307620000Y-143200000D01*
%TO.N,Net-(D15-A)*%
X361890000Y-143200000D02*
X359690000Y-141000000D01*
X365690000Y-143200000D02*
X361890000Y-143200000D01*
%TO.N,Net-(D17-K)*%
X308690000Y-157200000D02*
X305400000Y-157200000D01*
X308690000Y-157200000D02*
X308680000Y-157200000D01*
X305400000Y-157200000D02*
X304140000Y-158460000D01*
X304140000Y-158460000D02*
X304140000Y-158370000D01*
X308680000Y-157200000D02*
X304140000Y-152660000D01*
X304140000Y-152660000D02*
X304140000Y-153033000D01*
%TO.N,Net-(D18-A)*%
X342890000Y-157200000D02*
X340690000Y-155000000D01*
X346690000Y-157200000D02*
X342890000Y-157200000D01*
%TO.N,Net-(D21-K)*%
X304177500Y-172022500D02*
X304177500Y-172590000D01*
X306640000Y-171200000D02*
X304177500Y-168737500D01*
X305000000Y-171200000D02*
X304177500Y-172022500D01*
X308690000Y-171200000D02*
X305000000Y-171200000D01*
X304177500Y-168737500D02*
X304177500Y-167253000D01*
X308690000Y-171200000D02*
X306640000Y-171200000D01*
%TO.N,Net-(D21-A)*%
X323890000Y-171200000D02*
X321690000Y-169000000D01*
X327690000Y-171200000D02*
X323890000Y-171200000D01*
%TO.N,Net-(D25-K)*%
X304330000Y-186270000D02*
X304330000Y-186460000D01*
X308690000Y-185200000D02*
X305400000Y-185200000D01*
X304330000Y-181510000D02*
X304330000Y-181123000D01*
X305400000Y-185200000D02*
X304330000Y-186270000D01*
X308690000Y-185200000D02*
X308020000Y-185200000D01*
X308020000Y-185200000D02*
X304330000Y-181510000D01*
%TO.N,Net-(D25-A)*%
X327690000Y-185200000D02*
X323890000Y-185200000D01*
X323890000Y-185200000D02*
X321690000Y-183000000D01*
%TO.N,Net-(D26-A)*%
X342890000Y-185200000D02*
X340690000Y-183000000D01*
X346690000Y-185200000D02*
X342890000Y-185200000D01*
%TO.N,Net-(D27-A)*%
X361890000Y-185200000D02*
X359690000Y-183000000D01*
X365690000Y-185200000D02*
X361890000Y-185200000D01*
%TD*%
%TA.AperFunction,Conductor*%
%TO.N,GND*%
G36*
X301580258Y-94276819D02*
G01*
X301616577Y-94364500D01*
X301580258Y-94452181D01*
X301238541Y-94793897D01*
X301238540Y-94793898D01*
X300629500Y-96264249D01*
X300629500Y-97935750D01*
X301238540Y-99406101D01*
X301404758Y-99572319D01*
X301441077Y-99660000D01*
X301404758Y-99747681D01*
X301238541Y-99913897D01*
X301238540Y-99913898D01*
X300629500Y-101384249D01*
X300629500Y-103192750D01*
X301103469Y-104337010D01*
X301238540Y-104663101D01*
X302363899Y-105788460D01*
X303834251Y-106397500D01*
X303834253Y-106397500D01*
X305425747Y-106397500D01*
X305425749Y-106397500D01*
X306896101Y-105788460D01*
X307545616Y-105138943D01*
X307633296Y-105102625D01*
X307680745Y-105112063D01*
X307894251Y-105200500D01*
X307894253Y-105200500D01*
X309485747Y-105200500D01*
X309485749Y-105200500D01*
X310956101Y-104591460D01*
X311595182Y-103952377D01*
X311682862Y-103916059D01*
X311751753Y-103936957D01*
X312232377Y-104258099D01*
X313199884Y-104904566D01*
X313199885Y-104904566D01*
X313199886Y-104904567D01*
X315189998Y-105300425D01*
X315190000Y-105300425D01*
X315190002Y-105300425D01*
X317180113Y-104904567D01*
X317180113Y-104904566D01*
X317180116Y-104904566D01*
X318867256Y-103777256D01*
X319561345Y-102738475D01*
X319640254Y-102685751D01*
X319733336Y-102704266D01*
X319752126Y-102719687D01*
X320498540Y-103466101D01*
X321623899Y-104591460D01*
X323094251Y-105200500D01*
X323094253Y-105200500D01*
X328485747Y-105200500D01*
X328485749Y-105200500D01*
X329956101Y-104591460D01*
X330595182Y-103952377D01*
X330682862Y-103916059D01*
X330751753Y-103936957D01*
X331232377Y-104258099D01*
X332199884Y-104904566D01*
X332199885Y-104904566D01*
X332199886Y-104904567D01*
X334189998Y-105300425D01*
X334190000Y-105300425D01*
X334190002Y-105300425D01*
X336180113Y-104904567D01*
X336180113Y-104904566D01*
X336180116Y-104904566D01*
X337867256Y-103777256D01*
X338561345Y-102738475D01*
X338640254Y-102685751D01*
X338733336Y-102704266D01*
X338752126Y-102719687D01*
X340623899Y-104591460D01*
X342094251Y-105200500D01*
X342094253Y-105200500D01*
X347485747Y-105200500D01*
X347485749Y-105200500D01*
X348956101Y-104591460D01*
X349595182Y-103952377D01*
X349682862Y-103916059D01*
X349751753Y-103936957D01*
X350232377Y-104258099D01*
X351199884Y-104904566D01*
X351199885Y-104904566D01*
X351199886Y-104904567D01*
X353189998Y-105300425D01*
X353190000Y-105300425D01*
X353190002Y-105300425D01*
X355180113Y-104904567D01*
X355180113Y-104904566D01*
X355180116Y-104904566D01*
X356867256Y-103777256D01*
X357561345Y-102738475D01*
X357640254Y-102685751D01*
X357733336Y-102704266D01*
X357752126Y-102719687D01*
X359623899Y-104591460D01*
X361094251Y-105200500D01*
X361094253Y-105200500D01*
X366485747Y-105200500D01*
X366485749Y-105200500D01*
X367956101Y-104591460D01*
X368595182Y-103952377D01*
X368682862Y-103916059D01*
X368751753Y-103936957D01*
X368944849Y-104065979D01*
X369232378Y-104258100D01*
X369285104Y-104337010D01*
X369287484Y-104360313D01*
X369326544Y-109811809D01*
X369290854Y-109899748D01*
X369271438Y-109915799D01*
X368512744Y-110422744D01*
X367723379Y-111604111D01*
X367644468Y-111656837D01*
X367572824Y-111649781D01*
X366485750Y-111199500D01*
X366485749Y-111199500D01*
X363598423Y-111199500D01*
X363510742Y-111163181D01*
X362945283Y-110597722D01*
X362929862Y-110578932D01*
X362882280Y-110507720D01*
X362882277Y-110507717D01*
X362811066Y-110460136D01*
X362792276Y-110444715D01*
X361956101Y-109608540D01*
X360485750Y-108999500D01*
X360485749Y-108999500D01*
X358894251Y-108999500D01*
X358894249Y-108999500D01*
X357423898Y-109608540D01*
X357423897Y-109608541D01*
X356784817Y-110247620D01*
X356697136Y-110283939D01*
X356628245Y-110263041D01*
X355610605Y-109583077D01*
X355180116Y-109295434D01*
X355180115Y-109295433D01*
X355180114Y-109295433D01*
X355180113Y-109295432D01*
X353190002Y-108899575D01*
X353189998Y-108899575D01*
X351199886Y-109295432D01*
X351199885Y-109295433D01*
X349512744Y-110422744D01*
X348723379Y-111604111D01*
X348644468Y-111656837D01*
X348572824Y-111649781D01*
X347485750Y-111199500D01*
X347485749Y-111199500D01*
X344598423Y-111199500D01*
X344510742Y-111163181D01*
X343945283Y-110597722D01*
X343929862Y-110578932D01*
X343882280Y-110507720D01*
X343882277Y-110507717D01*
X343811066Y-110460136D01*
X343792276Y-110444715D01*
X342956101Y-109608540D01*
X341485750Y-108999500D01*
X341485749Y-108999500D01*
X339894251Y-108999500D01*
X339894249Y-108999500D01*
X338423898Y-109608540D01*
X338423897Y-109608541D01*
X337784817Y-110247620D01*
X337697136Y-110283939D01*
X337628245Y-110263041D01*
X336610605Y-109583077D01*
X336180116Y-109295434D01*
X336180115Y-109295433D01*
X336180114Y-109295433D01*
X336180113Y-109295432D01*
X334190002Y-108899575D01*
X334189998Y-108899575D01*
X332199886Y-109295432D01*
X332199885Y-109295433D01*
X330512744Y-110422744D01*
X329723379Y-111604111D01*
X329644468Y-111656837D01*
X329572824Y-111649781D01*
X328485750Y-111199500D01*
X328485749Y-111199500D01*
X325598423Y-111199500D01*
X325510742Y-111163181D01*
X324945283Y-110597722D01*
X324929862Y-110578932D01*
X324882280Y-110507720D01*
X324882277Y-110507717D01*
X324811066Y-110460136D01*
X324792276Y-110444715D01*
X323956101Y-109608540D01*
X322485750Y-108999500D01*
X322485749Y-108999500D01*
X320894251Y-108999500D01*
X320894249Y-108999500D01*
X319423898Y-109608540D01*
X319423897Y-109608541D01*
X318784817Y-110247620D01*
X318697136Y-110283939D01*
X318628245Y-110263041D01*
X317610605Y-109583077D01*
X317180116Y-109295434D01*
X317180115Y-109295433D01*
X317180114Y-109295433D01*
X317180113Y-109295432D01*
X315190002Y-108899575D01*
X315189998Y-108899575D01*
X313199886Y-109295432D01*
X313199885Y-109295433D01*
X311512744Y-110422744D01*
X310723379Y-111604111D01*
X310644468Y-111656837D01*
X310572824Y-111649781D01*
X310249098Y-111515689D01*
X310208870Y-111488809D01*
X308529681Y-109809620D01*
X308502801Y-109769392D01*
X308061460Y-108703899D01*
X306936101Y-107578540D01*
X305465750Y-106969500D01*
X305465749Y-106969500D01*
X303874251Y-106969500D01*
X303874249Y-106969500D01*
X302403898Y-107578540D01*
X301278540Y-108703898D01*
X300669500Y-110174249D01*
X300669500Y-112403250D01*
X301278540Y-113873601D01*
X301285325Y-113883755D01*
X301281455Y-113886340D01*
X301310827Y-113957250D01*
X301281455Y-114028159D01*
X301285325Y-114030745D01*
X301278540Y-114040898D01*
X300669500Y-115511249D01*
X300669500Y-117285750D01*
X300873089Y-117777256D01*
X301278540Y-118756101D01*
X302403899Y-119881460D01*
X303874251Y-120490500D01*
X303874253Y-120490500D01*
X305465747Y-120490500D01*
X305465749Y-120490500D01*
X306936101Y-119881460D01*
X307580742Y-119236819D01*
X307668423Y-119200500D01*
X309485747Y-119200500D01*
X309485749Y-119200500D01*
X310956101Y-118591460D01*
X311595182Y-117952377D01*
X311682862Y-117916059D01*
X311751753Y-117936957D01*
X312330632Y-118323750D01*
X313199884Y-118904566D01*
X313199885Y-118904566D01*
X313199886Y-118904567D01*
X315189998Y-119300425D01*
X315190000Y-119300425D01*
X315190002Y-119300425D01*
X317180113Y-118904567D01*
X317180113Y-118904566D01*
X317180116Y-118904566D01*
X318867256Y-117777256D01*
X319561345Y-116738475D01*
X319640254Y-116685751D01*
X319733336Y-116704266D01*
X319752126Y-116719687D01*
X320498540Y-117466101D01*
X321623899Y-118591460D01*
X323094251Y-119200500D01*
X323094253Y-119200500D01*
X328485747Y-119200500D01*
X328485749Y-119200500D01*
X329956101Y-118591460D01*
X330595182Y-117952377D01*
X330682862Y-117916059D01*
X330751753Y-117936957D01*
X331330632Y-118323750D01*
X332199884Y-118904566D01*
X332199885Y-118904566D01*
X332199886Y-118904567D01*
X334189998Y-119300425D01*
X334190000Y-119300425D01*
X334190002Y-119300425D01*
X336180113Y-118904567D01*
X336180113Y-118904566D01*
X336180116Y-118904566D01*
X337867256Y-117777256D01*
X338561345Y-116738475D01*
X338640254Y-116685751D01*
X338733336Y-116704266D01*
X338752126Y-116719687D01*
X340623899Y-118591460D01*
X342094251Y-119200500D01*
X342094253Y-119200500D01*
X347485747Y-119200500D01*
X347485749Y-119200500D01*
X348956101Y-118591460D01*
X349595182Y-117952377D01*
X349682862Y-117916059D01*
X349751753Y-117936957D01*
X350330632Y-118323750D01*
X351199884Y-118904566D01*
X351199885Y-118904566D01*
X351199886Y-118904567D01*
X353189998Y-119300425D01*
X353190000Y-119300425D01*
X353190002Y-119300425D01*
X355180113Y-118904567D01*
X355180113Y-118904566D01*
X355180116Y-118904566D01*
X356867256Y-117777256D01*
X357561345Y-116738475D01*
X357640254Y-116685751D01*
X357733336Y-116704266D01*
X357752126Y-116719687D01*
X359623899Y-118591460D01*
X361094251Y-119200500D01*
X361094253Y-119200500D01*
X366485747Y-119200500D01*
X366485749Y-119200500D01*
X367956101Y-118591460D01*
X368595182Y-117952377D01*
X368682862Y-117916059D01*
X368751753Y-117936957D01*
X369333169Y-118325446D01*
X369385895Y-118404357D01*
X369388275Y-118427660D01*
X369426375Y-123745105D01*
X369390685Y-123833044D01*
X369371269Y-123849095D01*
X368512744Y-124422744D01*
X367723379Y-125604111D01*
X367644468Y-125656837D01*
X367572824Y-125649781D01*
X366485750Y-125199500D01*
X366485749Y-125199500D01*
X363598423Y-125199500D01*
X363510742Y-125163181D01*
X362945283Y-124597722D01*
X362929862Y-124578932D01*
X362882280Y-124507720D01*
X362882277Y-124507717D01*
X362811066Y-124460136D01*
X362792276Y-124444715D01*
X361956101Y-123608540D01*
X360485750Y-122999500D01*
X360485749Y-122999500D01*
X358894251Y-122999500D01*
X358894249Y-122999500D01*
X357423898Y-123608540D01*
X357423897Y-123608541D01*
X356784817Y-124247620D01*
X356697136Y-124283939D01*
X356628245Y-124263041D01*
X355610605Y-123583077D01*
X355180116Y-123295434D01*
X355180115Y-123295433D01*
X355180114Y-123295433D01*
X355180113Y-123295432D01*
X353190002Y-122899575D01*
X353189998Y-122899575D01*
X351199886Y-123295432D01*
X351199885Y-123295433D01*
X349512744Y-124422744D01*
X348723379Y-125604111D01*
X348644468Y-125656837D01*
X348572824Y-125649781D01*
X347485750Y-125199500D01*
X347485749Y-125199500D01*
X344598423Y-125199500D01*
X344510742Y-125163181D01*
X343945283Y-124597722D01*
X343929862Y-124578932D01*
X343882280Y-124507720D01*
X343882277Y-124507717D01*
X343811066Y-124460136D01*
X343792276Y-124444715D01*
X342956101Y-123608540D01*
X341485750Y-122999500D01*
X341485749Y-122999500D01*
X339894251Y-122999500D01*
X339894249Y-122999500D01*
X338423898Y-123608540D01*
X338423897Y-123608541D01*
X337784817Y-124247620D01*
X337697136Y-124283939D01*
X337628245Y-124263041D01*
X336610605Y-123583077D01*
X336180116Y-123295434D01*
X336180115Y-123295433D01*
X336180114Y-123295433D01*
X336180113Y-123295432D01*
X334190002Y-122899575D01*
X334189998Y-122899575D01*
X332199886Y-123295432D01*
X332199885Y-123295433D01*
X330512744Y-124422744D01*
X329723379Y-125604111D01*
X329644468Y-125656837D01*
X329572824Y-125649781D01*
X328485750Y-125199500D01*
X328485749Y-125199500D01*
X325598423Y-125199500D01*
X325510742Y-125163181D01*
X324945283Y-124597722D01*
X324929862Y-124578932D01*
X324882280Y-124507720D01*
X324882277Y-124507717D01*
X324811066Y-124460136D01*
X324792276Y-124444715D01*
X323956101Y-123608540D01*
X322485750Y-122999500D01*
X322485749Y-122999500D01*
X320894251Y-122999500D01*
X320894249Y-122999500D01*
X319423898Y-123608540D01*
X319423897Y-123608541D01*
X318784817Y-124247620D01*
X318697136Y-124283939D01*
X318628245Y-124263041D01*
X317610605Y-123583077D01*
X317180116Y-123295434D01*
X317180115Y-123295433D01*
X317180114Y-123295433D01*
X317180113Y-123295432D01*
X315190002Y-122899575D01*
X315189998Y-122899575D01*
X313199886Y-123295432D01*
X313199885Y-123295433D01*
X311512744Y-124422744D01*
X310723379Y-125604111D01*
X310644468Y-125656837D01*
X310572824Y-125649781D01*
X309681485Y-125280576D01*
X309641257Y-125253696D01*
X308313972Y-123926411D01*
X308287092Y-123886183D01*
X308042396Y-123295434D01*
X307881460Y-122906899D01*
X306756101Y-121781540D01*
X305285750Y-121172500D01*
X305285749Y-121172500D01*
X303694251Y-121172500D01*
X303694249Y-121172500D01*
X302223898Y-121781540D01*
X301098540Y-122906898D01*
X300489500Y-124377249D01*
X300489500Y-126555750D01*
X301098540Y-128026101D01*
X301119758Y-128047319D01*
X301156077Y-128135000D01*
X301119758Y-128222681D01*
X301098541Y-128243897D01*
X301098540Y-128243898D01*
X300489500Y-129714249D01*
X300489500Y-131715750D01*
X300981924Y-132904566D01*
X301098540Y-133186101D01*
X302223899Y-134311460D01*
X303694251Y-134920500D01*
X303694253Y-134920500D01*
X305285747Y-134920500D01*
X305285749Y-134920500D01*
X306756101Y-134311460D01*
X307830742Y-133236819D01*
X307918423Y-133200500D01*
X309485747Y-133200500D01*
X309485749Y-133200500D01*
X310956101Y-132591460D01*
X311595182Y-131952377D01*
X311682862Y-131916059D01*
X311751753Y-131936957D01*
X312330632Y-132323750D01*
X313199884Y-132904566D01*
X313199885Y-132904566D01*
X313199886Y-132904567D01*
X315189998Y-133300425D01*
X315190000Y-133300425D01*
X315190002Y-133300425D01*
X317180113Y-132904567D01*
X317180113Y-132904566D01*
X317180116Y-132904566D01*
X318867256Y-131777256D01*
X319561345Y-130738475D01*
X319640254Y-130685751D01*
X319733336Y-130704266D01*
X319752126Y-130719687D01*
X320498540Y-131466101D01*
X321623899Y-132591460D01*
X323094251Y-133200500D01*
X323094253Y-133200500D01*
X328485747Y-133200500D01*
X328485749Y-133200500D01*
X329956101Y-132591460D01*
X330595182Y-131952377D01*
X330682862Y-131916059D01*
X330751753Y-131936957D01*
X331330632Y-132323750D01*
X332199884Y-132904566D01*
X332199885Y-132904566D01*
X332199886Y-132904567D01*
X334189998Y-133300425D01*
X334190000Y-133300425D01*
X334190002Y-133300425D01*
X336180113Y-132904567D01*
X336180113Y-132904566D01*
X336180116Y-132904566D01*
X337867256Y-131777256D01*
X338561345Y-130738475D01*
X338640254Y-130685751D01*
X338733336Y-130704266D01*
X338752126Y-130719687D01*
X339498540Y-131466101D01*
X340623899Y-132591460D01*
X342094251Y-133200500D01*
X342094253Y-133200500D01*
X347485747Y-133200500D01*
X347485749Y-133200500D01*
X348956101Y-132591460D01*
X349595182Y-131952377D01*
X349682862Y-131916059D01*
X349751753Y-131936957D01*
X350330632Y-132323750D01*
X351199884Y-132904566D01*
X351199885Y-132904566D01*
X351199886Y-132904567D01*
X353189998Y-133300425D01*
X353190000Y-133300425D01*
X353190002Y-133300425D01*
X355180113Y-132904567D01*
X355180113Y-132904566D01*
X355180116Y-132904566D01*
X356867256Y-131777256D01*
X357561345Y-130738475D01*
X357640254Y-130685751D01*
X357733336Y-130704266D01*
X357752126Y-130719687D01*
X358498540Y-131466101D01*
X359623899Y-132591460D01*
X361094251Y-133200500D01*
X361094253Y-133200500D01*
X366485747Y-133200500D01*
X366485749Y-133200500D01*
X367956101Y-132591460D01*
X368595182Y-131952377D01*
X368682862Y-131916059D01*
X368751753Y-131936957D01*
X369136610Y-132194109D01*
X369433960Y-132392792D01*
X369486686Y-132471703D01*
X369489066Y-132495006D01*
X369526206Y-137678400D01*
X369490516Y-137766339D01*
X369471100Y-137782390D01*
X368512744Y-138422744D01*
X367723379Y-139604111D01*
X367644468Y-139656837D01*
X367572824Y-139649781D01*
X366485750Y-139199500D01*
X366485749Y-139199500D01*
X363598423Y-139199500D01*
X363510742Y-139163181D01*
X362945283Y-138597722D01*
X362929862Y-138578932D01*
X362882280Y-138507720D01*
X362882277Y-138507717D01*
X362811066Y-138460136D01*
X362792276Y-138444715D01*
X361956101Y-137608540D01*
X360485750Y-136999500D01*
X360485749Y-136999500D01*
X358894251Y-136999500D01*
X358894249Y-136999500D01*
X357423898Y-137608540D01*
X357423897Y-137608541D01*
X356784817Y-138247620D01*
X356697136Y-138283939D01*
X356628245Y-138263041D01*
X355610605Y-137583077D01*
X355180116Y-137295434D01*
X355180115Y-137295433D01*
X355180114Y-137295433D01*
X355180113Y-137295432D01*
X353190002Y-136899575D01*
X353189998Y-136899575D01*
X351199886Y-137295432D01*
X351199885Y-137295433D01*
X349512744Y-138422744D01*
X348723379Y-139604111D01*
X348644468Y-139656837D01*
X348572824Y-139649781D01*
X347485750Y-139199500D01*
X347485749Y-139199500D01*
X344598423Y-139199500D01*
X344510742Y-139163181D01*
X343945283Y-138597722D01*
X343929862Y-138578932D01*
X343882280Y-138507720D01*
X343882277Y-138507717D01*
X343811066Y-138460136D01*
X343792276Y-138444715D01*
X342956101Y-137608540D01*
X341485750Y-136999500D01*
X341485749Y-136999500D01*
X339894251Y-136999500D01*
X339894249Y-136999500D01*
X338423898Y-137608540D01*
X338423897Y-137608541D01*
X337784817Y-138247620D01*
X337697136Y-138283939D01*
X337628245Y-138263041D01*
X336610605Y-137583077D01*
X336180116Y-137295434D01*
X336180115Y-137295433D01*
X336180114Y-137295433D01*
X336180113Y-137295432D01*
X334190002Y-136899575D01*
X334189998Y-136899575D01*
X332199886Y-137295432D01*
X332199885Y-137295433D01*
X330512744Y-138422744D01*
X329723379Y-139604111D01*
X329644468Y-139656837D01*
X329572824Y-139649781D01*
X328485750Y-139199500D01*
X328485749Y-139199500D01*
X325598423Y-139199500D01*
X325510742Y-139163181D01*
X324945283Y-138597722D01*
X324929862Y-138578932D01*
X324882280Y-138507720D01*
X324882277Y-138507717D01*
X324811066Y-138460136D01*
X324792276Y-138444715D01*
X323956101Y-137608540D01*
X322485750Y-136999500D01*
X322485749Y-136999500D01*
X320894251Y-136999500D01*
X320894249Y-136999500D01*
X319423898Y-137608540D01*
X319423897Y-137608541D01*
X318784817Y-138247620D01*
X318697136Y-138283939D01*
X318628245Y-138263041D01*
X317610605Y-137583077D01*
X317180116Y-137295434D01*
X317180115Y-137295433D01*
X317180114Y-137295433D01*
X317180113Y-137295432D01*
X315190002Y-136899575D01*
X315189998Y-136899575D01*
X313199886Y-137295432D01*
X313199885Y-137295433D01*
X311512744Y-138422744D01*
X310723379Y-139604111D01*
X310644468Y-139656837D01*
X310572824Y-139649781D01*
X309485750Y-139199500D01*
X309485749Y-139199500D01*
X309328423Y-139199500D01*
X309240742Y-139163181D01*
X307900710Y-137823149D01*
X307873830Y-137782921D01*
X307830536Y-137678400D01*
X307568960Y-137046899D01*
X306443601Y-135921540D01*
X304973250Y-135312500D01*
X304973249Y-135312500D01*
X303381751Y-135312500D01*
X303381749Y-135312500D01*
X301911398Y-135921540D01*
X300786040Y-137046898D01*
X300177000Y-138517249D01*
X300177000Y-140553250D01*
X300786040Y-142023601D01*
X301140681Y-142378242D01*
X301177000Y-142465923D01*
X301177000Y-143005381D01*
X301156103Y-143074271D01*
X301107574Y-143146900D01*
X301107573Y-143146900D01*
X300977000Y-143803339D01*
X300977000Y-145496660D01*
X301107573Y-146153099D01*
X301107574Y-146153100D01*
X301107574Y-146153101D01*
X301107575Y-146153102D01*
X301604980Y-146897520D01*
X302072548Y-147209939D01*
X302084485Y-147217915D01*
X302103275Y-147233336D01*
X302911399Y-148041460D01*
X303827542Y-148420939D01*
X303894650Y-148488047D01*
X303894650Y-148582953D01*
X303827542Y-148650061D01*
X303780089Y-148659500D01*
X303344249Y-148659500D01*
X301873898Y-149268540D01*
X300748540Y-150393898D01*
X300139500Y-151864249D01*
X300139500Y-153828750D01*
X300748540Y-155299101D01*
X301063258Y-155613819D01*
X301099577Y-155701500D01*
X301063258Y-155789181D01*
X300748541Y-156103897D01*
X300748540Y-156103898D01*
X300139500Y-157574249D01*
X300139500Y-159255750D01*
X300692769Y-160591459D01*
X300748540Y-160726101D01*
X301873899Y-161851460D01*
X303344251Y-162460500D01*
X303344253Y-162460500D01*
X304935747Y-162460500D01*
X304935749Y-162460500D01*
X306406101Y-161851460D01*
X307020742Y-161236819D01*
X307108423Y-161200500D01*
X309485747Y-161200500D01*
X309485749Y-161200500D01*
X310956101Y-160591460D01*
X311595182Y-159952377D01*
X311682862Y-159916059D01*
X311751753Y-159936957D01*
X312330632Y-160323750D01*
X313199884Y-160904566D01*
X313199885Y-160904566D01*
X313199886Y-160904567D01*
X315189998Y-161300425D01*
X315190000Y-161300425D01*
X315190002Y-161300425D01*
X317180113Y-160904567D01*
X317180113Y-160904566D01*
X317180116Y-160904566D01*
X318867256Y-159777256D01*
X319561345Y-158738475D01*
X319640254Y-158685751D01*
X319733336Y-158704266D01*
X319752126Y-158719687D01*
X320498540Y-159466101D01*
X321623899Y-160591460D01*
X323094251Y-161200500D01*
X323094253Y-161200500D01*
X328485747Y-161200500D01*
X328485749Y-161200500D01*
X329956101Y-160591460D01*
X330595182Y-159952377D01*
X330682862Y-159916059D01*
X330751753Y-159936957D01*
X331330632Y-160323750D01*
X332199884Y-160904566D01*
X332199885Y-160904566D01*
X332199886Y-160904567D01*
X334189998Y-161300425D01*
X334190000Y-161300425D01*
X334190002Y-161300425D01*
X336180113Y-160904567D01*
X336180113Y-160904566D01*
X336180116Y-160904566D01*
X337867256Y-159777256D01*
X338561345Y-158738475D01*
X338640254Y-158685751D01*
X338733336Y-158704266D01*
X338752126Y-158719687D01*
X339498540Y-159466101D01*
X340623899Y-160591460D01*
X342094251Y-161200500D01*
X342094253Y-161200500D01*
X347485747Y-161200500D01*
X347485749Y-161200500D01*
X348956101Y-160591460D01*
X349595182Y-159952377D01*
X349682862Y-159916059D01*
X349751753Y-159936957D01*
X350330632Y-160323750D01*
X351199884Y-160904566D01*
X351199885Y-160904566D01*
X351199886Y-160904567D01*
X353189998Y-161300425D01*
X353190000Y-161300425D01*
X353190002Y-161300425D01*
X355180113Y-160904567D01*
X355180113Y-160904566D01*
X355180116Y-160904566D01*
X356867256Y-159777256D01*
X357561345Y-158738475D01*
X357640254Y-158685751D01*
X357733336Y-158704266D01*
X357752126Y-158719687D01*
X359623899Y-160591460D01*
X361094251Y-161200500D01*
X361094253Y-161200500D01*
X366485747Y-161200500D01*
X366485749Y-161200500D01*
X367956101Y-160591460D01*
X368595182Y-159952377D01*
X368682862Y-159916059D01*
X368751753Y-159936957D01*
X369635542Y-160527485D01*
X369688268Y-160606396D01*
X369690648Y-160629699D01*
X369725867Y-165544991D01*
X369690177Y-165632930D01*
X369670761Y-165648981D01*
X368512744Y-166422744D01*
X367723379Y-167604111D01*
X367644468Y-167656837D01*
X367572824Y-167649781D01*
X366485750Y-167199500D01*
X366485749Y-167199500D01*
X363598423Y-167199500D01*
X363510742Y-167163181D01*
X362945283Y-166597722D01*
X362929862Y-166578932D01*
X362882280Y-166507720D01*
X362882277Y-166507717D01*
X362811066Y-166460136D01*
X362792276Y-166444715D01*
X361956101Y-165608540D01*
X360485750Y-164999500D01*
X360485749Y-164999500D01*
X358894251Y-164999500D01*
X358894249Y-164999500D01*
X357423898Y-165608540D01*
X357423897Y-165608541D01*
X356784817Y-166247620D01*
X356697136Y-166283939D01*
X356628245Y-166263041D01*
X355553605Y-165544991D01*
X355180116Y-165295434D01*
X355180115Y-165295433D01*
X355180114Y-165295433D01*
X355180113Y-165295432D01*
X353190002Y-164899575D01*
X353189998Y-164899575D01*
X351199886Y-165295432D01*
X351199885Y-165295433D01*
X349512744Y-166422744D01*
X348723379Y-167604111D01*
X348644468Y-167656837D01*
X348572824Y-167649781D01*
X347485750Y-167199500D01*
X347485749Y-167199500D01*
X344598423Y-167199500D01*
X344510742Y-167163181D01*
X343945283Y-166597722D01*
X343929862Y-166578932D01*
X343882280Y-166507720D01*
X343882277Y-166507717D01*
X343811066Y-166460136D01*
X343792276Y-166444715D01*
X342956101Y-165608540D01*
X341485750Y-164999500D01*
X341485749Y-164999500D01*
X339894251Y-164999500D01*
X339894249Y-164999500D01*
X338423898Y-165608540D01*
X338423897Y-165608541D01*
X337784817Y-166247620D01*
X337697136Y-166283939D01*
X337628245Y-166263041D01*
X336553605Y-165544991D01*
X336180116Y-165295434D01*
X336180115Y-165295433D01*
X336180114Y-165295433D01*
X336180113Y-165295432D01*
X334190002Y-164899575D01*
X334189998Y-164899575D01*
X332199886Y-165295432D01*
X332199885Y-165295433D01*
X330512744Y-166422744D01*
X329723379Y-167604111D01*
X329644468Y-167656837D01*
X329572824Y-167649781D01*
X328485750Y-167199500D01*
X328485749Y-167199500D01*
X325598423Y-167199500D01*
X325510742Y-167163181D01*
X324945283Y-166597722D01*
X324929862Y-166578932D01*
X324882280Y-166507720D01*
X324882277Y-166507717D01*
X324811066Y-166460136D01*
X324792276Y-166444715D01*
X323956101Y-165608540D01*
X322485750Y-164999500D01*
X322485749Y-164999500D01*
X320894251Y-164999500D01*
X320894249Y-164999500D01*
X319423898Y-165608540D01*
X319423897Y-165608541D01*
X318784817Y-166247620D01*
X318697136Y-166283939D01*
X318628245Y-166263041D01*
X317553605Y-165544991D01*
X317180116Y-165295434D01*
X317180115Y-165295433D01*
X317180114Y-165295433D01*
X317180113Y-165295432D01*
X315190002Y-164899575D01*
X315189998Y-164899575D01*
X313199886Y-165295432D01*
X313199885Y-165295433D01*
X311512744Y-166422744D01*
X310723379Y-167604111D01*
X310644468Y-167656837D01*
X310572824Y-167649781D01*
X309485750Y-167199500D01*
X309485749Y-167199500D01*
X308348423Y-167199500D01*
X308260742Y-167163181D01*
X308214319Y-167116758D01*
X308178000Y-167029077D01*
X308178000Y-166457252D01*
X308177999Y-166457249D01*
X308106212Y-166283939D01*
X307568960Y-164986899D01*
X306443601Y-163861540D01*
X304973250Y-163252500D01*
X304973249Y-163252500D01*
X303381751Y-163252500D01*
X303381749Y-163252500D01*
X301911398Y-163861540D01*
X300786040Y-164986898D01*
X300177000Y-166457249D01*
X300177000Y-169533250D01*
X300508079Y-170332547D01*
X300508079Y-170427453D01*
X300177000Y-171226749D01*
X300177000Y-173385750D01*
X300676422Y-174591459D01*
X300786040Y-174856101D01*
X301911399Y-175981460D01*
X303381751Y-176590500D01*
X303381753Y-176590500D01*
X304973247Y-176590500D01*
X304973249Y-176590500D01*
X306443601Y-175981460D01*
X307188242Y-175236819D01*
X307275923Y-175200500D01*
X309485747Y-175200500D01*
X309485749Y-175200500D01*
X310956101Y-174591460D01*
X311595182Y-173952377D01*
X311682862Y-173916059D01*
X311751753Y-173936957D01*
X312330632Y-174323750D01*
X313199884Y-174904566D01*
X313199885Y-174904566D01*
X313199886Y-174904567D01*
X315189998Y-175300425D01*
X315190000Y-175300425D01*
X315190002Y-175300425D01*
X317180113Y-174904567D01*
X317180113Y-174904566D01*
X317180116Y-174904566D01*
X318867256Y-173777256D01*
X319561345Y-172738475D01*
X319640254Y-172685751D01*
X319733336Y-172704266D01*
X319752126Y-172719687D01*
X320498540Y-173466101D01*
X321623899Y-174591460D01*
X323094251Y-175200500D01*
X323094253Y-175200500D01*
X328485747Y-175200500D01*
X328485749Y-175200500D01*
X329956101Y-174591460D01*
X330595182Y-173952377D01*
X330682862Y-173916059D01*
X330751753Y-173936957D01*
X331330632Y-174323750D01*
X332199884Y-174904566D01*
X332199885Y-174904566D01*
X332199886Y-174904567D01*
X334189998Y-175300425D01*
X334190000Y-175300425D01*
X334190002Y-175300425D01*
X336180113Y-174904567D01*
X336180113Y-174904566D01*
X336180116Y-174904566D01*
X337867256Y-173777256D01*
X338561345Y-172738475D01*
X338640254Y-172685751D01*
X338733336Y-172704266D01*
X338752126Y-172719687D01*
X339498540Y-173466101D01*
X340623899Y-174591460D01*
X342094251Y-175200500D01*
X342094253Y-175200500D01*
X347485747Y-175200500D01*
X347485749Y-175200500D01*
X348956101Y-174591460D01*
X349595182Y-173952377D01*
X349682862Y-173916059D01*
X349751753Y-173936957D01*
X350330632Y-174323750D01*
X351199884Y-174904566D01*
X351199885Y-174904566D01*
X351199886Y-174904567D01*
X353189998Y-175300425D01*
X353190000Y-175300425D01*
X353190002Y-175300425D01*
X355180113Y-174904567D01*
X355180113Y-174904566D01*
X355180116Y-174904566D01*
X356867256Y-173777256D01*
X357561345Y-172738475D01*
X357640254Y-172685751D01*
X357733336Y-172704266D01*
X357752126Y-172719687D01*
X358498540Y-173466101D01*
X359623899Y-174591460D01*
X361094251Y-175200500D01*
X361094253Y-175200500D01*
X366485747Y-175200500D01*
X366485749Y-175200500D01*
X367956101Y-174591460D01*
X368595182Y-173952377D01*
X368682862Y-173916059D01*
X368751753Y-173936957D01*
X369292239Y-174298097D01*
X369736333Y-174594831D01*
X369789059Y-174673742D01*
X369791439Y-174697045D01*
X369825697Y-179478287D01*
X369790007Y-179566226D01*
X369770591Y-179582277D01*
X368512744Y-180422744D01*
X367723379Y-181604111D01*
X367644468Y-181656837D01*
X367572824Y-181649781D01*
X366485750Y-181199500D01*
X366485749Y-181199500D01*
X363598423Y-181199500D01*
X363510742Y-181163181D01*
X362945283Y-180597722D01*
X362929862Y-180578932D01*
X362882280Y-180507720D01*
X362882277Y-180507717D01*
X362811066Y-180460136D01*
X362792276Y-180444715D01*
X361956101Y-179608540D01*
X360485750Y-178999500D01*
X360485749Y-178999500D01*
X358894251Y-178999500D01*
X358894249Y-178999500D01*
X357423898Y-179608540D01*
X357423897Y-179608541D01*
X356784817Y-180247620D01*
X356697136Y-180283939D01*
X356628245Y-180263041D01*
X355453775Y-179478287D01*
X355180116Y-179295434D01*
X355180115Y-179295433D01*
X355180114Y-179295433D01*
X355180113Y-179295432D01*
X353190002Y-178899575D01*
X353189998Y-178899575D01*
X351199886Y-179295432D01*
X351199885Y-179295433D01*
X349512744Y-180422744D01*
X348723379Y-181604111D01*
X348644468Y-181656837D01*
X348572824Y-181649781D01*
X347485750Y-181199500D01*
X347485749Y-181199500D01*
X344598423Y-181199500D01*
X344510742Y-181163181D01*
X343945283Y-180597722D01*
X343929862Y-180578932D01*
X343882280Y-180507720D01*
X343882277Y-180507717D01*
X343811066Y-180460136D01*
X343792276Y-180444715D01*
X342956101Y-179608540D01*
X341485750Y-178999500D01*
X341485749Y-178999500D01*
X339894251Y-178999500D01*
X339894249Y-178999500D01*
X338423898Y-179608540D01*
X338423897Y-179608541D01*
X337784817Y-180247620D01*
X337697136Y-180283939D01*
X337628245Y-180263041D01*
X336453775Y-179478287D01*
X336180116Y-179295434D01*
X336180115Y-179295433D01*
X336180114Y-179295433D01*
X336180113Y-179295432D01*
X334190002Y-178899575D01*
X334189998Y-178899575D01*
X332199886Y-179295432D01*
X332199885Y-179295433D01*
X330512744Y-180422744D01*
X329723379Y-181604111D01*
X329644468Y-181656837D01*
X329572824Y-181649781D01*
X328485750Y-181199500D01*
X328485749Y-181199500D01*
X325598423Y-181199500D01*
X325510742Y-181163181D01*
X324945283Y-180597722D01*
X324929862Y-180578932D01*
X324882280Y-180507720D01*
X324882277Y-180507717D01*
X324811066Y-180460136D01*
X324792276Y-180444715D01*
X323956101Y-179608540D01*
X322485750Y-178999500D01*
X322485749Y-178999500D01*
X320894251Y-178999500D01*
X320894249Y-178999500D01*
X319423898Y-179608540D01*
X319423897Y-179608541D01*
X318784817Y-180247620D01*
X318697136Y-180283939D01*
X318628245Y-180263041D01*
X317453775Y-179478287D01*
X317180116Y-179295434D01*
X317180115Y-179295433D01*
X317180114Y-179295433D01*
X317180113Y-179295432D01*
X315190002Y-178899575D01*
X315189998Y-178899575D01*
X313199886Y-179295432D01*
X313199885Y-179295433D01*
X311512744Y-180422744D01*
X310723379Y-181604111D01*
X310644468Y-181656837D01*
X310572824Y-181649781D01*
X309835125Y-181344216D01*
X309794897Y-181317336D01*
X308012551Y-179534990D01*
X307985671Y-179494762D01*
X307903107Y-179295434D01*
X307721460Y-178856899D01*
X306596101Y-177731540D01*
X305125750Y-177122500D01*
X305125749Y-177122500D01*
X303534251Y-177122500D01*
X303534249Y-177122500D01*
X302063898Y-177731540D01*
X300938540Y-178856898D01*
X300329500Y-180327249D01*
X300329500Y-182305750D01*
X300938540Y-183776101D01*
X300964758Y-183802319D01*
X301001077Y-183890000D01*
X300964758Y-183977681D01*
X300938541Y-184003897D01*
X300938540Y-184003898D01*
X300329500Y-185474249D01*
X300329500Y-187255750D01*
X300618053Y-187952378D01*
X300938540Y-188726101D01*
X302063899Y-189851460D01*
X303076611Y-190270939D01*
X303143719Y-190338047D01*
X303143719Y-190432953D01*
X303076611Y-190500061D01*
X303029158Y-190509500D01*
X293384500Y-190509500D01*
X293296819Y-190473181D01*
X293260500Y-190385500D01*
X293260500Y-94364500D01*
X293296819Y-94276819D01*
X293384500Y-94240500D01*
X301492577Y-94240500D01*
X301580258Y-94276819D01*
G37*
%TD.AperFunction*%
%TD*%
%TA.AperFunction,NonConductor*%
G36*
X369179544Y-94276819D02*
G01*
X369215860Y-94363612D01*
X369226714Y-95878514D01*
X369191024Y-95966453D01*
X369171608Y-95982504D01*
X368512744Y-96422744D01*
X367723379Y-97604111D01*
X367644468Y-97656837D01*
X367572824Y-97649781D01*
X366485750Y-97199500D01*
X366485749Y-97199500D01*
X363598423Y-97199500D01*
X363510742Y-97163181D01*
X362945283Y-96597722D01*
X362929862Y-96578932D01*
X362882280Y-96507720D01*
X362882277Y-96507717D01*
X362811066Y-96460136D01*
X362792276Y-96444715D01*
X361956101Y-95608540D01*
X360485750Y-94999500D01*
X360485749Y-94999500D01*
X358894251Y-94999500D01*
X358894249Y-94999500D01*
X357423898Y-95608540D01*
X357423897Y-95608541D01*
X356784817Y-96247620D01*
X356697136Y-96283939D01*
X356628245Y-96263041D01*
X355610605Y-95583077D01*
X355180116Y-95295434D01*
X355180115Y-95295433D01*
X355180114Y-95295433D01*
X355180113Y-95295432D01*
X353190002Y-94899575D01*
X353189998Y-94899575D01*
X351199886Y-95295432D01*
X351199885Y-95295433D01*
X349512744Y-96422744D01*
X348723379Y-97604111D01*
X348644468Y-97656837D01*
X348572824Y-97649781D01*
X347485750Y-97199500D01*
X347485749Y-97199500D01*
X344598423Y-97199500D01*
X344510742Y-97163181D01*
X343945283Y-96597722D01*
X343929862Y-96578932D01*
X343882280Y-96507720D01*
X343882277Y-96507717D01*
X343811066Y-96460136D01*
X343792276Y-96444715D01*
X342956101Y-95608540D01*
X341485750Y-94999500D01*
X341485749Y-94999500D01*
X339894251Y-94999500D01*
X339894249Y-94999500D01*
X338423898Y-95608540D01*
X338423897Y-95608541D01*
X337784817Y-96247620D01*
X337697136Y-96283939D01*
X337628245Y-96263041D01*
X336610605Y-95583077D01*
X336180116Y-95295434D01*
X336180115Y-95295433D01*
X336180114Y-95295433D01*
X336180113Y-95295432D01*
X334190002Y-94899575D01*
X334189998Y-94899575D01*
X332199886Y-95295432D01*
X332199885Y-95295433D01*
X330512744Y-96422744D01*
X329723379Y-97604111D01*
X329644468Y-97656837D01*
X329572824Y-97649781D01*
X328485750Y-97199500D01*
X328485749Y-97199500D01*
X325598423Y-97199500D01*
X325510742Y-97163181D01*
X324945283Y-96597722D01*
X324929862Y-96578932D01*
X324882280Y-96507720D01*
X324882277Y-96507717D01*
X324811066Y-96460136D01*
X324792276Y-96444715D01*
X323956101Y-95608540D01*
X322485750Y-94999500D01*
X322485749Y-94999500D01*
X320894251Y-94999500D01*
X320894249Y-94999500D01*
X319423898Y-95608540D01*
X319423897Y-95608541D01*
X318784817Y-96247620D01*
X318697136Y-96283939D01*
X318628245Y-96263041D01*
X317610605Y-95583077D01*
X317180116Y-95295434D01*
X317180115Y-95295433D01*
X317180114Y-95295433D01*
X317180113Y-95295432D01*
X315190002Y-94899575D01*
X315189998Y-94899575D01*
X313199886Y-95295432D01*
X313199885Y-95295433D01*
X311512744Y-96422744D01*
X310818655Y-97461521D01*
X310739744Y-97514247D01*
X310646662Y-97495732D01*
X310627872Y-97480311D01*
X308095469Y-94947908D01*
X308068589Y-94907680D01*
X308065232Y-94899575D01*
X308021460Y-94793899D01*
X307679742Y-94452181D01*
X307643423Y-94364500D01*
X307679742Y-94276819D01*
X307767423Y-94240500D01*
X369091863Y-94240500D01*
X369179544Y-94276819D01*
G37*
%TD.AperFunction*%
%TA.AperFunction,NonConductor*%
G36*
X357733336Y-144704266D02*
G01*
X357752126Y-144719687D01*
X358498540Y-145466101D01*
X359623899Y-146591460D01*
X361094251Y-147200500D01*
X361094253Y-147200500D01*
X366485747Y-147200500D01*
X366485749Y-147200500D01*
X367956101Y-146591460D01*
X368595182Y-145952377D01*
X368682862Y-145916059D01*
X368751753Y-145936957D01*
X369060253Y-146143089D01*
X369534751Y-146460139D01*
X369587477Y-146539049D01*
X369589857Y-146562352D01*
X369626036Y-151611696D01*
X369590346Y-151699635D01*
X369570930Y-151715686D01*
X368512744Y-152422744D01*
X367723379Y-153604111D01*
X367644468Y-153656837D01*
X367572824Y-153649781D01*
X366485750Y-153199500D01*
X366485749Y-153199500D01*
X363598423Y-153199500D01*
X363510742Y-153163181D01*
X362945283Y-152597722D01*
X362929862Y-152578932D01*
X362882280Y-152507720D01*
X362882277Y-152507717D01*
X362811066Y-152460136D01*
X362792276Y-152444715D01*
X361956101Y-151608540D01*
X360485750Y-150999500D01*
X360485749Y-150999500D01*
X358894251Y-150999500D01*
X358894249Y-150999500D01*
X357423898Y-151608540D01*
X357423897Y-151608541D01*
X356784817Y-152247620D01*
X356697136Y-152283939D01*
X356628245Y-152263041D01*
X355610605Y-151583077D01*
X355180116Y-151295434D01*
X355180115Y-151295433D01*
X355180114Y-151295433D01*
X355180113Y-151295432D01*
X353190002Y-150899575D01*
X353189998Y-150899575D01*
X351199886Y-151295432D01*
X351199885Y-151295433D01*
X349512744Y-152422744D01*
X348723379Y-153604111D01*
X348644468Y-153656837D01*
X348572824Y-153649781D01*
X347485750Y-153199500D01*
X347485749Y-153199500D01*
X344598423Y-153199500D01*
X344510742Y-153163181D01*
X343945283Y-152597722D01*
X343929862Y-152578932D01*
X343882280Y-152507720D01*
X343882277Y-152507717D01*
X343811066Y-152460136D01*
X343792276Y-152444715D01*
X342956101Y-151608540D01*
X341485750Y-150999500D01*
X341485749Y-150999500D01*
X339894251Y-150999500D01*
X339894249Y-150999500D01*
X338423898Y-151608540D01*
X338423897Y-151608541D01*
X337784817Y-152247620D01*
X337697136Y-152283939D01*
X337628245Y-152263041D01*
X336610605Y-151583077D01*
X336180116Y-151295434D01*
X336180115Y-151295433D01*
X336180114Y-151295433D01*
X336180113Y-151295432D01*
X334190002Y-150899575D01*
X334189998Y-150899575D01*
X332199886Y-151295432D01*
X332199885Y-151295433D01*
X330512744Y-152422744D01*
X329723379Y-153604111D01*
X329644468Y-153656837D01*
X329572824Y-153649781D01*
X328485750Y-153199500D01*
X328485749Y-153199500D01*
X325598423Y-153199500D01*
X325510742Y-153163181D01*
X324945283Y-152597722D01*
X324929862Y-152578932D01*
X324882280Y-152507720D01*
X324882277Y-152507717D01*
X324811066Y-152460136D01*
X324792276Y-152444715D01*
X323956101Y-151608540D01*
X322485750Y-150999500D01*
X322485749Y-150999500D01*
X320894251Y-150999500D01*
X320894249Y-150999500D01*
X319423898Y-151608540D01*
X319423897Y-151608541D01*
X318784817Y-152247620D01*
X318697136Y-152283939D01*
X318628245Y-152263041D01*
X317610605Y-151583077D01*
X317180116Y-151295434D01*
X317180115Y-151295433D01*
X317180114Y-151295433D01*
X317180113Y-151295432D01*
X315190002Y-150899575D01*
X315189998Y-150899575D01*
X313199886Y-151295432D01*
X313199885Y-151295433D01*
X311512744Y-152422744D01*
X310814650Y-153467516D01*
X310735739Y-153520242D01*
X310642657Y-153501727D01*
X310623867Y-153486306D01*
X306406101Y-149268540D01*
X305489958Y-148889061D01*
X305422850Y-148821953D01*
X305422850Y-148727047D01*
X305489958Y-148659939D01*
X305537411Y-148650500D01*
X305973247Y-148650500D01*
X305973249Y-148650500D01*
X307443601Y-148041460D01*
X307890742Y-147594319D01*
X307978423Y-147558000D01*
X308415747Y-147558000D01*
X308415749Y-147558000D01*
X309256042Y-147209938D01*
X309303495Y-147200500D01*
X309485747Y-147200500D01*
X309485749Y-147200500D01*
X310956101Y-146591460D01*
X311595182Y-145952377D01*
X311682862Y-145916059D01*
X311751753Y-145936957D01*
X312330632Y-146323750D01*
X313199884Y-146904566D01*
X313199885Y-146904566D01*
X313199886Y-146904567D01*
X315189998Y-147300425D01*
X315190000Y-147300425D01*
X315190002Y-147300425D01*
X317180113Y-146904567D01*
X317180113Y-146904566D01*
X317180116Y-146904566D01*
X318867256Y-145777256D01*
X319561345Y-144738475D01*
X319640254Y-144685751D01*
X319733336Y-144704266D01*
X319752126Y-144719687D01*
X321623899Y-146591460D01*
X323094251Y-147200500D01*
X323094253Y-147200500D01*
X328485747Y-147200500D01*
X328485749Y-147200500D01*
X329956101Y-146591460D01*
X330595182Y-145952377D01*
X330682862Y-145916059D01*
X330751753Y-145936957D01*
X331330632Y-146323750D01*
X332199884Y-146904566D01*
X332199885Y-146904566D01*
X332199886Y-146904567D01*
X334189998Y-147300425D01*
X334190000Y-147300425D01*
X334190002Y-147300425D01*
X336180113Y-146904567D01*
X336180113Y-146904566D01*
X336180116Y-146904566D01*
X337867256Y-145777256D01*
X338561345Y-144738475D01*
X338640254Y-144685751D01*
X338733336Y-144704266D01*
X338752126Y-144719687D01*
X340623899Y-146591460D01*
X342094251Y-147200500D01*
X342094253Y-147200500D01*
X347485747Y-147200500D01*
X347485749Y-147200500D01*
X348956101Y-146591460D01*
X349595182Y-145952377D01*
X349682862Y-145916059D01*
X349751753Y-145936957D01*
X350330632Y-146323750D01*
X351199884Y-146904566D01*
X351199885Y-146904566D01*
X351199886Y-146904567D01*
X353189998Y-147300425D01*
X353190000Y-147300425D01*
X353190002Y-147300425D01*
X355180113Y-146904567D01*
X355180113Y-146904566D01*
X355180116Y-146904566D01*
X356867256Y-145777256D01*
X357561345Y-144738475D01*
X357640254Y-144685751D01*
X357733336Y-144704266D01*
G37*
%TD.AperFunction*%
%TA.AperFunction,NonConductor*%
G36*
X357733336Y-186704266D02*
G01*
X357752126Y-186719687D01*
X358498540Y-187466101D01*
X359623899Y-188591460D01*
X361094251Y-189200500D01*
X361094253Y-189200500D01*
X366485747Y-189200500D01*
X366485749Y-189200500D01*
X367956101Y-188591460D01*
X368595182Y-187952377D01*
X368682862Y-187916059D01*
X368751753Y-187936957D01*
X369171283Y-188217277D01*
X369837124Y-188662178D01*
X369889850Y-188741088D01*
X369892230Y-188764390D01*
X369903840Y-190384611D01*
X369868150Y-190472551D01*
X369780732Y-190509497D01*
X369779843Y-190509500D01*
X305630842Y-190509500D01*
X305543161Y-190473181D01*
X305506842Y-190385500D01*
X305543161Y-190297819D01*
X305583388Y-190270939D01*
X306596101Y-189851460D01*
X307210742Y-189236819D01*
X307298423Y-189200500D01*
X309485747Y-189200500D01*
X309485749Y-189200500D01*
X310956101Y-188591460D01*
X311595182Y-187952377D01*
X311682862Y-187916059D01*
X311751753Y-187936957D01*
X312330632Y-188323750D01*
X313199884Y-188904566D01*
X313199885Y-188904566D01*
X313199886Y-188904567D01*
X315189998Y-189300425D01*
X315190000Y-189300425D01*
X315190002Y-189300425D01*
X317180113Y-188904567D01*
X317180113Y-188904566D01*
X317180116Y-188904566D01*
X318867256Y-187777256D01*
X319561345Y-186738475D01*
X319640254Y-186685751D01*
X319733336Y-186704266D01*
X319752126Y-186719687D01*
X321623899Y-188591460D01*
X323094251Y-189200500D01*
X323094253Y-189200500D01*
X328485747Y-189200500D01*
X328485749Y-189200500D01*
X329956101Y-188591460D01*
X330595182Y-187952377D01*
X330682862Y-187916059D01*
X330751753Y-187936957D01*
X331330632Y-188323750D01*
X332199884Y-188904566D01*
X332199885Y-188904566D01*
X332199886Y-188904567D01*
X334189998Y-189300425D01*
X334190000Y-189300425D01*
X334190002Y-189300425D01*
X336180113Y-188904567D01*
X336180113Y-188904566D01*
X336180116Y-188904566D01*
X337867256Y-187777256D01*
X338561345Y-186738475D01*
X338640254Y-186685751D01*
X338733336Y-186704266D01*
X338752126Y-186719687D01*
X339498540Y-187466101D01*
X340623899Y-188591460D01*
X342094251Y-189200500D01*
X342094253Y-189200500D01*
X347485747Y-189200500D01*
X347485749Y-189200500D01*
X348956101Y-188591460D01*
X349595182Y-187952377D01*
X349682862Y-187916059D01*
X349751753Y-187936957D01*
X350330632Y-188323750D01*
X351199884Y-188904566D01*
X351199885Y-188904566D01*
X351199886Y-188904567D01*
X353189998Y-189300425D01*
X353190000Y-189300425D01*
X353190002Y-189300425D01*
X355180113Y-188904567D01*
X355180113Y-188904566D01*
X355180116Y-188904566D01*
X356867256Y-187777256D01*
X357561345Y-186738475D01*
X357640254Y-186685751D01*
X357733336Y-186704266D01*
G37*
%TD.AperFunction*%
%TA.AperFunction,Conductor*%
%TO.N,+12V*%
G36*
X389153181Y-92696819D02*
G01*
X389189500Y-92784500D01*
X389189500Y-191935500D01*
X389153181Y-192023181D01*
X389065500Y-192059500D01*
X374209706Y-192059500D01*
X374122025Y-192023181D01*
X374085709Y-191936340D01*
X374085703Y-191935500D01*
X374066027Y-189029859D01*
X374101750Y-188941939D01*
X374165834Y-188907406D01*
X374180116Y-188904566D01*
X375867256Y-187777256D01*
X376994566Y-186090116D01*
X377390425Y-184100000D01*
X377390425Y-184099997D01*
X376994567Y-182109886D01*
X376994566Y-182109885D01*
X376994566Y-182109884D01*
X375867256Y-180422744D01*
X374180116Y-179295434D01*
X374180114Y-179295433D01*
X374180111Y-179295432D01*
X374098988Y-179279296D01*
X374020077Y-179226570D01*
X373999183Y-179158523D01*
X373971353Y-175048691D01*
X374007076Y-174960769D01*
X374071153Y-174926240D01*
X374180116Y-174904566D01*
X375867256Y-173777256D01*
X376994566Y-172090116D01*
X377390425Y-170100000D01*
X377390425Y-170099997D01*
X376994567Y-168109886D01*
X376994566Y-168109885D01*
X376994566Y-168109884D01*
X375867256Y-166422744D01*
X374180116Y-165295434D01*
X374180114Y-165295433D01*
X374180111Y-165295432D01*
X374004059Y-165260413D01*
X373925148Y-165207687D01*
X373904253Y-165139638D01*
X373876679Y-161067524D01*
X373912402Y-160979602D01*
X373976479Y-160945071D01*
X374180116Y-160904566D01*
X375867256Y-159777256D01*
X376994566Y-158090116D01*
X377390425Y-156100000D01*
X377390425Y-156099997D01*
X376994567Y-154109886D01*
X376994566Y-154109885D01*
X376994566Y-154109884D01*
X375867256Y-152422744D01*
X374180116Y-151295434D01*
X374180114Y-151295433D01*
X374180111Y-151295432D01*
X373909129Y-151241530D01*
X373830218Y-151188804D01*
X373809323Y-151120756D01*
X373782004Y-147086354D01*
X373817727Y-146998434D01*
X373881806Y-146963903D01*
X374094314Y-146921632D01*
X374180113Y-146904567D01*
X374180113Y-146904566D01*
X374180116Y-146904566D01*
X375867256Y-145777256D01*
X376994566Y-144090116D01*
X377390425Y-142100000D01*
X377390425Y-142099997D01*
X376994567Y-140109886D01*
X376994566Y-140109885D01*
X376994566Y-140109884D01*
X375867256Y-138422744D01*
X374180116Y-137295434D01*
X374180115Y-137295433D01*
X374180114Y-137295433D01*
X374180113Y-137295432D01*
X373814199Y-137222648D01*
X373735288Y-137169922D01*
X373714394Y-137101875D01*
X373687330Y-133105187D01*
X373723053Y-133017265D01*
X373787132Y-132982735D01*
X374052980Y-132929854D01*
X374180113Y-132904567D01*
X374180113Y-132904566D01*
X374180116Y-132904566D01*
X375867256Y-131777256D01*
X376994566Y-130090116D01*
X377390425Y-128100000D01*
X377390425Y-128099997D01*
X376994567Y-126109886D01*
X376994566Y-126109885D01*
X376994566Y-126109884D01*
X375867256Y-124422744D01*
X374180116Y-123295434D01*
X374180114Y-123295433D01*
X374180111Y-123295432D01*
X373719269Y-123203765D01*
X373640358Y-123151039D01*
X373619464Y-123082993D01*
X373592656Y-119124020D01*
X373628379Y-119036097D01*
X373692458Y-119001567D01*
X373999861Y-118940420D01*
X374180113Y-118904567D01*
X374180113Y-118904566D01*
X374180116Y-118904566D01*
X375867256Y-117777256D01*
X376994566Y-116090116D01*
X377390425Y-114100000D01*
X377390425Y-114099997D01*
X376994567Y-112109886D01*
X376994566Y-112109885D01*
X376994566Y-112109884D01*
X375867256Y-110422744D01*
X374180116Y-109295434D01*
X374180114Y-109295433D01*
X374180111Y-109295432D01*
X373624340Y-109184882D01*
X373545429Y-109132156D01*
X373524534Y-109064107D01*
X373497981Y-105142852D01*
X373533705Y-105054929D01*
X373597785Y-105020398D01*
X373929076Y-104954500D01*
X374180113Y-104904567D01*
X374180113Y-104904566D01*
X374180116Y-104904566D01*
X375867256Y-103777256D01*
X376994566Y-102090116D01*
X377390425Y-100100000D01*
X377390425Y-100099997D01*
X376994567Y-98109886D01*
X376994566Y-98109885D01*
X376994566Y-98109884D01*
X375867256Y-96422744D01*
X374180116Y-95295434D01*
X374180115Y-95295433D01*
X374180114Y-95295433D01*
X374180113Y-95295432D01*
X373529410Y-95166000D01*
X373450499Y-95113274D01*
X373429605Y-95045226D01*
X373414302Y-92785339D01*
X373450026Y-92697414D01*
X373537459Y-92660503D01*
X373538299Y-92660500D01*
X389065500Y-92660500D01*
X389153181Y-92696819D01*
G37*
%TD.AperFunction*%
%TD*%
M02*
